<svg id="Capa_1" data-name="Capa 1" xmlns="http://www.w3.org/2000/svg" viewBox="0 0 171.59 226.41"><defs><style>.cls-1,.cls-3{fill:#e52a23;}.cls-1,.cls-2{stroke:#e52a23;stroke-miterlimit:10;}.cls-1{stroke-width:5px;}.cls-2{fill:#fff;stroke-width:4px;}</style></defs><title>account</title><path class="cls-1" d="M95,.87c2.33.88,4.83.8,7.25,1.25a81.91,81.91,0,0,1,42.23,21.5A80.25,80.25,0,0,1,169.3,70.35c3.7,23.41-1.46,44.89-15.72,64q-32.45,43.4-65,86.73c-1.22,1.65-1.67,1.63-2.89,0-22.09-29.58-44.39-59-66.32-88.69-12-16.26-16.78-34.88-15.24-55a80.71,80.71,0,0,1,24-52.15A81.45,81.45,0,0,1,74.66,1.69c1.27-.19,2.69.05,3.84-.82ZM87.14,28.74A55.34,55.34,0,0,0,31.82,84.27c0,29.84,24.86,54.85,54.27,55.14a55.34,55.34,0,1,0,1-110.67Z" transform="translate(-1.37 1.63)"/><circle class="cls-2" cx="85.44" cy="85.43" r="83.05"/><path class="cls-3" d="M87.44,58.06H33.28a3.92,3.92,0,0,1-3.92-2.86,3.79,3.79,0,0,1,1.7-4.31c4.27-3,8.57-6,12.86-9L85,13.14a3.93,3.93,0,0,1,5-.08l53.64,37.58c2,1.41,2.67,2.83,2.13,4.56-.61,2-2,2.86-4.54,2.86Zm.11-33.45a13.12,13.12,0,1,0,13.14,13A13.22,13.22,0,0,0,87.55,24.61Z" transform="translate(-1.37 1.63)"/><path class="cls-3" d="M87.5,136.43q-28,0-56,0c-1.2,0-1.55-.29-1.5-1.5.11-2.82-.12-5.67.15-8.47a10,10,0,0,1,10.28-9.17q23.21,0,46.42,0h47.41c6.57,0,10.72,4.15,10.72,10.73,0,2.37-.06,4.75,0,7.12,0,1.06-.31,1.28-1.32,1.28Q115.59,136.4,87.5,136.43Z" transform="translate(-1.37 1.63)"/><path class="cls-3" d="M63.14,92.81c0,6.58,0,13.15,0,19.72,0,.94-.23,1.18-1.17,1.17-6,0-11.9,0-17.84,0-.9,0-1.22-.17-1.21-1.15q0-19.79,0-39.56c0-.82.14-1.15,1.07-1.14q9,.06,18.1,0c.94,0,1,.33,1,1.14C63.12,79.59,63.14,86.2,63.14,92.81Z" transform="translate(-1.37 1.63)"/><path class="cls-3" d="M77.59,92.77c0-6.61,0-13.22,0-19.83,0-.87.19-1.11,1.08-1.1q9,.06,18.08,0c.78,0,1.07.15,1.06,1q0,19.89,0,39.79c0,.82-.22,1-1,1-6.07,0-12.14,0-18.21,0-.92,0-1-.38-1-1.1Q77.6,102.69,77.59,92.77Z" transform="translate(-1.37 1.63)"/><path class="cls-3" d="M112,92.69c0-6.53,0-13.06,0-19.59,0-1.08.3-1.27,1.3-1.27,5.87.06,11.73,0,17.6,0,1,0,1.33.18,1.33,1.26q-.06,19.59,0,39.19c0,1.19-.36,1.42-1.46,1.41q-8.79-.08-17.6,0c-.93,0-1.17-.23-1.17-1.17C112,105.92,112,99.3,112,92.69Z" transform="translate(-1.37 1.63)"/><path class="cls-3" d="M87.57,61.68c4.36,0,8.72,0,13.08,0,.88,0,1.19.26,1.09,1.13-.07.7,0,1.42-.1,2.1a4,4,0,0,1-4,3.45q-10.22,0-20.44,0a3.87,3.87,0,0,1-3.83-3.8c-.26-2.86-.26-2.86,2.57-2.86Z" transform="translate(-1.37 1.63)"/><path class="cls-3" d="M122,61.68c4.36,0,8.73,0,13.1,0,.84,0,1.1.25,1,1.05-.05.58,0,1.17,0,1.75a4,4,0,0,1-3.94,3.87q-10.29.06-20.59,0a3.87,3.87,0,0,1-3.72-3.79c-.18-2.87-.18-2.87,2.68-2.87Z" transform="translate(-1.37 1.63)"/><path class="cls-3" d="M53.25,61.68H65.09c2.26,0,2.26,0,2.24,2.31a4.31,4.31,0,0,1-3.44,4.3,5.86,5.86,0,0,1-1.11.06q-9.73,0-19.45,0c-2.71,0-4.21-1.5-4.28-4.22,0-2.44,0-2.45,2.35-2.45Z" transform="translate(-1.37 1.63)"/><path class="cls-3" d="M87.52,47.13A9.45,9.45,0,1,1,97,37.72,9.64,9.64,0,0,1,87.52,47.13ZM88.32,35a9.15,9.15,0,0,0,0-.95c-.12-1,.31-1.07,1.07-.71a2.64,2.64,0,0,1,.57.24c1,.81,1.24-.16,1.59-.72.51-.84-.43-.75-.74-1s-.7-.27-1-.46c-.53-.33-1.6.15-1.58-1.09,0-.2-.84-.15-.84,0,0,1.21-1.08.93-1.69,1.23a3.36,3.36,0,0,0-2.18,3.05c0,1.8.68,2.7,2.69,3.35.53.17,1.21.2,1.07,1.06S87.7,41.1,87,41.5s-1.69-.38-2.4-1c-.33-.28-.5-.2-.79.08-1,1-1,1.11.25,1.85a7.38,7.38,0,0,0,2.19.87c.6.13,1.17.15,1,1-.06.37.17.5.53.5s.56-.14.51-.5c-.11-.72.24-.86.9-.95a3.46,3.46,0,0,0,3-3.27,3,3,0,0,0-2.54-3.22C88.54,36.56,88,36,88.32,35Z" transform="translate(-1.37 1.63)"/><path class="cls-3" d="M88.36,41.85V38.68c1,.24,1.85.67,1.85,1.71S89.29,41.61,88.36,41.85Z" transform="translate(-1.37 1.63)"/><path class="cls-3" d="M87.39,34.67c-.39.5.34,1.39-.55,1.42a1.29,1.29,0,0,1-1.35-1.44c0-.86.56-1.51,1.35-1.42C87.79,33.32,86.89,34.28,87.39,34.67Z" transform="translate(-1.37 1.63)"/></svg>