<svg xmlns="http://www.w3.org/2000/svg" viewBox="0 0 171.59 226.41"><defs><style>.cls-1{fill:#dddfe5;stroke-width:5px;}.cls-1,.cls-2{stroke:#1d1d1b;stroke-miterlimit:10;}.cls-2{fill:#fff;stroke-width:4px;}.cls-3{fill:#0e0f10;}.cls-4{fill:#dddfe4;}.cls-5{fill:#dee0e5;}.cls-6{fill:#c5c9cf;}.cls-7{fill:#a3a6a7;}.cls-8{fill:#a4a6a8;}.cls-9{fill:#c6c9d0;}.cls-10{fill:#0b0b08;}.cls-11{fill:#fefefe;}.cls-12{fill:#fdfdfd;}.cls-13{fill:#f1cc64;}.cls-14{fill:#181507;}.cls-15{fill:#efca63;}.cls-16{fill:#ecc762;}</style></defs><title>account</title><g id="Capa_2" data-name="Capa 2"><g id="Capa_1-2" data-name="Capa 1"><path class="cls-1" d="M93.59,2.5c2.33.88,4.84.8,7.25,1.24a82,82,0,0,1,42.23,21.5A80.27,80.27,0,0,1,167.93,72c3.7,23.41-1.46,44.89-15.72,64q-32.43,43.4-65,86.73c-1.23,1.64-1.68,1.62-2.9,0C62.25,193.1,40,163.67,18,134,6,117.72,1.24,99.1,2.78,79a80.72,80.72,0,0,1,24-52.16A81.44,81.44,0,0,1,73.29,3.32c1.27-.2,2.69.05,3.84-.82ZM85.78,30.36A55.35,55.35,0,0,0,30.45,85.9c0,29.84,24.86,54.85,54.27,55.14A55.35,55.35,0,1,0,85.78,30.36Z"/><circle class="cls-2" cx="85.44" cy="85.43" r="83.05"/><path class="cls-3" d="M84.14,135.64q-28.36,0-56.71,0c-1.19,0-1.47-.33-1.43-1.46.08-2.52,0-5.05,0-7.58a10.22,10.22,0,0,1,10.23-10.28c.91,0,2.11.4,2.67-.19s.19-1.84.19-2.8q0-22.67,0-45.34c0-.86-.12-1.33-1.11-1.53-1.89-.4-3-2-3-4.12,0-1.72,0-3.45,0-5.17,0-.67-.18-.87-.84-.85-1.52,0-3,0-4.55,0-2.33,0-3.75-1-4.34-2.89s.07-3.27,2-4.59Q54.07,30.17,80.89,11.47c1.27-.89,2.48-1.74,4.15-1.33a4.66,4.66,0,0,1,1.58.73L141.18,49c1.84,1.29,2.44,2.7,1.91,4.47a4,4,0,0,1-4.2,2.92c-1.47,0-2.95.08-4.41,0-1-.07-1.19.3-1.15,1.2.07,1.56,0,3.12,0,4.67,0,2.42-1,3.75-3.35,4.37-.62.17-.77.43-.77,1q0,23.88,0,47.74c0,.88.31,1.06,1.08,1,3-.15,5.88.29,8.28,2.32A9.6,9.6,0,0,1,142.3,126c.08,2.82,0,5.64.07,8.46,0,1-.32,1.23-1.28,1.23q-16.35,0-32.71,0Zm3.33-68.88c-2.73,0-5.47,0-8.19-.12-1.11,0-1.47.21-1.46,1.4.05,13.43,0,26.85,0,40.27,0,2.57,0,5.13,0,7.7.22.67.78.34,1.17.34,3.36,0,6.72,0,10.09,0,1.09,0,1.39-.23,1.39-1.37q-.06-22.76,0-45.52C90.51,66.49,90.51,66.49,87.47,66.76Zm-34.86,0c-2.73,0-5.47,0-8.19-.11-1.11,0-1.46.21-1.46,1.41,0,11.78,0,23.56,0,35.34q0,6.3,0,12.62c.22.67.78.34,1.17.34,3.36,0,6.72,0,10.08.05,1.09,0,1.4-.24,1.4-1.37q-.06-22.77,0-45.53C55.65,66.5,55.65,66.5,52.61,66.75Zm69.73,0c-2.77,0-5.54,0-8.31-.1-1.15,0-1.35.32-1.34,1.39q0,23.51,0,47a8.46,8.46,0,0,0,0,1c0,.3.27.24.48.2a2.85,2.85,0,0,0,1.36.12c3.07,0,6.15,0,9.22,0,1.21,0,1.61-.21,1.61-1.55-.06-15.11,0-30.22,0-45.33C125.37,66.57,125.37,66.57,122.34,66.73ZM29.91,127.37a25.43,25.43,0,0,1-.06,2.9c-.17,1.28.35,1.48,1.52,1.48q52.76-.06,105.52,0c.25,0,.5,0,.75,0,.64.08.9-.15.87-.83a29.8,29.8,0,0,1,0-3.66,6.42,6.42,0,0,0-7.34-6.91,4.23,4.23,0,0,0-.5,0q-47.19,0-94.39,0C32.29,120.28,29.68,123.25,29.91,127.37Zm82.31-93.9c-.23-.18-.46-.38-.7-.54C102.77,26.82,94,20.73,85.29,14.58a1.57,1.57,0,0,0-2.17,0Q70.07,23.77,57,32.86L35.73,47.75,29.38,52.1l.13.24H139.35ZM59.52,91.52c0,7.91,0,15.82,0,23.73,0,.87.22,1.14,1.11,1.13,4.08,0,8.16,0,12.25,0,.85,0,1.14-.19,1.14-1.1q0-23.81,0-47.59c0-.64-.13-1-.81-1.13a4,4,0,0,1-3.31-4.26c0-1.68,0-3.37,0-5,0-.72-.21-.93-.92-.9-1.47,0-3,.07-4.41,0-.85,0-1,.3-.94,1,.05,1.68,0,3.37,0,5a3.89,3.89,0,0,1-3.05,4.08c-.88.2-1.09.55-1.08,1.42C59.53,75.78,59.52,83.65,59.52,91.52Zm34.86,0c0,7.91,0,15.82,0,23.73,0,.87.22,1.14,1.11,1.13q6.12-.06,12.25,0c.85,0,1.14-.19,1.14-1.1q0-23.81,0-47.59c0-.64-.13-1-.81-1.12a4,4,0,0,1-3.31-4.27c0-1.72,0-3.45,0-5.17,0-.61-.19-.79-.79-.78-1.51,0-3,.07-4.54,0-.84,0-1,.3-.94,1,0,1.68,0,3.36,0,5a3.89,3.89,0,0,1-3,4.08c-.88.2-1.09.56-1.08,1.42C94.39,75.78,94.38,83.65,94.38,91.52ZM49.32,56.34c-3.07,0-6.13,0-9.2,0-1,0-1.26.31-1.21,1.26.07,1.43.05,2.86,0,4.29,0,.69.15.94.9.94q9.51,0,19,0c.75,0,.91-.26.89-1,0-1.47-.06-2.94,0-4.41,0-.86-.18-1.15-1.09-1.13C55.54,56.38,52.43,56.34,49.32,56.34Zm34.92,0c-3.15,0-6.3,0-9.45,0-.72,0-1.06.11-1,.94.07,1.55,0,3.11,0,4.67,0,.64.16.87.84.86q9.58,0,19.16,0c.7,0,.84-.26.82-.89,0-1.51,0-3,0-4.53,0-.81-.18-1.08-1-1.07C90.46,56.37,87.35,56.34,84.24,56.34Zm34.81,6.45c3.15,0,6.31,0,9.46,0,.67,0,1-.12.94-.88,0-1.55,0-3.11,0-4.66,0-.71-.17-.94-.9-.93q-9.53,0-19,0c-.77,0-.91.27-.89,1,0,1.47.07,2.94,0,4.41,0,.87.2,1.14,1.11,1.12C112.83,62.76,115.94,62.79,119.05,62.79Z"/><path class="cls-4" d="M35.73,47.75,57,32.86Q70,23.74,83.12,14.6a1.57,1.57,0,0,1,2.17,0c8.72,6.15,17.48,12.24,26.23,18.35.24.16.47.36.7.54a1.17,1.17,0,0,1-.41.75c-4.54,5.05-10.45,7.85-16.63,10.23a.48.48,0,0,1-.65-.2,14,14,0,0,0,3-8A13.36,13.36,0,1,0,79.13,48.11c-2,.64-4.12.53-6.18.74a68.32,68.32,0,0,1-11.34.39c-3.73-.23-7.45-.08-11.17-.34-3.54-.24-7.09-.45-10.64-.66C38.46,48.16,37,48.4,35.73,47.75ZM51,45.56c.17,0,.37,0,.5-.05A23.85,23.85,0,0,0,56.21,42a1.2,1.2,0,0,0-.2-1.71A1.23,1.23,0,0,0,54.3,40c-1.41,1-2.83,2.08-4.21,3.18a1.07,1.07,0,0,0-.37,1.35C50,45.13,50.31,45.59,51,45.56ZM66.26,33.83a1.33,1.33,0,0,0-2.14-1.16c-1.29.85-2.53,1.78-3.75,2.75a1.39,1.39,0,0,0-.37,2.1,1.46,1.46,0,0,0,2.14.13c1.24-.86,2.44-1.77,3.65-2.67A1.2,1.2,0,0,0,66.26,33.83Z"/><path class="cls-5" d="M29.91,127.37c-.23-4.12,2.38-7.09,6.37-7.09q47.19,0,94.39,0a4.23,4.23,0,0,1,.5,0A2.71,2.71,0,0,1,130,121a55.16,55.16,0,0,1-11.31,3.81,143.67,143.67,0,0,1-23,3.24c-5.52.42-11.06.63-16.6.77-8.61.21-17.23,0-25.84-.27-2.06-.06-4.11-.11-6.17-.23Q38.52,127.9,29.91,127.37Z"/><path class="cls-6" d="M35.73,47.75c1.29.65,2.73.41,4.07.49,3.55.21,7.1.42,10.64.66,3.72.26,7.44.11,11.17.34A68.32,68.32,0,0,0,73,48.85c2.06-.21,4.16-.1,6.18-.74a15.53,15.53,0,0,0,4.52,1,13.71,13.71,0,0,0,10.88-4.82.48.48,0,0,0,.65.2c6.18-2.38,12.09-5.18,16.63-10.23a1.17,1.17,0,0,0,.41-.75l27.13,18.87H29.51l-.13-.24ZM114,43.28a1,1,0,0,0,.46,1c1.32,1,2.61,2,3.92,3a1.4,1.4,0,0,0,2-.16,1.26,1.26,0,0,0-.21-2c-1.33-1.07-2.69-2.12-4.12-3.08A1.34,1.34,0,0,0,114,43.28Z"/><path class="cls-7" d="M29.91,127.37q8.61.51,17.2,1c2.06.12,4.11.17,6.17.23,8.61.25,17.23.48,25.84.27,5.54-.14,11.08-.35,16.6-.77a143.67,143.67,0,0,0,23-3.24A55.16,55.16,0,0,0,130,121a2.71,2.71,0,0,0,1.16-.72,6.42,6.42,0,0,1,7.34,6.91,29.8,29.8,0,0,0,0,3.66c0,.68-.23.91-.87.83-.25,0-.5,0-.75,0q-52.77,0-105.52,0c-1.17,0-1.69-.2-1.52-1.48A25.43,25.43,0,0,0,29.91,127.37Z"/><path class="cls-5" d="M113.22,116.24c-.21,0-.45.1-.48-.2a8.46,8.46,0,0,1,0-1q0-23.5,0-47c0-1.07.19-1.43,1.34-1.39,2.77.12,5.54.08,8.31.1a164.42,164.42,0,0,1-.73,19.72,116.13,116.13,0,0,1-2.08,13.5c-1.26,5.5-2.87,10.86-6.13,15.58A.9.9,0,0,0,113.22,116.24Z"/><path class="cls-5" d="M43,116q0-6.32,0-12.62c0-11.78,0-23.56,0-35.34,0-1.2.35-1.45,1.46-1.41,2.72.1,5.46.08,8.19.11-.11,3.23,0,6.46-.18,9.7-.24,4.48-.53,9-1.07,13.41A79.35,79.35,0,0,1,47,108.8,22.63,22.63,0,0,1,43,116Z"/><path class="cls-5" d="M77.89,116c0-2.57,0-5.13,0-7.7,0-13.42,0-26.84,0-40.27,0-1.19.35-1.44,1.46-1.4,2.72.1,5.46.09,8.19.12-.11,3.23,0,6.46-.18,9.69-.24,4.48-.53,9-1.06,13.41A80.35,80.35,0,0,1,81.9,108.8,22.33,22.33,0,0,1,77.89,116Z"/><path class="cls-7" d="M77.89,116a22.33,22.33,0,0,0,4-7.21,80.35,80.35,0,0,0,4.33-18.94c.53-4.46.82-8.93,1.06-13.41.17-3.23.07-6.46.18-9.69,3-.27,3-.27,3,2.74q0,22.75,0,45.52c0,1.14-.3,1.4-1.39,1.37-3.37-.07-6.73,0-10.09,0C78.67,116.35,78.11,116.68,77.89,116Z"/><path class="cls-7" d="M43,116a22.63,22.63,0,0,0,4-7.21,79.35,79.35,0,0,0,4.32-18.94c.54-4.46.83-8.93,1.07-13.41.17-3.24.07-6.47.18-9.7,3-.25,3-.25,3,2.75q0,22.75,0,45.53c0,1.13-.31,1.39-1.4,1.37-3.36-.08-6.72,0-10.08-.05C43.81,116.35,43.25,116.68,43,116Z"/><path class="cls-8" d="M113.22,116.24a.9.9,0,0,1,.18-.71c3.26-4.72,4.87-10.08,6.13-15.58a116.13,116.13,0,0,0,2.08-13.5,164.42,164.42,0,0,0,.73-19.72c3-.16,3-.16,3,2.79,0,15.11,0,30.22,0,45.33,0,1.34-.4,1.58-1.61,1.55-3.07-.09-6.15,0-9.22,0A2.85,2.85,0,0,1,113.22,116.24Z"/><path class="cls-9" d="M49.32,56.34c3.11,0,6.22,0,9.33,0,.91,0,1.13.27,1.09,1.13-.07,1.47-.05,2.94,0,4.41,0,.69-.14,1-.89,1q-9.51,0-19,0c-.75,0-.92-.25-.9-.94.05-1.43.07-2.86,0-4.29,0-.95.17-1.29,1.21-1.26C43.19,56.39,46.25,56.34,49.32,56.34Z"/><path class="cls-9" d="M84.24,56.34c3.11,0,6.22,0,9.33,0,.85,0,1.06.26,1,1.07-.06,1.51,0,3,0,4.53,0,.63-.12.89-.82.89q-9.58,0-19.16,0c-.68,0-.85-.22-.84-.86,0-1.56.07-3.12,0-4.67,0-.83.3-1,1-.94C77.94,56.36,81.09,56.34,84.24,56.34Z"/><path class="cls-9" d="M119.05,62.79c-3.11,0-6.22,0-9.32,0-.91,0-1.15-.25-1.11-1.12.08-1.47,0-2.94,0-4.41,0-.68.12-1,.89-1q9.51,0,19,0c.73,0,.92.22.9.93,0,1.55,0,3.11,0,4.66,0,.76-.27.89-.94.88C125.36,62.77,122.2,62.79,119.05,62.79Z"/><path class="cls-10" d="M94.53,44.25a13.71,13.71,0,0,1-10.88,4.82,15.53,15.53,0,0,1-4.52-1A13.39,13.39,0,1,1,97.55,36.26,14,14,0,0,1,94.53,44.25ZM84.24,26.12a9.57,9.57,0,1,0,9.51,9.62A9.66,9.66,0,0,0,84.24,26.12Z"/><path class="cls-11" d="M51,45.56c-.72,0-1.05-.43-1.31-1a1.07,1.07,0,0,1,.37-1.35c1.38-1.1,2.8-2.14,4.21-3.18a1.23,1.23,0,0,1,1.71.22,1.2,1.2,0,0,1,.2,1.71,23.85,23.85,0,0,1-4.68,3.55C51.4,45.59,51.2,45.54,51,45.56Z"/><path class="cls-12" d="M66.26,33.83A1.2,1.2,0,0,1,65.79,35c-1.21.9-2.41,1.81-3.65,2.67A1.46,1.46,0,0,1,60,37.52a1.39,1.39,0,0,1,.37-2.1c1.22-1,2.46-1.9,3.75-2.75A1.33,1.33,0,0,1,66.26,33.83Z"/><path class="cls-12" d="M114,43.28A1.34,1.34,0,0,1,116.06,42c1.43,1,2.79,2,4.12,3.08a1.26,1.26,0,0,1,.21,2,1.4,1.4,0,0,1-2,.16c-1.31-1-2.6-2-3.92-3A1,1,0,0,1,114,43.28Z"/><path class="cls-13" d="M84.24,26.12a9.57,9.57,0,1,1-9.62,9.51A9.67,9.67,0,0,1,84.24,26.12Zm-.49,13.57a4.71,4.71,0,0,1-2.5-1.07c-.36-.27-.55-.33-.9.05-1,1-1,1.2.21,1.94a6.23,6.23,0,0,0,2.07.88c.64.13,1.24.22,1.15,1.12,0,.42.35.39.64.4s.56,0,.5-.39c-.19-1.09.7-.92,1.26-1.09a3.5,3.5,0,0,0,2.76-3.34A3.07,3.07,0,0,0,86.44,35c-1.29-.32-1.61-.92-1.53-2.17.12-1.7.21-1.89,1.62-1,1.12.68,1.4-.1,1.75-.75.5-.93-.54-.8-.91-1.09a5,5,0,0,0-1.16-.45c-.51-.2-1.29.11-1.36-.92,0-.32-.95-.34-1,0-.14.9-.81.7-1.31.86a3.57,3.57,0,0,0-2.62,3.2,2.89,2.89,0,0,0,2.19,3.16,1.88,1.88,0,0,1,1.65,2.47A9.29,9.29,0,0,0,83.75,39.69Z"/><path class="cls-14" d="M83.75,39.69a9.29,9.29,0,0,1,0-1.4,1.88,1.88,0,0,0-1.65-2.47,2.89,2.89,0,0,1-2.19-3.16,3.57,3.57,0,0,1,2.62-3.2c.5-.16,1.17,0,1.31-.86.05-.38,1-.36,1,0,.07,1,.85.72,1.36.92a5,5,0,0,1,1.16.45c.37.29,1.41.16.91,1.09-.35.65-.63,1.43-1.75.75-1.41-.85-1.5-.66-1.62,1-.08,1.25.24,1.85,1.53,2.17a3.07,3.07,0,0,1,2.5,3.21,3.5,3.5,0,0,1-2.76,3.34c-.56.17-1.45,0-1.26,1.09.06.34-.22.39-.5.39s-.68,0-.64-.4c.09-.9-.51-1-1.15-1.12a6.23,6.23,0,0,1-2.07-.88c-1.18-.74-1.18-.92-.21-1.94.35-.38.54-.32.9-.05A4.71,4.71,0,0,0,83.75,39.69Zm1.19-3c0,.87,0,1.62,0,2.37s.29.77.84.52a1.34,1.34,0,0,0,.94-1.34C86.66,37.25,85.89,37,84.94,36.71Zm-1.24-2.6V31.23c-.87.12-1.51.41-1.55,1.36S82.79,33.85,83.7,34.11Z"/><path class="cls-15" d="M84.94,36.71c1,.31,1.72.54,1.77,1.55a1.34,1.34,0,0,1-.94,1.34c-.55.25-.87.21-.84-.52S84.94,37.58,84.94,36.71Z"/><path class="cls-16" d="M83.7,34.11c-.91-.26-1.58-.56-1.55-1.52s.68-1.24,1.55-1.36Z"/></g></g></svg>