<svg xmlns="http://www.w3.org/2000/svg" viewBox="0 0 170.11 223.53"><defs><style>.cls-1{fill:#e52421;}.cls-2{fill:#fff;stroke:#e52722;stroke-miterlimit:10;stroke-width:4px;}</style></defs><title>bus_d</title><g id="Capa_2" data-name="Capa 2"><g id="Capa_1-2" data-name="Capa 1"><path class="cls-1" d="M93.21,2.12c2.33.88,4.83.8,7.25,1.25a81.91,81.91,0,0,1,42.23,21.5A80.25,80.25,0,0,1,167.55,71.6c3.7,23.41-1.46,44.89-15.72,64q-32.45,43.4-65,86.73c-1.22,1.65-1.67,1.63-2.89,0-22.09-29.58-44.39-59-66.32-88.69C5.62,117.35.86,98.73,2.4,78.66a80.71,80.71,0,0,1,24-52.15A81.45,81.45,0,0,1,72.91,2.94c1.27-.19,2.69.05,3.84-.82ZM85.39,30A55.34,55.34,0,0,0,30.07,85.52c0,29.84,24.86,54.85,54.27,55.14A55.34,55.34,0,1,0,85.39,30Z"/><circle class="cls-2" cx="85.05" cy="85.05" r="83.05"/><path class="cls-1" d="M134.49,84.17c0,12.73-.06,25.46,0,38.19a9.29,9.29,0,0,1-6.64,9.26,8.57,8.57,0,0,1-3.29.34c-1.34-.18-1.6.36-1.56,1.59a19.25,19.25,0,0,1-.17,4.91,9,9,0,0,1-17.82-1.88c0-1.23-.06-2.47,0-3.69.05-.81-.25-.92-1-.92q-20,0-40,0c-.75,0-1,.18-1,.95a23.13,23.13,0,0,1-.22,5.64,9,9,0,0,1-9.58,7,9.12,9.12,0,0,1-8.22-9.06,33.08,33.08,0,0,1,0-3.45c.07-.91-.27-1.1-1.1-1a9.14,9.14,0,0,1-7-2.17,9.5,9.5,0,0,1-3.1-7.47q0-29.56,0-59.13c0-5.43.16-10.85,0-16.26a14,14,0,0,1,14.6-14.6c6.5.16,13,0,19.51,0,.9,0,1.19-.16,1.31-1.15a9.41,9.41,0,0,1,8.93-8.49,69.93,69.93,0,0,1,12.94.12,9.26,9.26,0,0,1,7.91,8c.16,1.3.61,1.6,1.89,1.59,7.08,0,14.16-.08,21.24.07,6.36.15,12,6,12.22,12.27,0,.45.05.9.05,1.36ZM84.55,58.74c-12.06,0-24.12.07-36.18,0a7.28,7.28,0,0,0-7.74,7.74q.18,8.93,0,17.86a7.31,7.31,0,0,0,7.6,7.62q36.18-.15,72.37,0a7.4,7.4,0,0,0,7.53-7.45c-.15-6.11,0-12.23,0-18.35a7.74,7.74,0,0,0-.19-2.19c-.94-3.36-3.5-5.18-7.41-5.19Q102.51,58.72,84.55,58.74Zm-.07-19.91H48.55A10.09,10.09,0,0,0,46.1,39c-3.91,1-5.88,4.21-5.33,8.71a6.89,6.89,0,0,0,7.12,6c24.23,0,48.47,0,72.71,0,4.27,0,8.81-3.42,7.23-9.76-.83-3.29-3.45-5.1-7.06-5.1Zm44.11,74.59a8,8,0,1,0-8,8A7.95,7.95,0,0,0,128.59,113.42Zm-80.73-8a8,8,0,1,0,8,8A8.09,8.09,0,0,0,47.86,105.43Z"/></g></g></svg>