<svg xmlns="http://www.w3.org/2000/svg" viewBox="0 0 170.11 223.53"><defs><style>.cls-1{fill:#030304;}.cls-2{fill:#fff;stroke:#1d1d1b;stroke-miterlimit:10;stroke-width:4px;}</style></defs><title>crime_2</title><g id="Capa_2" data-name="Capa 2"><g id="Capa_1-2" data-name="Capa 1"><path class="cls-1" d="M93.21,2.12c2.33.88,4.83.8,7.25,1.25a81.91,81.91,0,0,1,42.23,21.5A80.25,80.25,0,0,1,167.55,71.6c3.7,23.41-1.46,44.89-15.72,64q-32.45,43.4-65,86.73c-1.22,1.65-1.67,1.63-2.89,0-22.09-29.58-44.39-59-66.32-88.69C5.62,117.35.86,98.73,2.4,78.66a80.71,80.71,0,0,1,24-52.15A81.45,81.45,0,0,1,72.91,2.94c1.27-.19,2.69.05,3.84-.82ZM85.39,30A55.34,55.34,0,0,0,30.07,85.52c0,29.84,24.86,54.85,54.27,55.14A55.34,55.34,0,1,0,85.39,30Z"/><circle class="cls-2" cx="85.05" cy="85.05" r="83.05"/><path d="M58.86,66.39l-1.51-2.63c-.12-.29-.16-.62-.46-.81l-1.2-3c-.14-.33-.07-.75-.4-1L54.51,56a1.61,1.61,0,0,0-.21-1.09l-.39-3.71,0-1.34.11-4a2.67,2.67,0,0,0,.21-1.6l1.39-5.34.83-2.11a32,32,0,0,1,9.85-12.2,50.45,50.45,0,0,1,5.59-3.28A7.75,7.75,0,0,0,74,20.53c2.8-.57,5.37-1.51,7-4.1a2.69,2.69,0,0,1,2.08-1,1.06,1.06,0,0,0,.8.24c.8.45,1.17,1.33,1.89,1.86a1.06,1.06,0,0,0,.68.58,6.07,6.07,0,0,0,2.76,1.62,2,2,0,0,0,1.09.43l2.9,1,.58.23L96.92,23l.38.22,2.28,1.55a2.76,2.76,0,0,0,1.08.86l1.93,1.78.78.81,1.6,1.87.8,1.07,1.39,2.13.71,1.17,1.31,2.74c0,.24,0,.51.27.66l.92,2.91.29,1.11.66,3.2.11,1.31.19,3.74-.16,1.61c-.21,1.51-.41,3-.62,4.53a5.1,5.1,0,0,0-.5,1.87,49.82,49.82,0,0,1-3,7l-3,4.23L100.65,73a.78.78,0,0,0-.55.61c-1.95,1.84-2.57,3.88-1.78,5.9a1.23,1.23,0,0,0,.43.8,2.87,2.87,0,0,1,2.36-1.39,7,7,0,0,0,4.25-2.13,5.16,5.16,0,0,1,3.08-1.31l1,.2a14.45,14.45,0,0,0,3.52.5,2.69,2.69,0,0,0,1.38,0l4.53-.43a.9.9,0,0,0,.8.25l2.41,1.59a.77.77,0,0,0,.63.34,7.24,7.24,0,0,0,3.64,1l.8.3a2.47,2.47,0,0,1,1.15,2.21c-.11,1.14-1.12,1.82-1.44,2.85-1.27,1.94-2.55,3.89-3.81,5.84-.17.26-.54.53-.07.87a.78.78,0,0,0,1.06.07,21.47,21.47,0,0,1,2-1.14l1.72-.34a15.19,15.19,0,0,1,3.87.1c.21.28.52.23.8.24l2.66,1.4.83.7,1.79,2.09.56,1,.83,2.3.16,1.34a16.66,16.66,0,0,1-.41,4c-.25.9-1.34,1.62-.55,2.73l.86,2.62.27,1.08.53,3.2.27,1.34a16.3,16.3,0,0,0,.48,3.47l.08,1.34a29.83,29.83,0,0,0,.42,3.76l.08,1c-.18,1.27.27,2.49.26,3.74l0,1.34a15.8,15.8,0,0,1-2,5.84l-2,2c-1.61,1.14-3.56,1.08-5.37,1.51a2.88,2.88,0,0,0-1.61.24,26.78,26.78,0,0,0-4.54.53l-1.34,0-4.26.27h-16l-1.34,0a22.31,22.31,0,0,0-3.74-.24l-1-.08-3.46-.61a2.1,2.1,0,0,0-1.07-.21,5.71,5.71,0,0,0-3.77-.46H88.67a24.28,24.28,0,0,0-4.26.14,2.33,2.33,0,0,0-1.36,0l-3.72-.08L78,137.25l-3.74-.06a3.67,3.67,0,0,0-1.61-.19l-3.46-.25-1.34-.06-3.44-.43L63,136.14a14.07,14.07,0,0,0-3.47-.52,1.5,1.5,0,0,0-1.07-.24,20.31,20.31,0,0,0-3.47-.6c-.3-.32-.69-.25-1.07-.25a14.71,14.71,0,0,0-3.21-.76,1.52,1.52,0,0,0-1.07-.29,12.86,12.86,0,0,0-2.93-.81c-.28-.31-.68-.28-1-.35l-3.22-1.1-.76-.3-3-1.16a1.05,1.05,0,0,0-.78-.33L35,128.05a1.36,1.36,0,0,0-.82-.44l-2.64-1.46-.39-.22-2.83-1.86-.54-.5-1.55-2.14a1.09,1.09,0,0,0-.35-.78,13,13,0,0,1-.29-3.74l.26-1.61L27.26,110a7.55,7.55,0,0,0,.88-2.09c4-8.28,10.52-14.16,18.32-18.76.38-.22.74-.47,1.11-.71A13.9,13.9,0,0,0,50.21,87l7.21-3.23A6.8,6.8,0,0,0,59.56,83l5.87-1.88c.48-.09,1-.15,1.43-.26,1.75-.4,2.09-1.08,1.55-2.95a4.34,4.34,0,0,0-1.32-2.69,2.05,2.05,0,0,0-.86-1l-2.11-1.72-.81-.77-1.86-1.91L61,69.32,59.1,66.75ZM74,52.51c2.26-.76,4.12-1.91,4.52-4.52a2.2,2.2,0,0,0-.2-1.7,3,3,0,0,0-1.57-2.07,2.33,2.33,0,0,0-1.15-.72,6.68,6.68,0,0,0-2.91-.92,2,2,0,0,0-1.36-.2,9.3,9.3,0,0,0-4,0,2.56,2.56,0,0,0-1.61.25c-2.46.57-4.2,1.91-4.69,4.52a1.79,1.79,0,0,0,.12,1.61,3.63,3.63,0,0,0,1.61,2.73,1.28,1.28,0,0,0,.76.59,6.12,6.12,0,0,0,3,1.08,2.38,2.38,0,0,0,1.37.11A12.27,12.27,0,0,0,72.11,53,4.7,4.7,0,0,0,74,52.51ZM109.51,79a1.79,1.79,0,0,0-2.11.25,11.33,11.33,0,0,1-5.28,2.85l1.72,2.51a1.3,1.3,0,0,0,.53.8,13.8,13.8,0,0,0,1.68,2.65,2.76,2.76,0,0,0,.76,1.15c.8.94,2,.58,3,.77.39.33.87.21,1.32.28l2.4.75a14.67,14.67,0,0,1-3.18,3.21,6.26,6.26,0,0,1-3.3-.09c-1-.57-1.76.15-2.57.55a27.85,27.85,0,0,0-8,5.1,17.78,17.78,0,0,0-5.83,8.85,3,3,0,0,0-.33,1.6,23.34,23.34,0,0,0-.88,4.83,3,3,0,0,0-.15,1.58,19.35,19.35,0,0,0-.52,4.54l-.19,1.62c-.12,1.42-.23,2.84-.34,4.26l0,1.34a5.27,5.27,0,0,0,1.07,2.93,1.46,1.46,0,0,0,.69.83,4.48,4.48,0,0,0,2.34,1.64,2.35,2.35,0,0,0,1.44.52,9.43,9.43,0,0,0,3.22.73l1.08.24a18.64,18.64,0,0,0,3.73.28l1.34,0a20.47,20.47,0,0,0,4,.07,2.14,2.14,0,0,0,1.37,0,15.36,15.36,0,0,0,3.71,0,3,3,0,0,0,1.61,0,19.9,19.9,0,0,0,4,0,2.65,2.65,0,0,0,1.34,0l4-.08a3.39,3.39,0,0,0,1.61-.18A23.59,23.59,0,0,0,129,135l1.61-.23c1-.15,2.09-.31,3.13-.42a4.63,4.63,0,0,0,4.09-3.43,11.41,11.41,0,0,0,.72-4.13,1.42,1.42,0,0,0-.19-1.08,13.77,13.77,0,0,0-.29-3.73l-.06-1.35a20.11,20.11,0,0,0-.45-3.46l-.12-1.37-.47-3.17-.27-1.34a10.11,10.11,0,0,0-1-3.49l-.1-.22-.27.17.07,0-.07,0-2.61,1.43a12.91,12.91,0,0,1-4.53.63l-1.32-.17-2.69-1.05-.8-.53-2.1-1.95a1.27,1.27,0,0,0-.55-.75L119.63,103l-.41-1.51-.08-3.3.5-1.87c.3-.58.59-1.17.91-1.74.1-.19.3-.4.1-.56a.66.66,0,0,0-.61,0,8.31,8.31,0,0,1-3.58.72,1.68,1.68,0,0,0-1.08-.14l-2.2-.18c.67-1.2,1.95-1.69,2.59-2.7a1.94,1.94,0,0,1,2.08-1,1.23,1.23,0,0,0,1.38-.5c1.66-2.6,3.38-5.17,5.08-7.75.38-.38.77-.75-.19-.84a8.68,8.68,0,0,1-1-.2l-2.31-.9-1.16-.75c-1.09-1.36-2.42-.82-3.73-.51l-1.35,0-3.73-.09A2,2,0,0,0,109.51,79ZM81.46,59a8.13,8.13,0,0,0-5.62,2.59,4.31,4.31,0,0,0-1.33,4.33,1.81,1.81,0,0,0,.5,1.43,4.14,4.14,0,0,0,1.89,2.11,1.11,1.11,0,0,0,.8.52,5.49,5.49,0,0,0,3,1.07,1.82,1.82,0,0,0,1.35.2,8.08,8.08,0,0,0,4.81-.77A6,6,0,0,0,91,66.15a4.15,4.15,0,0,0-.53-3.46,2,2,0,0,0-.78-1,5.08,5.08,0,0,0-2.36-1.72c-.12-.25-.37-.21-.58-.26a6.89,6.89,0,0,0-4-.73A2.65,2.65,0,0,0,81.46,59Zm4.82-9.91a1,1,0,0,0,.47.82,4,4,0,0,0,2.15,1.87,2.39,2.39,0,0,0,1.34.6,8,8,0,0,0,3.24.67l1.34,0a8.91,8.91,0,0,0,4.54-.54,5.13,5.13,0,0,0,4-4,4.13,4.13,0,0,0-.68-3.5,1.86,1.86,0,0,0-.86-1.05,4.19,4.19,0,0,0-2.41-1.34c-.29-.33-.68-.28-1.06-.27a9.87,9.87,0,0,0-4-.23,4.12,4.12,0,0,0-1.64.06A12.19,12.19,0,0,0,87.71,44C85.68,45.3,85.24,46.83,86.28,49.06Z"/><path d="M117.81,106.28l.61.76,1.1,2.67c.2.92-.27,1.19-1.09,1.11l-3.46,0c-.34-1-.3-2.17-1.57-2.68v3.76c-.12,1.84-.12,1.84,1.95,2.22l1.42.58a6.16,6.16,0,0,1,1.87,1.49l.56.79a9.53,9.53,0,0,1,.71,2.92l-.1,1.62c-.76,3-2.81,4.69-5.67,5.55-.88-.08-1.15.31-.86,1.12.07,1.1-.5,1.48-1.52,1.37l-1.34,0c-1-.14-.54-.9-.52-1.35,0-.84-.19-1.24-1.07-1.12-.28-.32-.7-.2-1-.31l-2.43-1.28-.79-.82-1.12-1.81-.35-1.38a2.6,2.6,0,0,0,0-.39c-.32-1.09-.13-1.77,1.23-1.53a2.89,2.89,0,0,0,.77-.06,3.54,3.54,0,0,0,1.65,0c.37.09.83,0,1,.46l0,.1.07.1a2.12,2.12,0,0,0,.48,1.47,2.47,2.47,0,0,0,1.64,1.77v-3.24c0-.61,0-1.24.07-1.85.14-1.08-.25-1.66-1.39-1.62a.9.9,0,0,0-.79-.29L105.42,115l-.83-.86-1-2.35-.12-1.3c.39-3.31,2.31-5.21,5.47-6,.37-.09,1.16.09,1-.71-.39-1.89.78-1.94,2.1-1.87l1.31.11a5.53,5.53,0,0,1,0,.91c-.18,1.06.16,1.65,1.31,1.58l.72.17Zm-8,4.5,0-1.07a9.16,9.16,0,0,0,.05-1c0-.29.19-.69-.15-.83s-.66.18-.89.42a2.25,2.25,0,0,0-.59,2.27.89.89,0,0,0,.22.81c.17.71.72,1,1.38,1.31Zm5.51,9c0-1.27-.75-1.85-2-2.07v5.55C115,122.61,115.49,121.65,115.35,119.82Z"/></g></g></svg>