<svg xmlns="http://www.w3.org/2000/svg" viewBox="0 0 259.87 343.24"><defs><style>.cls-1{fill:#e52421;}.cls-2{fill:#fff;stroke:#e52722;stroke-miterlimit:10;stroke-width:4px;}</style></defs><title>crime_d_1</title><g id="Capa_2" data-name="Capa 2"><g id="Capa_1-2" data-name="Capa 1"><path class="cls-1" d="M142.49,2.19c3.6,1.35,7.45,1.23,11.17,1.92a126.24,126.24,0,0,1,65.06,33.11c20.8,19.7,33.84,43.77,38.29,72,5.69,36.06-2.25,69.15-24.21,98.54q-50,66.86-100.09,133.6c-1.89,2.53-2.58,2.5-4.46,0-34-45.56-68.37-90.88-102.16-136.62C7.58,179.68.24,151,2.61,120.09c2.4-31.21,14.9-58.16,37-80.34a125.38,125.38,0,0,1,71.62-36.3c2-.3,4.15.08,5.91-1.26Zm-12,42.92a85.23,85.23,0,0,0-85.22,85.55c0,46,38.3,84.48,83.6,84.93,48.15.48,86-37.87,86.86-83.64C216.55,83.67,177.4,44.92,130.46,45.11Z"/><circle class="cls-2" cx="129.94" cy="129.94" r="127.94"/><path class="cls-1" d="M89.58,101.19l-2.32-4.06c-.18-.44-.25-.95-.7-1.25l-1.85-4.62c-.23-.51-.12-1.15-.62-1.55l-1.21-4.53a2.4,2.4,0,0,0-.32-1.67L82,77.79l0-2.07.18-6.17a4.12,4.12,0,0,0,.31-2.47c.72-2.74,1.43-5.49,2.15-8.23l1.28-3.24c3.62-7.42,8.42-13.88,15.16-18.79a75.45,75.45,0,0,1,8.63-5.06,12.25,12.25,0,0,0,3.25-1.21c4.31-.88,8.28-2.33,10.79-6.32.72-1.13,2-1.35,3.2-1.55a1.61,1.61,0,0,0,1.24.38c1.23.69,1.8,2.05,2.91,2.86a1.6,1.6,0,0,0,1.05.9,9.15,9.15,0,0,0,4.25,2.49A3,3,0,0,0,138,30l4.47,1.49.88.36,4.88,2.52.58.34,3.5,2.4A4.48,4.48,0,0,0,154,38.4l3,2.75,1.2,1.24,2.47,2.89,1.24,1.63L164,50.2l1.08,1.8q1,2.1,2,4.22c.08.36,0,.79.42,1,.47,1.5.94,3,1.42,4.49l.45,1.7,1,4.92.16,2,.29,5.76-.24,2.47q-.48,3.49-1,7a7.61,7.61,0,0,0-.77,2.88,78.28,78.28,0,0,1-4.66,10.71l-4.57,6.51-5.7,5.66a1.2,1.2,0,0,0-.84,1c-3,2.84-4,6-2.75,9.08a1.93,1.93,0,0,0,.67,1.24,4.39,4.39,0,0,1,3.63-2.14,10.86,10.86,0,0,0,6.54-3.29,8.06,8.06,0,0,1,4.75-2l1.52.31a21.7,21.7,0,0,0,5.43.77,4,4,0,0,0,2.11.08l7-.67a1.42,1.42,0,0,0,1.24.4l3.71,2.44a1.16,1.16,0,0,0,1,.52,11.08,11.08,0,0,0,5.6,1.5l1.23.47a3.82,3.82,0,0,1,1.78,3.41c-.17,1.75-1.73,2.79-2.22,4.38-2,3-3.93,6-5.87,9-.27.4-.84.82-.12,1.35a1.23,1.23,0,0,0,1.64.1c1-.67,2.1-1.18,3.16-1.76l2.65-.51c2-.43,4,.06,6,.15.32.43.8.35,1.24.37l4.09,2.15,1.29,1.08,2.74,3.23.88,1.5,1.26,3.54.25,2.06a25.37,25.37,0,0,1-.63,6.14c-.39,1.38-2.06,2.5-.84,4.2l1.32,4,.41,1.66c.28,1.64.55,3.28.83,4.93l.4,2.06a25.45,25.45,0,0,0,.75,5.35l.12,2.06c.32,1.92.09,3.9.65,5.79l.13,1.62c-.28,1.94.41,3.82.4,5.75l0,2.06c-.65,3.14-1.28,6.27-3.1,9l-3,3.12c-2.48,1.77-5.49,1.67-8.27,2.34a4.25,4.25,0,0,0-2.48.36,41.15,41.15,0,0,0-7,.82l-2.06,0-6.58.41h-2.06l-6.17,0H159.79l-2.06,0a34.64,34.64,0,0,0-5.75-.37l-1.63-.12-5.33-.94a3.14,3.14,0,0,0-1.65-.33,8.86,8.86,0,0,0-5.8-.7l-2.06,0a36.88,36.88,0,0,0-6.56.2,3.75,3.75,0,0,0-2.1,0l-5.73-.13-2.07-.07-5.75-.09a5.67,5.67,0,0,0-2.48-.31l-5.34-.37-2.07-.1-5.29-.66L96,208.62a21.49,21.49,0,0,0-5.35-.79,2.34,2.34,0,0,0-1.65-.38,33.21,33.21,0,0,0-5.33-.93c-.47-.49-1.08-.37-1.66-.37A23.24,23.24,0,0,0,77.08,205a2.31,2.31,0,0,0-1.65-.43,19.09,19.09,0,0,0-4.52-1.26c-.43-.48-1-.43-1.59-.54l-4.95-1.69-1.17-.47-4.63-1.78a1.64,1.64,0,0,0-1.22-.51l-4.51-2.13a2.17,2.17,0,0,0-1.27-.67l-4.07-2.25-.6-.34L42.54,190l-.83-.77L39.32,186a1.67,1.67,0,0,0-.53-1.19,19.55,19.55,0,0,1-.45-5.76l.39-2.48c.73-2.74,1.45-5.48,2.18-8.22a11.79,11.79,0,0,0,1.36-3.23c6.2-12.75,16.2-21.81,28.22-28.89.58-.34,1.13-.73,1.7-1.1a21.74,21.74,0,0,0,4.07-2.16l11.11-5a10.41,10.41,0,0,0,3.29-1.2l9-2.9c.73-.13,1.47-.23,2.2-.4,2.69-.62,3.23-1.66,2.38-4.55a6.69,6.69,0,0,0-2-4.14,3.25,3.25,0,0,0-1.33-1.51l-3.25-2.64-1.26-1.19-2.85-2.94-.65-.79-3-4Zm23.3-21.38c3.47-1.18,6.34-3,7-7a3.4,3.4,0,0,0-.3-2.63A4.62,4.62,0,0,0,117.11,67a3.58,3.58,0,0,0-1.77-1.1,10.21,10.21,0,0,0-4.49-1.42,2.91,2.91,0,0,0-2.08-.31,14.58,14.58,0,0,0-6.17.06,4,4,0,0,0-2.48.39c-3.79.88-6.46,2.93-7.22,7a2.74,2.74,0,0,0,.18,2.49,5.57,5.57,0,0,0,2.49,4.19,2,2,0,0,0,1.17.92,9.56,9.56,0,0,0,4.57,1.66,3.71,3.71,0,0,0,2.11.17,19.12,19.12,0,0,0,6.57-.45A7.07,7.07,0,0,0,112.88,79.81Zm54.73,40.8a2.76,2.76,0,0,0-3.26.38,17.26,17.26,0,0,1-8.12,4.39c1,1.43,1.81,2.65,2.64,3.88a2,2,0,0,0,.82,1.22,21.17,21.17,0,0,0,2.59,4.08,4.12,4.12,0,0,0,1.16,1.77c1.24,1.46,3,.9,4.56,1.19.6.5,1.35.33,2,.43l3.7,1.16a22.78,22.78,0,0,1-4.9,4.95c-1.72.64-3.4.11-5.09-.15-1.57-.87-2.71.23-3.95.86a42.44,42.44,0,0,0-12.38,7.85c-4.2,3.73-7.56,8-9,13.63a4.58,4.58,0,0,0-.51,2.46,36.31,36.31,0,0,0-1.35,7.45,4.82,4.82,0,0,0-.24,2.44,30.4,30.4,0,0,0-.79,7l-.3,2.48c-.17,2.19-.35,4.38-.52,6.57l0,2.07a8.13,8.13,0,0,0,1.66,4.51,2.24,2.24,0,0,0,1.06,1.28,6.92,6.92,0,0,0,3.6,2.52,3.59,3.59,0,0,0,2.22.8,14.44,14.44,0,0,0,5,1.13l1.66.37c1.92.12,3.8.69,5.75.43l2.06.05a31.61,31.61,0,0,0,6.15.1,3.28,3.28,0,0,0,2.1,0,23.3,23.3,0,0,0,5.72-.06,4.74,4.74,0,0,0,2.48,0,29.68,29.68,0,0,0,6.18,0,4,4,0,0,0,2.06,0l6.16-.11a5.49,5.49,0,0,0,2.48-.28,37.23,37.23,0,0,0,6.58-.55l2.48-.35c1.61-.22,3.22-.48,4.83-.65,3.3-.35,5.24-2.27,6.3-5.27a18,18,0,0,0,1.11-6.37,2.12,2.12,0,0,0-.3-1.66,21,21,0,0,0-.44-5.75l-.1-2.07c-.29-1.77-.09-3.61-.69-5.34l-.18-2.12c-.24-1.62-.48-3.25-.73-4.87l-.41-2.07A16,16,0,0,0,208,165l-.16-.34-.42.26.11.07-.11-.08-4,2.22a19.83,19.83,0,0,1-7,1l-2-.26-4.14-1.62-1.23-.81-3.24-3a1.93,1.93,0,0,0-.84-1.17l-1.74-3.61-.64-2.32c0-1.7-.08-3.39-.11-5.09.25-1,.51-1.92.76-2.88.46-.9.92-1.8,1.4-2.69.16-.29.47-.61.16-.86a1,1,0,0,0-.94-.06c-1.72,1-3.64.92-5.52,1.12a2.65,2.65,0,0,0-1.66-.23l-3.39-.27c1-1.85,3-2.6,4-4.16a3,3,0,0,1,3.2-1.49c.79.07,1.55.13,2.12-.77,2.57-4,5.22-8,7.84-11.94.57-.58,1.18-1.16-.3-1.3a11.38,11.38,0,0,1-1.52-.31L185,123l-1.79-1.16c-1.67-2.09-3.73-1.26-5.75-.78l-2.08.08-5.74-.15A3.15,3.15,0,0,0,167.61,120.61ZM124.4,89.75a12.56,12.56,0,0,0-8.66,4c-1.73,1.84-2.83,4-2,6.67a2.77,2.77,0,0,0,.77,2.19,6.35,6.35,0,0,0,2.91,3.26,1.76,1.76,0,0,0,1.23.8,8.39,8.39,0,0,0,4.54,1.64c.64.52,1.37.34,2.09.31a12.34,12.34,0,0,0,7.41-1.19c3.26-1.13,5.62-3.15,6.51-6.61a6.35,6.35,0,0,0-.82-5.34,3.12,3.12,0,0,0-1.19-1.6,7.93,7.93,0,0,0-3.64-2.67c-.19-.38-.57-.31-.89-.39a10.73,10.73,0,0,0-6.15-1.13A4.11,4.11,0,0,0,124.4,89.75Zm7.42-15.26a1.6,1.6,0,0,0,.72,1.27,6.2,6.2,0,0,0,3.32,2.87,3.59,3.59,0,0,0,2.07.92,12.22,12.22,0,0,0,5,1l2.07.06c2.38.12,4.76.27,7-.83a7.91,7.91,0,0,0,6.09-6.16c.3-1.92.27-3.78-1.05-5.39a2.88,2.88,0,0,0-1.33-1.62,6.39,6.39,0,0,0-3.7-2.06c-.45-.51-1-.43-1.64-.42a15.35,15.35,0,0,0-6.18-.36,6.48,6.48,0,0,0-2.52.1A18.54,18.54,0,0,0,134,66.64C130.9,68.69,130.23,71.05,131.82,74.49Z"/><path class="cls-1" d="M180.39,162.62l1,1.18,1.69,4.11c.3,1.42-.41,1.84-1.68,1.71l-5.33-.07c-.53-1.49-.46-3.34-2.42-4.14v5.8c-.19,2.83-.19,2.83,3,3.42l2.19.9a9.18,9.18,0,0,1,2.88,2.3l.87,1.2a14.6,14.6,0,0,1,1.09,4.5c0,.83-.1,1.66-.16,2.49-1.17,4.63-4.32,7.23-8.73,8.56-1.36-.12-1.77.47-1.32,1.73.1,1.68-.78,2.28-2.35,2.1l-2.07,0c-1.45-.23-.82-1.39-.79-2.09.06-1.29-.3-1.91-1.65-1.72-.44-.49-1.08-.3-1.61-.48l-3.74-2L160,190.87l-1.72-2.79-.53-2.13a5.58,5.58,0,0,0-.09-.59c-.48-1.69-.2-2.73,1.9-2.36a5.4,5.4,0,0,0,1.19-.09,5.55,5.55,0,0,0,2.53,0c.57.14,1.29-.06,1.58.7l-.07.16.12.15a3.32,3.32,0,0,0,.73,2.27,3.84,3.84,0,0,0,2.53,2.72v-5c0-1,0-1.91.12-2.85.21-1.68-.39-2.56-2.15-2.5a1.37,1.37,0,0,0-1.22-.45l-3.6-2.07L160,174.76l-1.57-3.62-.19-2c.6-5.1,3.56-8,8.43-9.25.57-.14,1.79.13,1.53-1.1-.6-2.91,1.21-3,3.24-2.87l2,.16a7.39,7.39,0,0,1,0,1.41c-.27,1.62.25,2.53,2,2.43l1.11.26Zm-12.28,6.94,0-1.65a14.38,14.38,0,0,0,.07-1.6c0-.44.29-1.06-.23-1.27s-1,.27-1.37.65a3.45,3.45,0,0,0-.91,3.48c0,.46-.07.92.34,1.26.27,1.08,1.1,1.53,2.12,2Zm8.49,13.93c0-2-1.16-2.85-3-3.2v8.55C176,187.78,176.82,186.31,176.6,183.49Z"/></g></g></svg>