<svg xmlns="http://www.w3.org/2000/svg" viewBox="0 0 259.87 343.24"><defs><style>.cls-1{fill:#e52421;}.cls-2{fill:#fff;stroke:#e52722;stroke-miterlimit:10;stroke-width:4px;}</style></defs><title>death</title><g id="Capa_2" data-name="Capa 2"><g id="Capa_1-2" data-name="Capa 1"><path class="cls-1" d="M142.49,2.19c3.6,1.35,7.45,1.23,11.17,1.92a126.24,126.24,0,0,1,65.06,33.11c20.8,19.7,33.84,43.77,38.29,72,5.69,36.06-2.25,69.15-24.21,98.54q-50,66.86-100.09,133.6c-1.89,2.53-2.58,2.5-4.46,0-34-45.56-68.37-90.88-102.16-136.62C7.58,179.68.24,151,2.61,120.09c2.4-31.21,14.9-58.16,37-80.34a125.38,125.38,0,0,1,71.62-36.3c2-.3,4.15.08,5.91-1.26Zm-12,42.92a85.23,85.23,0,0,0-85.22,85.55c0,46,38.3,84.48,83.6,84.93,48.15.48,86-37.87,86.86-83.64C216.55,83.67,177.4,44.92,130.46,45.11Z"/><circle class="cls-2" cx="129.94" cy="129.94" r="127.94"/><path class="cls-1" d="M79.74,75.57l-2-4.72c-.16-.55,0-1.18-.52-1.63l-.87-5.06-.1-2.11.45-6.75a6.48,6.48,0,0,0,.53-2.53,66.07,66.07,0,0,1,4.81-10.93,47.69,47.69,0,0,1,15-15c16.34-9,33.49-9.2,51.07-4.66.4.1.81.18,1.22.27a3.6,3.6,0,0,0,1.72.69l4.21,1.79c.21.39.59.44,1,.52l4.07,2.43,1.73,1.23,3.33,2.68L166.7,33l2.89,3.13a1.91,1.91,0,0,0,.9,1.11l2.4,3.37.83,1.24L176,46a3.43,3.43,0,0,0,.8,1.85l1.41,4,.44,1.7q.42,2.74.82,5.48l0,2.13-.87,7.16-.6,2.49a57.94,57.94,0,0,1-4,8,4.58,4.58,0,0,0-.74,3.4,3.15,3.15,0,0,0,.27,1.71,26.65,26.65,0,0,0,.8,5.48l.09,2.12a18.3,18.3,0,0,1-1.51,7.62,14.38,14.38,0,0,1-5.32,5.38,13.85,13.85,0,0,1-6.75.72l-3.34-.92v4.09l0,6.33,0,2.12,0,6.32-.11,2.11c-1,4.06-3.31,6.79-7.52,7.68l-2.13.1-6.73,0-1.72,0-6.73,0-1.72,0-6.72,0-1.72,0h-6.29l-2.17,0-7.14,0-.87-.12a14.8,14.8,0,0,1-4.18-1.76L100.44,130a13.66,13.66,0,0,1-1.77-3.79l-.38-1.7v-6.33l0-2.12c0-2.11,0-4.21,0-6.32l0-2.12v-3.12l-5.42,1.06-2.06-.18a20,20,0,0,1-4.22-1.75l-1.31-1.11-2.18-2.92-.67-1.3a22.45,22.45,0,0,1-1-5.45V90.77q.47-3.6.94-7.18A3.15,3.15,0,0,0,82.4,81c0-1.69-1.15-2.84-1.9-4.18ZM130,109.71c2.53-.06,3.27-.79,3.36-3.32a10.5,10.5,0,0,0-.93-5.47,3.58,3.58,0,0,0-.75-1.7,13.13,13.13,0,0,0-2.44-4.44c-.86-1.73-1.87-1.48-2.79-.11a19.47,19.47,0,0,0-2.73,5.4c-1.09,2.44-2,4.89-.9,7.6a1.81,1.81,0,0,0,1.17,1.45C125.88,110.34,128,109.65,130,109.71ZM114.36,91.56A9.57,9.57,0,0,0,121,84.85a7.71,7.71,0,0,0-.41-5.9,3.93,3.93,0,0,0-1.12-1.82,6.88,6.88,0,0,0-3.41-2.93c-.18-.4-.58-.36-.91-.46a9.29,9.29,0,0,0-6.79-.88c-5.09.74-8.45,4.08-9,9a7.43,7.43,0,0,0,1.78,6,1.67,1.67,0,0,0,.89,1,7.72,7.72,0,0,0,3.82,2.62,3.3,3.3,0,0,0,1.75.56A9.9,9.9,0,0,0,114.36,91.56Zm20.31-10.92a6.83,6.83,0,0,0,.8,5.91,2.07,2.07,0,0,0,.81,1.28A7.72,7.72,0,0,0,140.07,91a2.63,2.63,0,0,0,1.73.68,8.53,8.53,0,0,0,5.93.33,9.86,9.86,0,0,0,8.67-8.85,6.94,6.94,0,0,0-1.16-5,3.05,3.05,0,0,0-1.2-1.64,6.92,6.92,0,0,0-3.74-2.7c-.24-.41-.66-.39-1.05-.42a9.52,9.52,0,0,0-7-.25C138.3,74.19,135.51,76.43,134.67,80.64Z"/><path class="cls-1" d="M163.79,195.9a19.25,19.25,0,0,0,3.77,2.62,2.07,2.07,0,0,0,1.24.88c.6.73,1.13,1.18,1.93.11a12.3,12.3,0,0,1,9.51-4.89l2.13.38a15.83,15.83,0,0,1,4.16,2l.85.75c.83,1.31,1.66,2.61,2.48,3.92l.24,1.1a14.83,14.83,0,0,1-.17,6.29l-2.68,4.57-.74.74-1.69,1.25c-.62.29-1.26.56-1.86.89-1,.56-2.72.12-3.15,1.14s0,2.42.11,3.66c-1,6.69-6,11.17-12.17,10.95-4.16-.15-7-2.45-9-5.9l-.48-1.26a20,20,0,0,1-.29-5.92l1.24-3.35c1.23-1.07,1.25-1.95-.34-2.73a27.13,27.13,0,0,1-2.62-1.69l-1.33-1-3.3-2.26a4.44,4.44,0,0,0-1.75-1.25,19.3,19.3,0,0,0-3.79-2.6c-.05-.35-.32-.4-.59-.45a17.74,17.74,0,0,0-3.54-2.48,4.28,4.28,0,0,0-1.78-1.25,20.13,20.13,0,0,0-3.78-2.63l-1.22-.89-3.42-2.38L130,193a20,20,0,0,0-3.78-2.61c-.07-.33-.34-.41-.63-.45a17.61,17.61,0,0,0-3.52-2.48,4.49,4.49,0,0,0-1.77-1.24,19.32,19.32,0,0,0-3.78-2.62,2.14,2.14,0,0,0-1.22-.89l-3.44-2.4-1.71-1.21a15,15,0,0,0-3.23-2.23,2,2,0,0,0-1.24-.85,25.45,25.45,0,0,0-4.34-3.08l-.9-.63a19.51,19.51,0,0,0-3.77-2.61,2.12,2.12,0,0,0-1.25-.88A17.54,17.54,0,0,0,92,166.37l-1.68-1.2A15.93,15.93,0,0,0,87,162.93c-.57-.62-1.12-1.37-1.92-.22a14.94,14.94,0,0,1-4.93,4,12.88,12.88,0,0,1-6.71.57l-1-.23-4-2.47-.77-.84a16.29,16.29,0,0,1-2-4.31l-.34-2c.47-6.84,3.3-10.45,9.71-12.27.88-.25,1.08-.61,1-1.46a30.05,30.05,0,0,1-.12-3.15l.48-2.54a14.48,14.48,0,0,1,7.6-7.6L86.5,130a16.27,16.27,0,0,1,5.49.88l1.27.78,2.8,2.67L97,136A16.15,16.15,0,0,1,98,140.6l0,2.12a13.94,13.94,0,0,1-1.4,3.46c-1.27,1.69-.86,2.62.93,3.3a2.66,2.66,0,0,0,1.37.94,19.19,19.19,0,0,0,3.59,2.49,4.3,4.3,0,0,0,1.8,1.26,19.4,19.4,0,0,0,3.77,2.65l1.33,1,3.3,2.26a4.45,4.45,0,0,0,1.76,1.24,18.53,18.53,0,0,0,3.78,2.6c0,.35.32.4.59.46a17.36,17.36,0,0,0,3.55,2.47,4.22,4.22,0,0,0,1.78,1.25,19.3,19.3,0,0,0,3.77,2.63,2.37,2.37,0,0,0,1.23.9l3.41,2.38,1.74,1.23,3.19,2.21a2.18,2.18,0,0,0,1.23.85,16.69,16.69,0,0,0,3.52,2.48,4.45,4.45,0,0,0,1.76,1.24,19.28,19.28,0,0,0,3.78,2.61,2.14,2.14,0,0,0,1.23.89,17.38,17.38,0,0,0,3.43,2.41l1.71,1.21a15.3,15.3,0,0,0,3.24,2.23,2,2,0,0,0,1.23.85,24.85,24.85,0,0,0,4.34,3.07Z"/><path class="cls-1" d="M179.19,137.7a15.85,15.85,0,0,1,.7,5.43c-.18,1-.58,2.18,1.21,2.05l4.2,1.8,1.19,1c.85,1.08,1.7,2.15,2.54,3.23l.82,1.88a21.76,21.76,0,0,1,.56,4.83c-.15.85-.3,1.69-.46,2.54a12.33,12.33,0,0,1-6.76,6.73l-2.52.45a21.19,21.19,0,0,1-5.06-.86,1.28,1.28,0,0,0-1-.52l-3.55-2.9c-1.43-2.67-2.35-.18-3.46.34-5.28,3.66-10.54,7.34-15.84,11-1,.7-1.89,1.67-3.18,1.94l-1.28-.88L144,173.5a4.46,4.46,0,0,0-1.77-1.23,14.59,14.59,0,0,0-3.21-2.19,2,2,0,0,0-1.25-.84l-3.49-2.49c.35-1,1.56-1.09,2.09-1.92,7.31-5.09,14.6-10.22,22-15.24,1.46-1,2.3-1.7.89-3.42a11.84,11.84,0,0,1-1.29-3.06l-.16-2.09c.5-7,4-10.57,11.06-11l1.61.24a19.15,19.15,0,0,1,4.69,2.09l.87.72,2.82,3.77Z"/><path class="cls-1" d="M78.52,227.93c-.65-1.13-1.29-2.26-1.94-3.38-.23-.53-.11-1.18-.6-1.61a28.86,28.86,0,0,1,0-4.16c.22-1.56-.51-1.81-1.75-1.7l-1.63-.59-3.25-2.07-.84-.81-2.34-3.75-.69-2.15a14.33,14.33,0,0,1,.56-6.24,11.57,11.57,0,0,1,5.66-6,13.28,13.28,0,0,1,6-.64l1.59.39,4.13,2.42L84.75,199c.46.81.78,1.63,2,.74,4.68-3.41,9.41-6.73,14.13-10.09,2.27-1,4-3.06,6.32-4l3.35,2.27a2.25,2.25,0,0,0,1.24.88l3.43,2.44,1.69,1.21,3.23,2.25a1.61,1.61,0,0,0,1.07.76c-.4,1.63-2.27,1.69-3.07,2.89a64.41,64.41,0,0,0-7.2,5L98.2,212.17c-2.77,1.93-2.76,1.94-1.1,4.86l.74,2.14a17.54,17.54,0,0,1-.49,6.33A12.56,12.56,0,0,1,92,231.39c-4.48,1.69-8.51.78-12.2-2.12Z"/></g></g></svg>