<svg xmlns="http://www.w3.org/2000/svg" viewBox="0 0 259.87 343.24"><defs><style>.cls-1{fill:#e52421;}.cls-2{fill:#fff;stroke:#e52722;stroke-miterlimit:10;stroke-width:4px;}</style></defs><title>deliver_d</title><g id="Capa_2" data-name="Capa 2"><g id="Capa_1-2" data-name="Capa 1"><path class="cls-1" d="M142.49,2.19c3.6,1.35,7.45,1.23,11.17,1.92a126.24,126.24,0,0,1,65.06,33.11c20.8,19.7,33.84,43.77,38.29,72,5.69,36.06-2.25,69.15-24.21,98.54q-50,66.86-100.09,133.6c-1.89,2.53-2.58,2.5-4.46,0-34-45.56-68.37-90.88-102.16-136.62C7.58,179.68.24,151,2.61,120.09c2.4-31.21,14.9-58.16,37-80.34a125.38,125.38,0,0,1,71.62-36.3c2-.3,4.15.08,5.91-1.26Zm-12,42.92a85.23,85.23,0,0,0-85.22,85.55c0,46,38.3,84.48,83.6,84.93,48.15.48,86-37.87,86.86-83.64C216.55,83.67,177.4,44.92,130.46,45.11Z"/><circle class="cls-2" cx="129.94" cy="129.94" r="127.94"/><path class="cls-1" d="M133.24,229.84h-4.11c-5.17-2.06-7.3-6.11-6.86-11.9.1-1.38,0-2.78-.08-4.17,0-1.72.13-3.43.07-5.15,0-1.08.32-1.34,1.27-1.31,1.6.05,3.21,0,4.81-.07,3.46,0,6.93.1,10.39,0,1.15,0,1.48.34,1.46,1.56-.06,4,0,8.09,0,12.13l-1,4A11.84,11.84,0,0,1,133.24,229.84Z"/><path class="cls-1" d="M125.39,201.43c-4.92,0-9.83-.12-14.74,0a7.09,7.09,0,0,1-7-4c-.84-2.2-.45-4.55-.71-6.82.2-9.48.11-19,0-28.43a56.78,56.78,0,0,1,1-8.82c2.67-9.49,8.24-16.21,16.82-20.16a17.39,17.39,0,0,1-4.4-6.69c-.27-.77-.77-.75-1.33-.74l-12.88.08-7.5,0c-1.49,0-3,0-4.46-.12a5.35,5.35,0,0,1-4.8-5.34,5.29,5.29,0,0,1,4.84-5.48c5.33-.13,10.66-.14,16-.2a53.92,53.92,0,0,0,7.52,0c.93-.12,2.1.76,2.66-.87a18.56,18.56,0,0,1,4.15-6.49l0,0c7.54-6.4,17.39-5,23.06,2.31.7,1.38,1.48,2.72,2.07,4.15.4.95.93,1.1,1.74.8,4.41,0,8.83,0,13.24.11s8.58-.44,12.86.25a8.15,8.15,0,0,1,2.9,3.12c.73,5.52-.84,7.25-7,7.65l-7.12,0-15.26,0c-.44,0-1-.2-1.21.55a18.22,18.22,0,0,1-4.47,6.94,31.58,31.58,0,0,1,8.81,5.81l3.55,4.28a36.24,36.24,0,0,1,4.4,9.8c1,3.88,1,7.88,1.16,11.86a58.41,58.41,0,0,0,0,7.6q0,10.27-.09,20.55c0,5.48-2.54,8.21-7.63,8.23l-19.18.09Zm12.43-84.15a7,7,0,0,0-7.66-4.8,7.63,7.63,0,0,0-6.25,6.16,7.8,7.8,0,0,0,4.1,8.65,6.68,6.68,0,0,0,8.21-1.3A7.89,7.89,0,0,0,137.82,117.28Z"/><path class="cls-1" d="M89.46,211.41c-1,3.66-3.16,6.21-6.67,7.28a10.54,10.54,0,0,1-5.58-.59c-5.08-3.06-5.41-7.85-4.41-13.3.74-4,1.16-8.13,1.73-12.2a70.3,70.3,0,0,0,1.23-8.8c.84-5.42,1.74-10.84,2.5-16.28a11.3,11.3,0,0,1,2.3-5.55q11.3-14.47,22.58-29a2.68,2.68,0,0,1,2.5-1.27c1.83.1,3.67,0,5.89,0C103.16,139,98.2,147.68,97.71,159a39.09,39.09,0,0,0-.06,8c-.25.93.11,2.05-.74,2.79-2,1.77-2.27,4.3-2.56,6.82-.15,1.32-.36,2.63-.55,3.94q-1.56,11-3.13,22.07A81.46,81.46,0,0,0,89.46,211.41Z"/><path class="cls-1" d="M106.71,50c3.43-.54,6.06.52,7.5,4.18a9.46,9.46,0,0,0,1.64,2.09c-1.45.25-2.77.4-4.06.72a18.14,18.14,0,0,0-8.51,5.05c-5,5-10.1,9.91-15.14,14.86l-2,2V72.07q0-3.81,0-7.62c0-2.45.05-4.9.09-7.35.08-4.15,2.69-6.94,6.55-7L98.85,50h.38Z"/><path class="cls-1" d="M128.76,62.4c4.84,0,9.68.14,14.51,0a13.83,13.83,0,0,1,8.62,2.45l4.52,4,14,12.51a17.65,17.65,0,0,1,3.42,3.93q2.5,10.86,5,21.71a3.56,3.56,0,0,0,.29.7c0,1.72.95,3.27.8,5.19-1-.91-1.74-2.06-3-2.46a6.82,6.82,0,0,0-4.29-1.58c-2.3-.08-4.61-.08-6.91,0-1,0-1.38-.25-1.61-1.36-.58-2.91-1.36-5.77-2.06-8.65-.63-2.13-.26-4.62-2-6.37l-10.84-9.9v21.12c-.27,1.19.19,2.45-.3,3.75l-1.54-1.83c-5.14-6.43-11.59-9.19-19.47-7.89-6,.69-10.62,4-14.24,9.08-.36.51-.4,1.51-1.38,1.32.24-8.27.18-16.54,0-24.81.17-.17.17-.4,0-.46a.41.41,0,0,0-.53.39c-4.35,4.07-8.69,8.15-13.06,12.19a2.45,2.45,0,0,0-.77,1.7c-.39,3.43-.88,6.84-1.26,10.27-.12,1.14-.48,1.52-1.61,1.5a28.79,28.79,0,0,0-6.69.19,10.39,10.39,0,0,0-6.21,4.08c-.2.26-.52,1.1-.7,0l.93-8.61c.59-4.34,1.22-8.66,1.74-13a8,8,0,0,1,2.28-4.88c7.26-7.11,14.5-14.23,21.82-21.26a10.42,10.42,0,0,1,7.52-2.93c1.93,0,3.86-.05,5.79-.07Z"/><path class="cls-1" d="M105.81,96.81c0,3.9.11,7.48,0,11-.09,2-1.75.72-2.65,1s-.9-.55-.81-1.25c.32-2.37.78-4.73.91-7.12C103.32,98.64,104.45,97.93,105.81,96.81Z"/><path class="cls-1" d="M115.26,40.83a22.54,22.54,0,0,1,1.28-6.76,16.94,16.94,0,0,1,9.6-8.86c3.93-.79,7.75-.59,11.3,1.61a15.86,15.86,0,0,1,7.1,10,26.65,26.65,0,0,1,.23,7.19c-1.72,6.15-5.26,10.38-11.15,12.13a17.21,17.21,0,0,1-7.11,0C119.56,53.71,115.79,48.64,115.26,40.83Z"/><path class="cls-1" d="M177.34,217.86c-3.58-2.22-4.56-5.84-4.79-9.94-.22-3.77-.58-7.54-.87-11.31-.33-2.26-.09-4.59-.7-6.82,0-5.66-.93-11.26-1.16-16.91a1.85,1.85,0,0,0-.58-1.2c-1.29-1.43-2.57-2.87-3.86-4.31a3.47,3.47,0,0,1-.63-2.15c0-1.55-.07-3.11-.12-4.66a34.53,34.53,0,0,0-6.78-21.21,18.54,18.54,0,0,0-3.7-4.37l-3.35-3.3h7.11l3.36,3.66c4.1,4.92,8.28,9.77,12.61,14.46a35.05,35.05,0,0,0,3.81,4.42c1.83,2.14,3.6,4.35,5.51,6.4a11.76,11.76,0,0,1,3.54,8.61,11.32,11.32,0,0,0,.33,2.14,67,67,0,0,0,.48,7.22q1.09,13,2.17,26c-.12,2.54.71,5.08,0,7.62a10.16,10.16,0,0,1-6,6.43A10.29,10.29,0,0,1,177.34,217.86Z"/><path class="cls-1" d="M174.39,76.46a.4.4,0,0,0,0,.35c-.74.09-1.06-.59-1.51-1q-6.53-5.72-13-11.45a20.29,20.29,0,0,0-3.61-3.2c-3.21-3.29-7.19-4.51-11.67-4.83a34.1,34.1,0,0,0,3.73-5.68c.38-.87,1.18-.56,1.83-.57,5.59-.05,11.19-.07,16.79-.11a8.47,8.47,0,0,1,5.25,1.61,8.83,8.83,0,0,1,2.24,6.5C174.29,64.22,174.37,70.34,174.39,76.46Z"/><path class="cls-1" d="M156,96.49a38.58,38.58,0,0,0,1.42,6,42.85,42.85,0,0,0,1,4.82c.46,1.45-.09,1.54-1.17,1.51-1.32,0-2.86.35-2.5-2a65.74,65.74,0,0,0,0-7.94c.06-1,.12-2.07.17-3.13C155.52,95.75,155.69,96.26,156,96.49Z"/></g></g></svg>