<svg xmlns="http://www.w3.org/2000/svg" viewBox="0 0 170.11 223.53"><defs><style>.cls-1{fill:#030304;}.cls-2{fill:#fff;stroke:#1d1d1b;stroke-miterlimit:10;stroke-width:4px;}.cls-3{fill:#050506;}.cls-4{fill:#070608;}.cls-5{fill:#0b0b0d;}.cls-6{fill:#2d2c2e;}</style></defs><title>deliver</title><g id="Capa_2" data-name="Capa 2"><g id="Capa_1-2" data-name="Capa 1"><path class="cls-1" d="M93.21,2.12c2.33.88,4.83.8,7.25,1.25a81.91,81.91,0,0,1,42.23,21.5A80.25,80.25,0,0,1,167.55,71.6c3.7,23.41-1.46,44.89-15.72,64q-32.45,43.4-65,86.73c-1.22,1.65-1.67,1.63-2.89,0-22.09-29.58-44.39-59-66.32-88.69C5.62,117.35.86,98.73,2.4,78.66a80.71,80.71,0,0,1,24-52.15A81.45,81.45,0,0,1,72.91,2.94c1.27-.19,2.69.05,3.84-.82ZM85.39,30A55.34,55.34,0,0,0,30.07,85.52c0,29.84,24.86,54.85,54.27,55.14A55.34,55.34,0,1,0,85.39,30Z"/><circle class="cls-2" cx="85.05" cy="85.05" r="83.05"/><path class="cls-3" d="M87.53,150.11H84.59c-3.68-1.33-5.2-3.94-4.89-7.68a24.21,24.21,0,0,0-.06-2.69c0-1.1.1-2.21,0-3.31,0-.7.24-.87.91-.85,1.14,0,2.29,0,3.43-.05,2.47,0,4.94.07,7.42,0,.82,0,1,.22,1,1,0,2.61,0,5.22,0,7.83l-.74,2.54A8.3,8.3,0,0,1,87.53,150.11Z"/><path class="cls-3" d="M81.92,131.78c-3.5,0-7-.07-10.51,0a5.18,5.18,0,0,1-5-2.57c-.6-1.42-.32-2.93-.51-4.4.14-6.11.08-12.22,0-18.34a34.11,34.11,0,0,1,.75-5.69,20,20,0,0,1,12-13,11.22,11.22,0,0,1-3.14-4.31c-.19-.49-.54-.48-1-.48L65.4,83H60.05C59,83,57.93,83,56.87,83a3.62,3.62,0,0,1-3.43-3.45A3.56,3.56,0,0,1,56.9,76c3.8-.08,7.61-.09,11.41-.13a41.68,41.68,0,0,0,5.36,0c.67-.08,1.5.49,1.9-.56a11.82,11.82,0,0,1,3-4.19l0,0A11.89,11.89,0,0,1,95,72.62c.5.89,1,1.76,1.48,2.68a.87.87,0,0,0,1.24.52c3.14,0,6.29,0,9.44.07s6.13-.29,9.17.16a5.36,5.36,0,0,1,2.08,2c.52,3.56-.6,4.68-5,4.93h-5.07c-3.63,0-7.26,0-10.89,0-.32,0-.69-.13-.86.36a11.7,11.7,0,0,1-3.2,4.47,22.67,22.67,0,0,1,6.29,3.75l2.54,2.76a22.34,22.34,0,0,1,3.13,6.32,31.86,31.86,0,0,1,.83,7.65,35,35,0,0,0,0,4.91c0,4.42,0,8.83-.06,13.25,0,3.54-1.81,5.3-5.45,5.31L87,131.79ZM90.8,77.5a5,5,0,0,0-5.47-3.1,5.22,5.22,0,0,0-4.46,4A4.9,4.9,0,0,0,83.79,84a5.15,5.15,0,0,0,5.86-.84A4.74,4.74,0,0,0,90.8,77.5Z"/><path class="cls-4" d="M56.29,138.22a6.61,6.61,0,0,1-4.76,4.7,8.29,8.29,0,0,1-4-.38c-3.62-2-3.86-5.07-3.15-8.58.53-2.6.83-5.25,1.24-7.87a41.91,41.91,0,0,0,.88-5.68c.6-3.5,1.24-7,1.78-10.5a7,7,0,0,1,1.64-3.58Q58,97,66.05,87.64a2,2,0,0,1,1.79-.82c1.3.07,2.62,0,4.2,0-6,4.64-9.51,10.27-9.86,17.55a22.92,22.92,0,0,0,0,5.17c-.18.6.08,1.32-.53,1.8-1.44,1.15-1.62,2.77-1.83,4.4-.1.85-.26,1.7-.39,2.54q-1.11,7.13-2.23,14.24A45.29,45.29,0,0,0,56.29,138.22Z"/><path class="cls-5" d="M68.6,34.11c2.45-.35,4.32.33,5.35,2.7a6.57,6.57,0,0,0,1.17,1.35c-1,.16-2,.26-2.9.46a13.32,13.32,0,0,0-6.07,3.26q-5.39,4.8-10.8,9.58l-1.44,1.27v-4.4l0-4.91c0-1.58,0-3.16.07-4.74a4.44,4.44,0,0,1,4.67-4.52L63,34.1H68.6Z"/><path class="cls-3" d="M84.33,42.09c3.45,0,6.91.1,10.36,0a10.66,10.66,0,0,1,6.14,1.58l3.23,2.59,10,8.07a11.43,11.43,0,0,1,2.43,2.53q1.79,7,3.58,14a2.62,2.62,0,0,0,.21.45c0,1.11.68,2.11.58,3.34-.74-.58-1.25-1.32-2.12-1.58a5.18,5.18,0,0,0-3.06-1c-1.64,0-3.29,0-4.93,0-.69,0-1-.16-1.15-.88-.41-1.87-1-3.72-1.47-5.57-.45-1.38-.18-3-1.4-4.12L99,55.11V68.74c-.19.76.14,1.58-.21,2.41L97.69,70A14.62,14.62,0,0,0,83.8,64.88a14.47,14.47,0,0,0-10.16,5.86c-.26.33-.29,1-1,.85.16-5.34.12-10.67,0-16,.12-.11.12-.26,0-.3a.3.3,0,0,0-.38.25Q67.63,59.49,63,63.4a1.5,1.5,0,0,0-.54,1.1c-.28,2.21-.63,4.42-.9,6.63-.09.73-.35,1-1.15,1a22.47,22.47,0,0,0-4.78.12,7.52,7.52,0,0,0-4.43,2.63c-.14.17-.37.71-.49,0l.66-5.55c.42-2.8.87-5.59,1.24-8.39a4.9,4.9,0,0,1,1.63-3.15C59.37,53.15,64.54,48.56,69.76,44a7.92,7.92,0,0,1,5.37-1.89c1.37,0,2.75,0,4.13-.05Z"/><path class="cls-6" d="M68,64.3c0,2.51.09,4.82,0,7.12-.06,1.32-1.24.47-1.89.64s-.64-.36-.58-.81c.23-1.53.56-3.06.66-4.59C66.18,65.47,67,65,68,64.3Z"/><path class="cls-3" d="M74.7,28.18a13.37,13.37,0,0,1,.91-4.36,11.72,11.72,0,0,1,6.85-5.71,11.63,11.63,0,0,1,8.07,1,10.3,10.3,0,0,1,5.06,6.44,15.7,15.7,0,0,1,.16,4.64,10.86,10.86,0,0,1-8,7.82,13.56,13.56,0,0,1-5.08,0C77.77,36.49,75.08,33.22,74.7,28.18Z"/><path class="cls-4" d="M119,142.38c-2.55-1.43-3.25-3.77-3.42-6.41-.15-2.43-.41-4.86-.62-7.3a30.73,30.73,0,0,0-.5-4.39c0-3.66-.66-7.27-.82-10.91a1.21,1.21,0,0,0-.42-.78c-.92-.92-1.83-1.85-2.75-2.78a2.07,2.07,0,0,1-.45-1.38c0-1-.05-2-.09-3a20.92,20.92,0,0,0-4.83-13.69,12.57,12.57,0,0,0-2.64-2.81l-2.39-2.13h5.07l2.4,2.36c2.92,3.18,5.9,6.31,9,9.33a23.63,23.63,0,0,0,2.72,2.85c1.31,1.38,2.57,2.81,3.93,4.13A7.24,7.24,0,0,1,125.7,111a6.63,6.63,0,0,0,.23,1.38,38.15,38.15,0,0,0,.35,4.66q.77,8.4,1.54,16.78c-.08,1.64.51,3.28,0,4.92a6.93,6.93,0,0,1-4.31,4.15A8.11,8.11,0,0,1,119,142.38Z"/><path class="cls-5" d="M116.89,51.17a.26.26,0,0,0,0,.23c-.52.05-.75-.38-1.08-.64l-9.29-7.38a13.56,13.56,0,0,0-2.57-2.07c-2.29-2.12-5.13-2.91-8.32-3.11a23,23,0,0,0,2.65-3.67c.27-.56.85-.36,1.31-.37l12-.07a6.48,6.48,0,0,1,3.74,1,5.36,5.36,0,0,1,1.6,4.19C116.81,43.27,116.87,47.22,116.89,51.17Z"/><path class="cls-5" d="M103.79,64.09a22,22,0,0,0,1,3.89,25,25,0,0,0,.7,3.11c.32.93-.06,1-.83,1-.94,0-2,.22-1.79-1.31a38,38,0,0,0,0-5.12l.12-2C103.42,63.61,103.54,63.94,103.79,64.09Z"/></g></g></svg>