<svg xmlns="http://www.w3.org/2000/svg" viewBox="0 0 259.87 343.24"><defs><style>.cls-1{fill:#e52421;}.cls-2{fill:#fff;stroke:#e52722;stroke-miterlimit:10;stroke-width:4px;}</style></defs><title>gun</title><g id="Capa_2" data-name="Capa 2"><g id="Capa_1-2" data-name="Capa 1"><path class="cls-1" d="M142.49,2.19c3.6,1.35,7.45,1.23,11.17,1.92a126.24,126.24,0,0,1,65.06,33.11c20.8,19.7,33.84,43.77,38.29,72,5.69,36.06-2.25,69.15-24.21,98.54q-50,66.86-100.09,133.6c-1.89,2.53-2.58,2.5-4.46,0-34-45.56-68.37-90.88-102.16-136.62C7.58,179.68.24,151,2.61,120.09c2.4-31.21,14.9-58.16,37-80.34a125.38,125.38,0,0,1,71.62-36.3c2-.3,4.15.08,5.91-1.26Zm-12,42.92a85.23,85.23,0,0,0-85.22,85.55c0,46,38.3,84.48,83.6,84.93,48.15.48,86-37.87,86.86-83.64C216.55,83.67,177.4,44.92,130.46,45.11Z"/><circle class="cls-2" cx="129.94" cy="129.94" r="127.94"/><path class="cls-1" d="M40.14,102.12c58,0,114.91,0,171.87-.07,3.38,0,4.11,1,4.09,4.23,0,10.63.09,10.54-10.57,10.71-20.48.33-40.95.91-61.43,1.05-4.16,0-5.29,1.73-5.88,5.29-1.47,9-3.44,17.94-4.76,27-.47,3.2-1.81,3.58-4.52,3.56-14.32-.1-28.64,0-43-.1-2.94,0-4.3.52-5,3.83-2.36,12-5.28,24-7.79,36-.5,2.41-1.07,3.26-3.8,3-12.27-1-24.55-2-36.85-2.5-4.3-.18-4.68-1.26-3.57-5.13,6.41-22.45,12.47-45,18.86-67.47,1-3.66.89-6.53-1.49-9.58C44.19,109.07,42.48,105.84,40.14,102.12Zm60.11,37.93c-5.43-2.72-6.9-6.61-5.91-11.71a30.06,30.06,0,0,0,.56-5.44c0-1.43,1.08-3.57-1.85-3.6-2.07,0-3.66-.08-4.19,2.82-1.24,6.84-3,13.58-4.57,20.34-.66,2.82.54,3.32,3.1,3.3,11.64-.12,23.28-.19,34.91,0,3.08.06,4-1.11,4.48-3.77,1-6,1.85-12.14,3.37-18.06,1.27-5-.58-5.88-4.93-5.28a66.28,66.28,0,0,1-7.47.25c-12.1.26-17.17,5.23-17.49,17.14C100.22,137.23,100.25,138.39,100.25,140.05Z"/><path class="cls-1" d="M37.43,95.75C41.55,86,45.38,77,49.06,68c.71-1.76,1.79-2,3.42-2.1C65.15,65,65.15,65,65.15,77.76c0,2.83,0,5.67,0,8.5,0,2.23-.35,4,3.13,4.07s3.65-1.57,3.58-4.24c-.14-5.32.1-10.66-.09-16-.11-3,.31-4.37,3.92-4.35,3.45,0,3.67,1.41,3.59,4.12-.16,5.49,0,11-.08,16.48-.06,2.45.1,3.88,3.3,4,3.47.09,3.7-1.42,3.62-4.15-.16-5.66.09-11.33-.1-17-.09-2.62.67-3.51,3.31-3.33,2.25.15,4.15-.27,4,3.19-.3,6,.09,12-.16,18-.12,2.88,1.06,3.21,3.45,3.23s3.58-.5,3.48-3.29c-.21-6,0-12-.11-18-.06-2.34.54-3.13,3-3.12q54.95.12,109.91,0c2.38,0,3.14.68,3.1,3.1-.12,7.49-.2,15,.11,22.48.15,3.61-1,4.38-4.47,4.37-36.13-.12-72.27-.08-108.41-.08Z"/><path class="cls-1" d="M228.5,82a20.31,20.31,0,0,0,0,4c1.09,5.22-2.13,5.09-5.71,5-2-.07-2.58-.88-2.54-2.71a105.6,105.6,0,0,0,0-11c-.29-3.45.75-4.5,4.3-4.48,3.39,0,4.4,1.07,4,4.23A39.52,39.52,0,0,0,228.5,82Z"/></g></g></svg>