<svg id="Capa_1" data-name="Capa 1" xmlns="http://www.w3.org/2000/svg" viewBox="0 0 171.59 226.41"><defs><style>.cls-1,.cls-3{fill:#e52b24;}.cls-1,.cls-2{stroke:#e52b24;stroke-miterlimit:10;}.cls-1{stroke-width:5px;}.cls-2{fill:#fff;stroke-width:4px;}</style></defs><title>house</title><path class="cls-1" d="M95,.87c2.33.88,4.83.8,7.25,1.25a81.91,81.91,0,0,1,42.23,21.5A80.25,80.25,0,0,1,169.3,70.35c3.7,23.41-1.46,44.89-15.72,64q-32.45,43.4-65,86.73c-1.22,1.65-1.67,1.63-2.89,0-22.09-29.58-44.39-59-66.32-88.69-12-16.26-16.78-34.88-15.24-55a80.71,80.71,0,0,1,24-52.15A81.45,81.45,0,0,1,74.66,1.69c1.27-.19,2.69.05,3.84-.82ZM87.14,28.74A55.34,55.34,0,0,0,31.82,84.27c0,29.84,24.86,54.85,54.27,55.14a55.34,55.34,0,1,0,1-110.67Z" transform="translate(-1.37 1.63)"/><circle class="cls-2" cx="85.44" cy="85.43" r="83.05"/><path class="cls-3" d="M76,122.48c0-6,0-12.09,0-18.13,0-.59.11-.78.75-.78q10.67,0,21.32,0c.53,0,.69.13.68.67q0,18.25,0,36.5c0,.52-.11.69-.66.69q-10.71,0-21.4,0c-.64,0-.68-.24-.68-.76,0-6.06,0-12.13,0-18.2Z" transform="translate(-1.37 1.63)"/><path class="cls-3" d="M38.28,113.92q0-11.73,0-23.46a1.62,1.62,0,0,1,.54-1.28q23.85-23.5,47.67-47.05c.48-.48.71-.57,1.26,0q23.54,23.53,47.12,47a1.77,1.77,0,0,1,.61,1.34q0,23.37,0,46.76a3.88,3.88,0,0,1-3,4.11,5.62,5.62,0,0,1-1.23.09c-8.32,0-16.63,0-25,0-.72,0-.9-.16-.9-.89,0-13.32,0-26.63,0-40a3.73,3.73,0,0,0-4.06-4c-9.52.08-19,0-28.57,0-2.59,0-4,1.36-4,3.92q0,20,0,40c0,.65-.11.86-.83.86-8.45,0-16.9,0-25.36,0-2.83,0-4.34-1.52-4.34-4.36ZM87.16,59.69a14.51,14.51,0,1,0,14.52,14.59A14.55,14.55,0,0,0,87.16,59.69Z" transform="translate(-1.37 1.63)"/><path class="cls-3" d="M88.09,15a10.49,10.49,0,0,1,7,3.16c15.45,15.51,31.23,30.69,46.46,46.41,2.19,2.26,4.3,4.6,6.42,6.92a9.16,9.16,0,0,1,2.25,7.61,10.92,10.92,0,0,1-5.88,8.66.86.86,0,0,1-1.24-.19Q116.59,61.15,90,34.7c-2-2-3.78-2-5.81,0Q57.45,61.12,30.7,87.54a1,1,0,0,1-1.38.2,11.21,11.21,0,0,1-5.16-13.92,6.06,6.06,0,0,1,1.17-1.67c3.91-4.48,8.11-8.69,12.29-12.91,13.67-13.84,27.59-27.42,41.49-41C81.26,16.11,84,15,88.09,15Z" transform="translate(-1.37 1.63)"/><path class="cls-3" d="M135.4,48.55c-.29-.06-.41-.29-.57-.46q-10.74-10.71-21.47-21.41a1.36,1.36,0,0,1-.36-1.6,3.75,3.75,0,0,1,3.52-2.62c5.07,0,10.15,0,15.23,0a3.65,3.65,0,0,1,3.69,3.64c0,7.41,0,14.82,0,22.23A1,1,0,0,1,135.4,48.55Z" transform="translate(-1.37 1.63)"/><path class="cls-3" d="M87.18,66.57a7.63,7.63,0,1,1-7.72,7.6A7.63,7.63,0,0,1,87.18,66.57Z" transform="translate(-1.37 1.63)"/></svg>