<svg xmlns="http://www.w3.org/2000/svg" viewBox="0 0 171.59 226.41"><defs><style>.cls-1{fill:#fdfcf0;stroke-width:5px;}.cls-1,.cls-2{stroke:#1d1d1b;stroke-miterlimit:10;}.cls-2{fill:#fff;stroke-width:4px;}.cls-3{fill:#543533;}.cls-4{fill:#f2b47d;}.cls-5{fill:#e83f55;}.cls-6{fill:#fdfcef;}.cls-7{fill:#b2b1c2;}.cls-8{fill:#cdcbbe;}.cls-9{fill:#fcd4b2;}.cls-10{fill:#77676c;}.cls-11{fill:#783235;}.cls-12{fill:#c2e3e3;}.cls-13{fill:#665a59;}</style></defs><title>house</title><g id="Capa_2" data-name="Capa 2"><g id="Capa_1-2" data-name="Capa 1"><path class="cls-1" d="M93.59,2.5c2.33.88,4.84.8,7.25,1.24a82,82,0,0,1,42.23,21.5A80.27,80.27,0,0,1,167.93,72c3.7,23.41-1.46,44.89-15.72,64q-32.43,43.4-65,86.73c-1.23,1.64-1.68,1.62-2.9,0C62.25,193.1,40,163.67,18,134,6,117.72,1.24,99.1,2.78,79a80.72,80.72,0,0,1,24-52.16A81.44,81.44,0,0,1,73.29,3.32c1.27-.2,2.69.05,3.84-.82ZM85.78,30.36A55.35,55.35,0,0,0,30.45,85.9c0,29.84,24.86,54.85,54.27,55.14A55.35,55.35,0,1,0,85.78,30.36Z"/><circle class="cls-2" cx="85.44" cy="85.43" r="83.05"/><path class="cls-3" d="M136.34,35.7c-.77,2.12-1.31,4.12,2.21,3.58,3.19-.49,4.25,1.22,5,4.07,2.23,8.7,4.73,17.34,7.15,26,.4,1.44,1.54,3.79-.23,4-5.45.63-3.48,4.53-3.51,7.24q-.23,21.87,0,43.74c0,3.61-.73,5-4.69,5-16.11-.22-32.5,1.75-48.28-.54C72.88,125.67,52,128,31,127c-3.48-.17-4-1.41-4-4.45.12-14.58.08-29.16,0-43.74,0-2.24,1.06-5-3.12-5.21-2.15-.12-1.23-2.25-.72-3.71,3.1-8.83,6.38-17.62,9.16-26.56,1.12-3.56,3.09-4.09,6.33-4.08,26.86.1,53.72.06,80.58.05,2.43,0,5.9.82,3.44-3.74Zm-74.57,59h1.88c.09,8.43.29,16.86.22,25.29,0,2.7.68,3.69,3.51,3.6q9.2-.3,18.4,0c2.85.09,3.52-.94,3.49-3.61-.17-14.57-.17-29.14-.22-43.71C89.46,72.67,86.7,74,85.2,74q-25.53-.12-51.06,0c-1.21,0-3.22-1-3.57,2.26H73c-1.31,2.22-3.44,1.06-5.14,1.08-10.94.11-21.88.23-32.81,0-3.83-.09-4.78,1.06-4.71,4.78.23,12.46.35,25,0,37.41-.15,4.89,2.58,4,5.39,4.07s5.57.73,5.33-4.11c-.41-8.22,0-16.49.13-24.73H43c-.08,4.77-.22,9.55-.23,14.32,0,15.58,0,15.51,15.63,14.55,2.69-.17,3.7-.93,3.64-3.66C61.85,111.49,61.84,103.09,61.77,94.68Zm41.44-16.17c11.87,0,23.73,0,35.6-.13,1.69,0,4.65,1.46,4.6-2.32,0-3.29-2.65-2.1-4.24-2.11-14.16-.09-28.33.1-42.49-.15-4-.07-4.56,1.52-3.86,4.72-.08,14.54-.06,29.08-.29,43.62-.06,3.21,1.16,3.74,4,3.72,14.35-.12,28.71-.17,43.07,0,3.52,0,4-1.34,3.95-4.34-.14-12.63-.17-25.27,0-37.9.05-3.35-1.06-4.12-4.21-4.07-10.33.18-20.67.13-31,0C106.64,79.57,104.51,80.73,103.21,78.51Zm-16.63-8c18.6,0,37.21,0,55.81,0,1.92,0,5.38,1.18,4.3-3-1.95-7.59-4.2-15.11-6.32-22.66a2.52,2.52,0,0,0-2.94-2c-1.89.12-2.05,1.35-2.06,2.77,0,3.07-.11,6.14,0,9.2.06,2.17-.77,2.89-3,3.11-8.19.84-8.6.55-8.61-7.82a14.7,14.7,0,0,1,0-2.3c.66-4.07-1.06-5.12-5.06-5.09-26.08.17-52.16.13-78.24,0-3.15,0-4.82.78-5.79,4-1.81,6-4,12-6.31,17.85-1.76,4.4-1.57,6.23,4.11,6.11C50.52,70.26,68.56,70.48,86.58,70.48Zm47.58-24.07h.06V39.56c0-1.16-.05-2.05-1.55-2.52-5-1.56-7.68.29-7.69,5.55,0,3.61.13,7.22,0,10.82-.12,2.55.92,3,3.28,3.25,4.51.44,6.88-.66,6-5.7A26.56,26.56,0,0,1,134.16,46.41Z"/><path class="cls-4" d="M136.34,35.7l-13.67-.16C125.79,32.6,133.77,32.69,136.34,35.7Z"/><path class="cls-5" d="M86.58,70.48c-18,0-36.06-.22-54.08.13-5.68.12-5.87-1.71-4.11-6.11,2.33-5.86,4.5-11.81,6.31-17.85,1-3.23,2.64-4,5.79-4,26.08.1,52.16.14,78.24,0,4,0,5.72,1,5.06,5.09a14.7,14.7,0,0,0,0,2.3c0,8.37.42,8.66,8.61,7.82,2.21-.22,3-.94,3-3.11-.1-3.06,0-6.13,0-9.2,0-1.42.17-2.65,2.06-2.77a2.52,2.52,0,0,1,2.94,2c2.12,7.55,4.37,15.07,6.32,22.66,1.08,4.17-2.38,3-4.3,3C123.79,70.51,105.18,70.48,86.58,70.48Zm32.06-22.26V47.1H39.12v1.12ZM38,51.66v.94h78.27v-.94Zm76.08,5.9-.1-1.09H36.77l0,1.09Z"/><path class="cls-6" d="M103.21,78.51c1.3,2.22,3.43,1.06,5.13,1.08,10.34.12,20.68.17,31,0,3.15,0,4.26.72,4.21,4.07-.19,12.63-.16,25.27,0,37.9,0,3-.43,4.39-3.95,4.34-14.36-.2-28.72-.15-43.07,0-2.83,0-4-.51-4-3.72.23-14.54.21-29.08.29-43.62C96.28,78.85,99.75,80.32,103.21,78.51Zm26.4,16.14-3.89-5.31c-.15-.5-.3-1.42-.47-1.42-5.93-.14-11.86-.18-17.79-.24-2.38,0-2.11,1.72-2.11,3.23,0,7.09,0,14.18,0,21.28,0,2,.34,3.24,2.79,3.2,6.7-.11,13.41,0,20.12,0,1.2,0,2.52-.15,2.41-1.69C130.19,107.32,132.05,100.86,129.61,94.65Z"/><path class="cls-6" d="M41.11,94.67c-.09,8.24-.54,16.51-.13,24.73.24,4.84-2.47,4.14-5.33,4.11s-5.54.82-5.39-4.07c.4-12.46.28-25,0-37.41-.07-3.72.88-4.87,4.71-4.78,10.93.27,21.87.15,32.81,0,1.7,0,3.83,1.14,5.14-1.08,5.36,1.57,10.72-.29,16.08,0,0,14.57,0,29.14.22,43.71,0,2.67-.64,3.7-3.49,3.61q-9.19-.3-18.4,0c-2.83.09-3.54-.9-3.51-3.6.07-8.43-.13-16.86-.22-25.29-.61-2.57-.88-5.39-4.37-5.8-3.28-3.8-11.16-3.81-13.79,0C42,89.3,41.65,92,41.11,94.67Zm41.5,6.46c.56,0,1.55.07,1.6-.1,1.06-3.9.44-7.89.43-11.84,0-1.57-1.36-1.45-2.5-1.62-12.66-1.88-13.75-1-13.74,11.72a2.71,2.71,0,0,0,0,.57c.46,2.07-1.16,5.84,1.31,6,4,.18,8.67,2.71,12.29-1.39Z"/><path class="cls-7" d="M45.49,88.86c2.63-3.8,10.51-3.79,13.79,0,0,2.31,1.79,3.82,2.49,5.81.07,8.41.08,16.81.27,25.21.06,2.73-.95,3.49-3.64,3.66-15.64,1-15.66,1-15.63-14.55,0-4.77.15-9.55.23-14.32C43.68,92.68,45.56,91.18,45.49,88.86Zm1.11,8.07c-2.35,6.3-2,6.87,4.13,6.91,1.32,0,2.65,0,4,0,5.36-.08,5.48-.28,3.5-5.82C55,91.46,51.6,91.14,46.6,96.93Z"/><path class="cls-8" d="M103.21,78.51c-3.46,1.81-6.93.34-10.39,0-.7-3.2-.11-4.79,3.86-4.72,14.16.25,28.33.06,42.49.15,1.59,0,4.19-1.18,4.24,2.11.05,3.78-2.91,2.3-4.6,2.32C126.94,78.53,115.08,78.49,103.21,78.51Z"/><path class="cls-9" d="M134.16,46.41a26.56,26.56,0,0,0,0,4.55c.89,5-1.48,6.14-6,5.7-2.36-.23-3.4-.7-3.28-3.25.18-3.6,0-7.21,0-10.82,0-5.26,2.7-7.11,7.69-5.55,1.5.47,1.56,1.36,1.55,2.52v6.85Z"/><path class="cls-8" d="M89.05,76.24c-5.36-.32-10.72,1.54-16.08,0H30.57C30.92,73,32.93,74,34.14,74q25.53-.12,51.06,0C86.7,74,89.46,72.67,89.05,76.24Z"/><path class="cls-10" d="M45.49,88.86c.07,2.32-1.81,3.82-2.49,5.82H41.11C41.65,92,42,89.3,45.49,88.86Z"/><path class="cls-10" d="M61.77,94.68c-.7-2-2.53-3.5-2.49-5.81,3.49.41,3.76,3.23,4.37,5.8Z"/><ellipse class="cls-11" cx="78.88" cy="47.66" rx="56.23" ry="0.79"/><ellipse class="cls-11" cx="77.12" cy="52.13" rx="55.35" ry="0.66"/><path class="cls-11" d="M114.06,57.56H36.79l0-1.09H114Z"/><path class="cls-12" d="M125.73,89.34l3.88,5.31c-1.41,5-.56,10.22-.66,15.33,0,2.7-1,3.89-3.67,3.66-2.06-.17-4.19.51-6.16-.57q0-11.55,0-23.09Z"/><path class="cls-3" d="M119.12,113.07c2,1.08,4.1.4,6.16.57,2.67.23,3.63-1,3.67-3.66.1-5.11-.75-10.28.66-15.33,2.44,6.21.58,12.67,1,19,.11,1.54-1.21,1.69-2.41,1.69-6.71,0-13.42-.07-20.12,0-2.45,0-2.81-1.19-2.79-3.2.07-7.1,0-14.19,0-21.28,0-1.51-.27-3.25,2.11-3.23,5.93.06,11.86.1,17.79.24.17,0,.32.92.48,1.42l-6.57.64h-2.24c-9.73-1.11-9.73-1.11-9.74,8.46,0,2.87.36,5.79-.07,8.59-.91,5.94,1.91,7.4,7.07,6.55.93-.15,1.85-.34,2.78-.52Z"/><path class="cls-13" d="M82,104.42c-3.62,4.1-8.29,1.57-12.29,1.39-2.47-.11-.85-3.88-1.31-6a2.71,2.71,0,0,1,0-.57c0-12.69,1.08-13.6,13.74-11.72,1.14.17,2.49.05,2.5,1.62,0,4,.63,7.94-.43,11.84,0,.17-1,.07-1.6.09,0-2.27.11-4.56,0-6.82-.12-1.83,1-4.56-2.57-4.47-3.21.07-2.1,2.53-2.23,4.18-.15,2.07.2,4.2-.09,6.25C77.18,103.83,79.28,104.37,82,104.42Zm-6.58-7c0-1.34,0-2.69,0-4-.06-1.64.43-3.58-2.36-3.58s-2.49,1.79-2.5,3.52c0,2.68,0,5.36,0,8.05,0,1.89.74,2.79,2.73,2.73s2.14-1.2,2.13-2.67S75.41,98.75,75.42,97.41Z"/><path class="cls-12" d="M82,104.42c-2.72,0-4.82-.59-4.33-4.16.29-2.05-.06-4.18.09-6.25.13-1.65-1-4.11,2.23-4.18,3.57-.09,2.45,2.64,2.57,4.47.16,2.26,0,4.55,0,6.82C82.41,102.22,82.2,103.32,82,104.42Z"/><path class="cls-12" d="M46.6,96.93c5-5.79,8.43-5.47,11.61,1.09.81,6.91-4.4,4-7.5,4.62C45.25,103.66,46.93,99.58,46.6,96.93Z"/><path class="cls-3" d="M46.6,96.93c.33,2.65-1.35,6.73,4.11,5.71,3.1-.58,8.31,2.29,7.5-4.62,2,5.54,1.86,5.74-3.5,5.82-1.33,0-2.66,0-4,0C44.59,103.8,44.25,103.23,46.6,96.93Z"/><path class="cls-13" d="M119.12,113.07H117q0-11.53,0-23.08h2.24Z"/><path class="cls-12" d="M116.92,90q0,11.53,0,23.08c-.93.18-1.85.37-2.78.52-5.16.85-8-.61-7.07-6.55.43-2.8.07-5.72.07-8.59C107.19,88.87,107.19,88.87,116.92,90Z"/><path class="cls-12" d="M75.41,97.41c0,1.34,0,2.68,0,4s-.27,2.6-2.13,2.67-2.76-.84-2.73-2.73c0-2.69,0-5.37,0-8.05,0-1.73-.17-3.52,2.5-3.52s2.3,1.94,2.36,3.58C75.46,94.72,75.42,96.07,75.41,97.41Z"/></g></g></svg>