<svg xmlns="http://www.w3.org/2000/svg" viewBox="0 0 259.87 343.24"><defs><style>.cls-1{fill:#e52421;}.cls-2,.cls-4{fill:#fff;}.cls-2{stroke:#e52722;stroke-miterlimit:10;stroke-width:4px;}.cls-3{fill:#fdfdfd;}.cls-5{fill:#fefefe;}</style></defs><title>kidnapping</title><g id="Capa_2" data-name="Capa 2"><g id="Capa_1-2" data-name="Capa 1"><path class="cls-1" d="M142.49,2.19c3.6,1.35,7.45,1.23,11.17,1.92a126.24,126.24,0,0,1,65.06,33.11c20.8,19.7,33.84,43.77,38.29,72,5.69,36.06-2.25,69.15-24.21,98.54q-50,66.86-100.09,133.6c-1.89,2.53-2.58,2.5-4.46,0-34-45.56-68.37-90.88-102.16-136.62C7.58,179.68.24,151,2.61,120.09c2.4-31.21,14.9-58.16,37-80.34a125.38,125.38,0,0,1,71.62-36.3c2-.3,4.15.08,5.91-1.26Zm-12,42.92a85.23,85.23,0,0,0-85.22,85.55c0,46,38.3,84.48,83.6,84.93,48.15.48,86-37.87,86.86-83.64C216.55,83.67,177.4,44.92,130.46,45.11Z"/><circle class="cls-2" cx="129.94" cy="129.94" r="127.94"/><path class="cls-1" d="M59.6,41.53h3.18c.07.28.28.3.53.34a9.48,9.48,0,0,1,8,9.15c0,12.9,0,25.8,0,38.7,0,.91-.24,1.37-1.13,1.59-9.09,2.24-12.48,14.27-5.36,21.45,5.76,5.81,11.44,11.71,17.08,17.64.95,1,1.41.74,2.17-.09s1.35-1.18.21-2.31c-5.75-5.73-11.38-11.6-17.08-17.39a9.82,9.82,0,0,1-3-6.56,9.53,9.53,0,0,1,5.71-9.3,9.35,9.35,0,0,1,10.86,2c5,5,9.89,10.09,14.81,15.16,6.48,6.68,13.06,13.27,19.37,20.1,3.63,3.93,6.23,8.51,6.2,14.16q-.06,10.68,0,21.38c0,.59-.65,1.67.65,1.79,1,.08,1.87.25,2.52-1.1A11.38,11.38,0,0,1,137.05,162a18,18,0,0,1,4.49,2c0-5.91,0-11.68,0-17.45a15.28,15.28,0,0,1,.24-3.5,26,26,0,0,1,7.09-12.35q16.51-17.07,33.17-34a8.93,8.93,0,0,1,9.89-2.24,9.6,9.6,0,0,1,3.79,15.9c-5.71,6-11.54,11.94-17.41,17.81-1.12,1.13-.3,1.52.32,2.17s1.05,1.3,2,.22c2.69-3,5.54-5.78,8.32-8.66,3.31-3.44,6.82-6.7,9.88-10.34a12.64,12.64,0,0,0-6-20.12c-1.1-.33-1.45-.74-1.45-1.88,0-12.72,0-25.44,0-38.17a9.76,9.76,0,0,1,6.76-9.31c.45-.16,1.11.11,1.37-.53h3.19c0,.09.09.25.16.27,5.36,1.27,8.21,4.75,8.21,10.28q0,33.56,0,67.12a10.48,10.48,0,0,1-2.2,6.55q-16,21-31.92,42.15c-.31.41-.91.76-.68,1.5,1.08,0,2.14,0,3.2,0a11.81,11.81,0,0,1,10.41,8.16A11.3,11.3,0,0,1,186,190c-1.22.91-1,1.23,0,2a10.85,10.85,0,0,1,4.2,10.94,11.38,11.38,0,0,1-8.37,9.28,14.44,14.44,0,0,1-5.06.44c-1.25-.06-1.84.19-1.68,1.61.14,1.22,0,2.47,0,3.7.06,1-.19,1.3-1.23,1.3q-15.37-.06-30.74,0c-1.12,0-1.39-.34-1.39-1.37,0-1.47-.13-2.94-.18-4.41,0-.45-.08-.86-.67-.79-.41.05-1-.26-1.18.43-.11.39-.21.79-.33,1.18a11.66,11.66,0,0,1-18.31,5.84,3.89,3.89,0,0,0-2.69-.92q-13.87,0-27.73,0c-3.23,0-3.23,0-3.23-3.14s0-3.29-3.34-3.42c-.65,0-1.3-.08-1.94-.15-6.17-.67-11-7.53-9.76-13.61a12.54,12.54,0,0,1,5.46-7.93c-4.73-3.54-6.94-8-4.93-13.69,2.21-6.28,7.12-8.44,13.44-8,.09-.67-.34-1-.61-1.32Q69.89,147,53.93,125.91a10.52,10.52,0,0,1-2.28-6.67c0-3.3,0-6.6,0-9.9q0-28.44,0-56.88c0-3.64,1.07-6.66,4-9C56.82,42.56,58.34,42.31,59.6,41.53Zm80.61,132.81c.08-3.74-2-6.19-5.15-6.56a5.88,5.88,0,0,0-6.14,4.7q-3.21,18.41-6.35,36.83c-.66,3.88,1.24,6.69,4.78,7.3,3.07.53,5.85-1.76,6.5-5.42q2.28-12.87,4.52-25.75C139,181.57,139.65,177.7,140.21,174.34Zm-37.85,1.13c-6.12,0-12.23,0-18.35,0a5.65,5.65,0,0,0-.19,11.3c11.82.05,23.64,0,35.46.06.82,0,1.06-.22,1.18-1.05.46-2.94,1-5.88,1.59-8.8.29-1.32-.1-1.56-1.34-1.54C114.59,175.5,108.47,175.47,102.36,175.47Zm58.29,31.14c5.95,0,11.89,0,17.84,0a5.69,5.69,0,0,0,5.85-5.72,5.77,5.77,0,0,0-6-5.62h-3.18q-15.36,0-30.73,0c-1.09,0-1.75,0-1.9,1.46a67.72,67.72,0,0,1-1.47,8.48c-.31,1.32.07,1.45,1.21,1.44C148.41,206.59,154.53,206.61,160.65,206.61Zm-41.86-11.2a2.26,2.26,0,0,0-.46-.13c-11.53,0-23.07,0-34.6,0a5.67,5.67,0,0,0,0,11.32c10.71.09,21.42.05,32.12.09.75,0,1.07-.28,1.18-.95Q117.91,200.57,118.79,195.41Zm43.43-8.63h16.42a5.66,5.66,0,0,0,.11-11.32c-10.48-.05-20.95,0-31.42-.05-1,0-1.14.39-1.27,1.17q-.75,4.5-1.61,9c-.21,1.08.23,1.24,1.18,1.23C151.16,186.76,156.69,186.78,162.22,186.78Z"/><path class="cls-3" d="M140.21,174.34c-.56,3.36-1.17,7.23-1.84,11.1q-2.24,12.87-4.52,25.75c-.65,3.66-3.43,5.95-6.5,5.42-3.54-.61-5.44-3.42-4.78-7.3q3.12-18.42,6.35-36.83a5.88,5.88,0,0,1,6.14-4.7C138.19,168.15,140.29,170.6,140.21,174.34Z"/><path class="cls-4" d="M102.36,175.47c6.11,0,12.23,0,18.35,0,1.24,0,1.63.22,1.34,1.54-.62,2.92-1.13,5.86-1.59,8.8-.12.83-.36,1.05-1.18,1.05-11.82,0-23.64,0-35.46-.06a5.65,5.65,0,0,1,.19-11.3C90.13,175.46,96.24,175.47,102.36,175.47Z"/><path class="cls-4" d="M160.65,206.61c-6.12,0-12.24,0-18.36,0-1.14,0-1.52-.12-1.21-1.44a67.72,67.72,0,0,0,1.47-8.48c.15-1.46.81-1.47,1.9-1.46q15.38,0,30.73,0h3.18a5.77,5.77,0,0,1,6,5.62,5.69,5.69,0,0,1-5.85,5.72C172.54,206.64,166.6,206.61,160.65,206.61Z"/><path class="cls-5" d="M118.79,195.41q-.87,5.15-1.75,10.33c-.11.67-.43.95-1.18.95-10.7,0-21.41,0-32.12-.09a5.67,5.67,0,0,1,0-11.32c11.53,0,23.07,0,34.6,0A2.26,2.26,0,0,1,118.79,195.41Z"/><path class="cls-4" d="M162.22,186.78c-5.53,0-11.06,0-16.59,0-.95,0-1.39-.15-1.18-1.23q.86-4.48,1.61-9c.13-.78.31-1.18,1.27-1.17,10.47,0,20.94,0,31.42.05a5.66,5.66,0,0,1-.11,11.32Z"/></g></g></svg>