<?xml version="1.0" encoding="utf-8"?>
<!-- Generator: Adobe Illustrator 23.0.0, SVG Export Plug-In . SVG Version: 6.00 Build 0)  -->
<svg version="1.1" id="Capa_1" xmlns="http://www.w3.org/2000/svg" xmlns:xlink="http://www.w3.org/1999/xlink" x="0px" y="0px"
	 viewBox="0 0 245.1 413.6" style="enable-background:new 0 0 245.1 413.6;" xml:space="preserve">
<style type="text/css">
	.st0{fill:#FFFFFF;stroke:#1D1D1B;stroke-width:8;stroke-miterlimit:10;}
	.st1{fill:#289DD9;}
</style>
<title>location</title>
<g>
	<g id="Capa_1-2">
		<path class="st0" d="M150.3,300.1c-0.7,4.3-1.1,8.6-1,13c-0.6,1.6-0.8,3.2-0.6,4.9c-0.3,4.3-1.2,8.6-0.9,13l-0.5,4.9
			c-1.5,11.6-5.1,15.3-15.7,15.8l-3.3-1c-3.5-3.2-7-4.4-10.8-0.3c-0.6,0.5-1.4,0.8-2.2,1l-4.9,0.2c-2.5-0.5-5-1.4-7.1-2.8l-2.5-2.5
			c-1.4-2.5-2.2-5.1-2.6-7.9c0.3-1.4,0.1-2.8-0.5-4.1c-0.2-3.5,0.2-7.1-0.9-10.5c-0.1-1.3-0.2-2.7-0.3-4c-0.3-3.8-0.5-7.5-0.8-11.3
			c0.2-1.4,0-2.8-0.6-4.1c0-3.5,0.2-7.1-0.8-10.5c-0.1-1.4-0.2-2.7-0.2-4c-0.3-3.8-0.5-7.6-0.8-11.3c0.2-1.4,0-2.8-0.6-4.1
			c0.2-3.5-0.1-7.1-0.8-10.5c-0.1-1.4-0.1-2.7-0.2-4.1c-0.3-3.5-0.5-7-0.8-10.5c0.2-1.4,0-2.8-0.6-4.1c0.2-3.8-0.1-7.6-0.9-11.4
			l-0.2-4.1c-0.3-3.5-0.5-7-0.8-10.5c-0.2-1.6-0.4-3.3-0.7-4.9c0.3-0.9,0.1-1.9-0.4-2.6l-1.6,2.5c-0.2,0-0.4,0.1-0.5,0.4
			c0,0,0,0.1,0,0.1c-3.9,3.1-8.2,3.5-12.8,2l-2.4-1.6c-1.7-1.9-3.1-4.1-4-6.4l-0.3-4.1c-0.2-3.8-0.5-7.6-0.7-11.3
			c0.2-1.4,0.1-2.8-0.4-4.1c-0.2-3.8-0.4-7.5-0.6-11.3c0.2-1.1,0.1-2.3-0.5-3.3c0.1-3.8,0.2-7.7-0.6-11.4l-0.3-4
			c0.3-3.8,0-7.6-0.7-11.3l-0.2-4.1l-0.8-11.3l-0.2-4.1c-0.3-4.1-0.2-8.1,0.1-12.2l0.7-4.9c1.7-7.2,4.6-14,8.8-20.1l9.2-9.6
			c6.9-5,14.6-8.7,22.7-11l5.7-1.3l13-1.1h4.1l11.3,0.8c1,0.6,2.1,0.9,3.3,0.8l9.7,2.6c0.6,0.9,1.5,0.8,2.3,1l8.1,4.1
			c0.6,0.8,1.5,1.3,2.4,1.5l5.9,4.7l3,2.8l4.9,6.2c0.2,1,0.8,1.8,1.6,2.5c1.2,2.7,2.4,5.3,3.6,8.1l1.4,3.3c0.6,3.2,1.2,6.5,1.8,9.7
			c-0.2,1.4,0,2.8,0.6,4.1l-0.6,12.1l-0.1,4.1c-1.1,4.3-0.8,8.6-0.9,13c-0.6,1.6-0.7,3.2-0.5,4.9c-0.3,4.1-0.5,8.1-0.8,12.1
			l-0.1,4.9c-0.7,4.3-1,8.6-0.9,13l-0.4,4.9c-0.3,4.3-0.6,8.6-0.9,12.9l-0.2,4.1c-1.4,7.3-4.2,10.2-11.5,11.5l-3.2-0.3
			c-2.8-1.3-5.4-2.8-7.1-6.3c-0.8,4.8-1.3,9.7-1.2,14.6c-0.5,1-0.6,2.2-0.4,3.3c-0.3,4.6-0.7,9.2-1,13.8l-0.5,4.9
			c-0.4,4.3-0.7,8.6-1.1,12.9c-0.1,1.4-0.1,2.7-0.1,4.1c-1.2,4.4-0.7,8.9-1.4,13.3c0,1.5-0.1,3-0.1,4.6c-1.1,4.3-0.9,8.7-1.2,13
			C150.1,296.9,150,298.5,150.3,300.1z"/>
		<path class="st1" d="M229.5,320.5l5.7,5.8l1.7,2.2l4.7,7.6c-0.1,0.8,0.3,1.6,0.9,2.1c0.8,3.2,1.6,6.5,2.4,9.7c0,1.4,0.1,2.7,0.1,4
			c-0.1,4.7-1.5,9.1-2.8,13.6l0.1,0.1c-0.8,0.3-0.8,1.1-1.1,1.7l-5.6,8.9l-1.4,1.7c-0.6,0.2-1,0.8-1,1.5l0,0l-0.8,0.8l0.2,0.2
			l-0.2-0.2l-0.8,0.8l0.2,0.1l-0.2-0.1l-0.8,0.8v0c-0.6,0-1.2,0.5-1.4,1.1l-2.5,2.2l-12,8.1l-20.3,9.2c-0.7-0.1-1.3,0.1-1.7,0.7l0,0
			c-1.7,0.1-3.4,0.6-4.8,1.5c-11.2,2.9-22.4,5.6-34,7c-21,2.7-42.3,2.7-63.3,0c-9.8-1.2-19.3-3.4-28.9-5.5l-3.7-1.2l-9.6-3.1l-2.6-1
			l-8.7-3.7c-0.7-0.7-1.6-1.1-2.5-1.2l-7.3-4.1l-3.3-2.2l-6.2-4.4c-0.9-0.8-1.8-1.5-2.6-2.3l-5.6-5.7l-2.5-3.3l-3.9-6.5
			c-0.6-1.4-1.2-2.8-1.7-4.1c-0.6-2.9-1.2-5.8-1.8-8.7c0-1.4,0-2.7,0-4.1c0.3-5,1.9-9.7,3.5-14.4l-0.1-0.1c0.8-0.3,0.8-1.1,1.1-1.7
			c5.9-10,14.4-17.1,24-23.1l21-10.2c2.7,0,5.1-1.1,7.5-2.2l14.4-3.5l3.3,0.8c2.2,1.5,4.1,3.2,5,5.7l0.7,4.1c-1.2,4.8-4.2,7.8-9,9
			l-1,0.5v-0.1c-2.2,0-4.3,0.6-6.3,1.6c-6.2,1.5-12.2,3.8-17.9,6.8c-0.6-0.1-1.3,0.3-1.6,0.8l0,0c-2.8,0.7-5.1,2.3-7.3,3.9l-0.9,0.9
			l0.1-0.1c-0.7-0.1-1.3,0.3-1.7,0.9l0,0c-5.5,3.2-10.2,7.2-13,13h0c-0.6,0.4-0.9,1-0.9,1.7c-1.2,1.7-1.7,3.7-1.5,5.7
			c-0.6,3.5,0.3,7,2.5,9.8l1.6,2.4c1.5,2.8,3.7,5.1,6.4,6.8c0.6,0.9,1.5,1.7,2.5,2.1c1.8,1.8,4,3.2,6.4,4.1l3.4,2.1
			c2.6,1.4,5.1,3,8,3.6c0.5,0.7,1.4,0.8,2.1,0.9c3.1,1.7,6.5,3,10,3.7l2.5,0.8c3.1,1.1,6.4,2,9.7,2.5L78,390c3.4,1,6.9,1.6,10.5,1.8
			c1,0.6,2.1,0.8,3.3,0.7c3.8,0.4,7.5,1.4,11.3,1c1.3,0.3,2.7,0.9,4.1,0.5l11.3,0.3l4,0.1l12.2-0.2c1.6,0.1,3.3,0.4,4.8-0.4
			c4.4,0,8.7-0.4,13-1.3c1.7,0.3,3.3-0.3,4.9-0.8c5.2-0.4,10.4-1.5,15.4-3.1c2-0.1,3.9-0.6,5.7-1.5c6.5-1.4,12.8-3.6,18.7-6.7
			c0.6,0.1,1.3-0.3,1.6-0.8l0,0c2.7-0.7,5.2-2,7.4-3.8l1.6-1l0,0c6.9-3.9,13-8.7,16.3-16.2h-0.1c0.6-0.4,0.9-1,0.8-1.7
			c0.9-1.5,1.1-3.2,0.8-4.9c0.4-3.4-0.6-6.9-2.6-9.7c-0.4-1.1-1.1-2.1-2-2.8c-1.6-2.7-3.9-4.9-6.6-6.5l-1.7-1.4
			c-2.4-2.2-5.1-3.9-8.1-5.1l-1.8-1.1c-2.5-1.5-5.1-2.7-7.9-3.6l-3.4-1.4c-2.8-1.4-5.8-2.4-8.9-3.1l-3.3-0.9l-8.8-2.6l-3.2-2.5
			c-1.6-2.3-2.5-5.1-2.5-8c1-4,4.1-7.1,8.1-8.1l10.4,2l3.3,1.1l8.9,2.8c0.6,0.6,1.4,0.9,2.2,0.8l9.2,3.9l2.5,1.4l8.1,4.3l2.4,1.6
			l7.2,5.2L229.5,320.5z"/>
		<path class="st0" d="M152.7,38.2c-3.5,11.8-11.1,19.4-22.8,22.9l-4.9,0.7c-3.8,0-7.6-0.3-11.3-1c-0.6-0.7-1.5-1-2.4-0.9l-7.2-4
			l-2.7-2.2l-4.9-5.8c-0.2-1-0.8-1.8-1.6-2.4l-3.1-9c-0.1-1.3-0.2-2.7-0.3-4c0-5,0.9-9.9,2.7-14.6c2.9-5.5,7.1-10.1,12.2-13.6
			c14.2-7.1,27.1-5.3,38.8,5.6l2.3,2.7c1.3,2.4,2.6,4.8,3.9,7.2c0.1,0.9,0.1,1.8,0.9,2.4c0.7,3.7,1,7.5,1,11.3
			C153.2,34.9,153,36.6,152.7,38.2z"/>
	</g>
</g>
</svg>
