<svg xmlns="http://www.w3.org/2000/svg" viewBox="0 0 259.87 343.24"><defs><style>.cls-1{fill:#e52421;}.cls-2{fill:#fff;stroke:#e52722;stroke-miterlimit:10;stroke-width:4px;}.cls-3{fill:#424190;}.cls-4{fill:#d73287;}</style></defs><title>rape</title><g id="Capa_2" data-name="Capa 2"><g id="Capa_1-2" data-name="Capa 1"><path class="cls-1" d="M142.49,2.19c3.6,1.35,7.45,1.23,11.17,1.92a126.24,126.24,0,0,1,65.06,33.11c20.8,19.7,33.84,43.77,38.29,72,5.69,36.06-2.25,69.15-24.21,98.54q-50,66.86-100.09,133.6c-1.89,2.53-2.58,2.5-4.46,0-34-45.56-68.37-90.88-102.16-136.62C7.58,179.68.24,151,2.61,120.09c2.4-31.21,14.9-58.16,37-80.34a125.38,125.38,0,0,1,71.62-36.3c2-.3,4.15.08,5.91-1.26Zm-12,42.92a85.23,85.23,0,0,0-85.22,85.55c0,46,38.3,84.48,83.6,84.93,48.15.48,86-37.87,86.86-83.64C216.55,83.67,177.4,44.92,130.46,45.11Z"/><circle class="cls-2" cx="129.94" cy="129.94" r="127.94"/><path class="cls-3" d="M169.44,35.3c12.14,0,24.27-.06,36.41-.13,1.15,0,1.49.37,1.49,1.51q-.06,17.72,0,35.45c0,1.28-.42,1.64-1.64,1.6-2.55-.07-5.12-.12-7.66,0-1.59.08-1.83-.56-1.81-1.94.07-5.55,0-11.1,0-16.18l-23,22.2-12,11.8a54.51,54.51,0,0,0-17.64-12.42,60.44,60.44,0,0,0-16.64-3.93l.67-.23a.36.36,0,0,0,.15-.15s0-.11,0-.08h-6.5V73l4.46.2-4.29.28A49.41,49.41,0,0,0,75.83,131.1,50.33,50.33,0,0,0,90.93,159L78.66,171.41a63.89,63.89,0,0,1-20.35-38.89c-5-35.91,17.9-68.36,53.34-75.39,18.25-3.62,35.24,0,50.67,10.48,1.47,1,2.22,1,3.47-.3,6.8-7,13.7-13.81,20.89-21-4.61,0-8.87.06-13.12,0-1.57,0-3.24.63-4.71-.46,1-.5.57-1.4.58-2.13C169.47,40.87,169.44,38.08,169.44,35.3Z"/><path class="cls-4" d="M161.17,89.63l12-11.8a64.25,64.25,0,0,1,17.35,38.34c2.05,21.17-4.49,39.4-19.44,54.47a64.73,64.73,0,0,1-38.67,18.84c-1.71.22-2,.82-2,2.36.09,4,.11,8,0,12-.05,1.76.43,2.35,2.26,2.31,5.35-.12,10.7,0,16.06-.08,1.77,0,2.41.45,2.31,2.28a71.3,71.3,0,0,0,0,8.14c.12,2-.67,2.4-2.48,2.36-5.11-.1-10.23.11-15.34-.1-2.42-.09-2.91.73-2.83,3,.17,4.63-.06,9.27.1,13.9.07,2.08-.66,2.57-2.58,2.46a69.58,69.58,0,0,0-7.91,0c-1.75.09-2.37-.38-2.32-2.24.14-4.79,0-9.59.1-14.38.06-2-.38-2.77-2.59-2.69-5.27.18-10.55,0-15.82.1-1.85,0-2.34-.55-2.25-2.31a72,72,0,0,0,0-7.91c-.11-1.94.44-2.64,2.5-2.58,5.27.14,10.54,0,15.81.08,1.72,0,2.41-.32,2.34-2.22-.14-4.07-.09-8.15,0-12.22,0-1.45-.32-2-1.91-2.2a65.19,65.19,0,0,1-36.25-17c-.35-.32-.65-.7-1-1.05L90.93,159c11.07,9.51,23.75,13.94,38.43,12.53,23.64-2.27,43-23.09,43.46-46.84C173.05,111.66,169.63,99.81,161.17,89.63Z"/></g></g></svg>