<svg id="Capa_1" data-name="Capa 1" xmlns="http://www.w3.org/2000/svg" viewBox="0 0 171.59 226.41"><defs><style>.cls-1,.cls-3{fill:#e52722;}.cls-1,.cls-2{stroke:#e52722;stroke-miterlimit:10;}.cls-1{stroke-width:5px;}.cls-2{fill:#fff;stroke-width:4px;}.cls-4{fill:#f7f7fb;}.cls-5{fill:#fefefe;}.cls-6{fill:#fbf9f9;}.cls-7{fill:#dedde1;}</style></defs><title>store_d</title><path class="cls-1" d="M95,.87c2.33.88,4.83.8,7.25,1.25a81.91,81.91,0,0,1,42.23,21.5A80.25,80.25,0,0,1,169.3,70.35c3.7,23.41-1.46,44.89-15.72,64q-32.45,43.4-65,86.73c-1.22,1.65-1.67,1.63-2.89,0-22.09-29.58-44.39-59-66.32-88.69-12-16.26-16.78-34.88-15.24-55a80.71,80.71,0,0,1,24-52.15A81.45,81.45,0,0,1,74.66,1.69c1.27-.19,2.69.05,3.84-.82ZM87.14,28.74A55.34,55.34,0,0,0,31.82,84.27c0,29.84,24.86,54.85,54.27,55.14a55.34,55.34,0,1,0,1-110.67Z" transform="translate(-1.37 1.63)"/><circle class="cls-2" cx="85.44" cy="85.43" r="83.05"/><path class="cls-3" d="M87.15,28.2q17.52,0,35.06,0c9.21,0,15.82,6,15.18,15.2-.59,8.41,1.34,15.45,7.33,21.24,5.27,5.09,3.73,11.43,3.07,17.35-.45,4.07-4,6.31-8,6.64-2.24.17-2.24,1.08-2.23,2.74q.08,16,0,32c0,10.13-5.87,16-16,16H52.25c-9.67,0-15.72-6.06-15.74-15.75,0-10.75,0-21.51,0-32.26,0-1.68,0-2.52-2.25-2.65-5.12-.29-8.18-4.19-8.65-9.28C25,72.7,26.21,66.81,31.2,62c4.65-4.46,6.15-9.93,5.35-16.24a17.51,17.51,0,0,1,.67-7.49A14.51,14.51,0,0,1,51,28.22C63,28.17,75.08,28.2,87.15,28.2Zm35.18,30.29a29.42,29.42,0,0,0-7.5,0l-13.39,0a25.56,25.56,0,0,0-7.15,0H79.6a25.49,25.49,0,0,0-7.14,0l-12.28,0a30.12,30.12,0,0,0-7.47,0c-2.89,0-5.77,0-8.65-.12a2.94,2.94,0,0,0-2.79,1.42c-1.26,1.84-2.65,3.6-4,5.41-.37.51-1.07,1-.78,1.67s1.14.45,1.76.45c3.44,0,6.88,0,10.33-.07A35.81,35.81,0,0,0,56,67.1a109.11,109.11,0,0,0,14.69,0,23.09,23.09,0,0,0,7.09-.06,133.92,133.92,0,0,0,18.36,0,22.42,22.42,0,0,0,7.08.09,131.7,131.7,0,0,0,15.77,0,35.11,35.11,0,0,0,7.39.11l9.51.1c1.26,0,2.05-.09,1.08-1.7-4.21-7-4.62-7.3-12.71-7.24C123.63,58.39,123,58.45,122.33,58.49ZM53.26,100a10.4,10.4,0,0,0,.1-1.11c.08-5,.75-5.63,5.68-5.64,5.41,0,10.83,0,16.24,0,6,0,7.37-.72,7.36,6.77l0,31.95c-.11.38.06.51.42.46,13.34,0,26.68.12,40,.06a7.48,7.48,0,0,0,7.69-7.59c.08-8.3,0-16.6-.05-24.9-.11-4.89.82-9.83-.68-14.65.22-2.54,1.68-3.55,4.14-3.51a33.37,33.37,0,0,0,4.47-.21c2.89-.34,2.93-.74,2.87-5.66,0-2.65-1.77-1.89-3.07-1.89q-50.76,0-101.52,0c-5,0-4.28-1-4.44,4.42-.06,2.08.61,3.19,2.83,3.17,1.49,0,3,.21,4.47.18,2.46,0,3.92,1,4.14,3.51-1.27,4.85-.48,9.77-.55,14.66,0,8.22-.17,16.43,0,24.65.08,4.81,3.72,8,8.36,7.91,1.38,0,1.72-.47,1.71-1.77C53.31,120.57,53.3,110.3,53.26,100Zm34-48.42c11.69,0,23.37,0,35.06,0,2.77,0,6.55,1.26,8-.58s.5-5.37.44-8.17a7.6,7.6,0,0,0-8-7.88q-35.62-.06-71.24,0c-4.86,0-8,3.18-8.24,8-.08,2,.14,3.94-.06,5.89-.23,2.26.63,2.8,2.81,2.78C59.76,51.58,73.51,51.62,87.25,51.62ZM75.81,116.33c0-4.85,0-9.7,0-14.55,0-1.29-.3-1.81-1.7-1.78-4.1.09-8.2.1-12.3,0-1.64,0-1.77.7-1.76,2,0,9.51.05,19,0,28.54,0,1.55.38,2.11,2,2.06q5.87-.17,11.75,0c1.57,0,2.06-.42,2-2C75.75,125.84,75.81,121.08,75.81,116.33Z" transform="translate(-1.37 1.63)"/><path class="cls-4" d="M82.62,132l0-31.95,6.54,0c0,6,0,11.94.1,17.91,0,3.42,1.13,4.51,4.54,4.52q13.44,0,26.88,0c3.46,0,4.46-1,4.48-4.5,0-6,.07-12,.11-17.92h5.41c0,8.3.13,16.6.05,24.9a7.48,7.48,0,0,1-7.69,7.59c-13.34.06-26.68,0-40-.06Z" transform="translate(-1.37 1.63)"/><path class="cls-5" d="M75.81,116.33c0,4.75-.06,9.51,0,14.26,0,1.6-.46,2.06-2,2q-5.88-.17-11.75,0c-1.63,0-2-.51-2-2.06.07-9.52,0-19,0-28.54,0-1.31.12-2.06,1.76-2,4.1.1,8.2.09,12.3,0,1.4,0,1.71.49,1.7,1.78C75.78,106.63,75.81,111.48,75.81,116.33Z" transform="translate(-1.37 1.63)"/><path class="cls-4" d="M43.36,100.05h9.9c0,10.26.05,20.53.13,30.8,0,1.3-.33,1.75-1.71,1.77-4.64.06-8.28-3.1-8.36-7.91C43.19,116.48,43.33,108.27,43.36,100.05Z" transform="translate(-1.37 1.63)"/><path class="cls-1" d="M96.16,67.05a133.92,133.92,0,0,1-18.36,0l1.8-8.58H94.29C94.91,61.34,95.54,64.2,96.16,67.05Z" transform="translate(-1.37 1.63)"/><path class="cls-1" d="M119,67.11a131.7,131.7,0,0,1-15.77,0l-1.8-8.64,13.39,0Q116.93,62.79,119,67.11Z" transform="translate(-1.37 1.63)"/><path class="cls-1" d="M60.18,58.47l12.28,0c-.58,2.87-1.17,5.75-1.75,8.63A109.11,109.11,0,0,1,56,67.1Q58.09,62.78,60.18,58.47Z" transform="translate(-1.37 1.63)"/><path class="cls-1" d="M48.63,67.24c-3.45,0-6.89.07-10.33.07-.62,0-1.45.28-1.76-.45s.41-1.16.78-1.67c1.3-1.81,2.69-3.57,4-5.41a2.94,2.94,0,0,1,2.79-1.42c2.88.1,5.76.09,8.65.12C51.48,61.46,49.58,64.13,48.63,67.24Z" transform="translate(-1.37 1.63)"/><path class="cls-1" d="M122.33,58.49c.65,0,1.3-.1,2-.11,8.09-.06,8.5.22,12.71,7.24,1,1.61.18,1.71-1.08,1.7l-9.51-.1Q124.36,62.86,122.33,58.49Z" transform="translate(-1.37 1.63)"/><path class="cls-6" d="M48.63,67.24c.95-3.11,2.85-5.78,4.08-8.76a30.12,30.12,0,0,1,7.47,0Q58.1,62.79,56,67.1A35.81,35.81,0,0,1,48.63,67.24Z" transform="translate(-1.37 1.63)"/><path class="cls-6" d="M122.33,58.49q2,4.36,4.07,8.73a35.11,35.11,0,0,1-7.39-.11q-2.08-4.32-4.18-8.64A29.42,29.42,0,0,1,122.33,58.49Z" transform="translate(-1.37 1.63)"/><path class="cls-6" d="M101.44,58.5l1.8,8.64a22.42,22.42,0,0,1-7.08-.09c-.62-2.85-1.25-5.71-1.87-8.56A25.19,25.19,0,0,1,101.44,58.5Z" transform="translate(-1.37 1.63)"/><path class="cls-6" d="M70.71,67.13c.58-2.88,1.17-5.76,1.75-8.63a25.49,25.49,0,0,1,7.14,0l-1.8,8.58A23.09,23.09,0,0,1,70.71,67.13Z" transform="translate(-1.37 1.63)"/><path class="cls-7" d="M82.62,132l.42.46C82.68,132.52,82.51,132.39,82.62,132Z" transform="translate(-1.37 1.63)"/><path class="cls-3" d="M54.5,44c-.25,2-1.39,3.3-3.48,3.23A3.08,3.08,0,0,1,47.84,44a3.1,3.1,0,0,1,3.31-3.39C53.24,40.6,54.33,41.9,54.5,44Z" transform="translate(-1.37 1.63)"/><path class="cls-3" d="M65.72,43.75c-.13,2.15-1.23,3.46-3.3,3.48a3.11,3.11,0,0,1-3.36-3.35A3.09,3.09,0,0,1,62.2,40.6C64.3,40.5,65.44,41.75,65.72,43.75Z" transform="translate(-1.37 1.63)"/><path class="cls-3" d="M76.94,44c-.23,2.06-1.36,3.31-3.45,3.26A3.09,3.09,0,0,1,70.28,44a3.11,3.11,0,0,1,3.3-3.41C75.67,40.58,76.76,41.88,76.94,44Z" transform="translate(-1.37 1.63)"/><path class="cls-3" d="M69.17,85.39c-.41,2.33-1.92,3.24-4.14,3.25H55c-2.22,0-3.74-.91-4.13-3.24.21-2.52,1.65-3.55,4.1-3.51,3.35,0,6.71,0,10.06,0C67.51,81.85,68.94,82.88,69.17,85.39Z" transform="translate(-1.37 1.63)"/><path class="cls-3" d="M96.1,85.39c-.4,2.33-1.92,3.24-4.14,3.25H82c-2.21,0-3.73-.91-4.13-3.24.22-2.52,1.66-3.55,4.11-3.51q5,.08,10,0C94.44,81.85,95.88,82.88,96.1,85.39Z" transform="translate(-1.37 1.63)"/><path class="cls-3" d="M123,85.39c-.4,2.33-1.91,3.24-4.13,3.25h-10c-2.22,0-3.74-.91-4.14-3.24.22-2.52,1.66-3.55,4.11-3.51q5,.08,10,0C121.38,81.85,122.81,82.88,123,85.39Z" transform="translate(-1.37 1.63)"/><path class="cls-3" d="M89.18,100c0-.93.06-1.86.1-2.79.14-2.73,1.27-3.93,4-3.94q14-.06,28,0c2.76,0,3.8,1.15,3.9,4,0,.93.07,1.86.11,2.79,0,6-.06,11.94-.11,17.92,0,3.48-1,4.49-4.48,4.5q-13.44,0-26.88,0c-3.41,0-4.5-1.1-4.54-4.52C89.23,112,89.21,106,89.18,100Zm18.08,0c-3.17,0-6.34,0-9.5,0-1.3,0-1.81.32-1.78,1.71q.12,6.15,0,12.3c0,1.34.41,1.76,1.74,1.74q9.51-.08,19,0c1.32,0,1.78-.36,1.76-1.72q-.12-6.15,0-12.3c0-1.32-.36-1.79-1.72-1.75C113.6,100.09,110.43,100,107.26,100Z" transform="translate(-1.37 1.63)"/></svg>