<svg id="Capa_1" data-name="Capa 1" xmlns="http://www.w3.org/2000/svg" viewBox="0 0 1012.84 767.12"><defs><style>.cls-1{fill:#f8f7f7;}.cls-2{fill:#f7f6f6;}.cls-3{fill:#f5f5f5;}.cls-4{fill:#f5f4f4;}.cls-5{fill:#1d1d1b;stroke-width:5px;}.cls-5,.cls-6{stroke:#1d1d1b;stroke-miterlimit:10;}.cls-6{fill:#fff;stroke-width:4px;}.cls-7{fill:#080809;}.cls-8{fill:#080909;}.cls-9{fill:#4b525c;}</style></defs><title>store</title><path class="cls-1" d="M614-152.12H295.55c-12.21,0-16.72,4.56-16.72,16.88q0,51.24,0,102.49a29.88,29.88,0,0,1-1.06,8.36Q248.52,77.79,219.33,180c-1.86,6.53-5,12.89-5,19.74C214.19,236.54,239,270,274.65,281c3.21,1,4.28,2.23,4.27,5.72q-.19,132.73-.15,265.47c0,35.34,27.79,62.83,63.15,62.81q272.22-.13,544.45,0c35.45,0,63.35-27.73,63.31-63.29q-.15-132.48-.17-265c0-3.48,1.06-4.71,4.28-5.79,28.68-9.58,47.67-28.93,56.6-57.78,2.85-9.18,5.37-18.87,2.66-28.46Q984.93,95.29,956.22-4c-4.56-15.65-7.17-31.17-6.8-47.53.64-27.65.18-55.32.18-83,0-13.24-4.39-17.64-17.61-17.64Z" transform="translate(-1.37 152.12)"/><path class="cls-2" d="M533.47,248.12c36.59,59.06,122.51,60.63,161,.19,36.74,59.71,124.53,59.92,162-1.49a86.59,86.59,0,0,0,32.11,28.6A81.5,81.5,0,0,0,918,284.31c2.62.26,4.84.32,4.83,4.43-.18,87.83-.07,175.66-.29,263.49,0,21.16-15,35.5-36.13,35.71-9.67.1-19.34-.19-29,.14-4,.14-4.53-1.21-4.53-4.76q.15-113.24.08-226.49c0-3.83,0-7.67,0-11.5-.06-9.46-5.29-14.77-14.86-14.95-5.66-.11-11.33,0-17,0H714.55c-12.72,0-17.41,4.73-17.41,17.54q0,117.24.11,234.49c0,4.5-1.06,5.7-5.66,5.7q-173.49-.21-347-.05c-13.55,0-24.84-4-32.79-15.43a32.12,32.12,0,0,1-6-18.7q0-132.49-.07-265c0-2.66.24-4.18,3.47-4.53,26.18-2.84,46.67-15.41,62-36.7.16-.23.55-.3.83-.44C409.33,308.16,495.62,308.13,533.47,248.12Zm-16.26,254H643.69c11.15,0,16.17-5,16.17-16.08q0-69.74,0-139.47c0-11.05-5.12-16.21-16.18-16.21q-126.23,0-252.45,0c-10.77,0-15.9,5.15-15.9,16q0,70,0,140c0,10.88,5,15.82,15.91,15.82Z" transform="translate(-1.37 152.12)"/><path class="cls-1" d="M614.45-125.2q151.21,0,302.42-.12c4.91,0,6,1.28,5.92,6q-.37,37.23,0,74.47c0,4.19-1.1,5.19-5.21,5.19q-183.95-.21-367.9-.16-119,0-237.93.21c-5.28,0-6.07-1.53-6-6.29q.36-37,0-74c0-4.22.76-5.48,5.31-5.47Q462.74-125.08,614.45-125.2Z" transform="translate(-1.37 152.12)"/><path class="cls-2" d="M825.94,472.53c0,36.82-.05,73.64.07,110.46,0,3.7-.62,5.06-4.77,5q-46.23-.3-92.47,0c-3.64,0-4.78-.75-4.78-4.62q.19-110.72,0-221.43c0-4.29,1.56-4.76,5.16-4.75q46,.18,92,0c3.91,0,4.94.95,4.92,4.9C825.87,398.89,825.94,435.71,825.94,472.53Z" transform="translate(-1.37 152.12)"/><path class="cls-2" d="M614.26,169.55c-20.33,0-40.66-.07-61,.06-3.61,0-5.08-.29-4.72-4.78,3.36-41.5,6.37-83,9.51-124.53,1.26-16.6,2.65-33.2,3.81-49.81.19-2.68,1.15-3.31,3.63-3.3q48.5.09,97,0c2.89,0,3.61,1,3.8,3.66,1.11,15.44,2.38,30.88,3.58,46.32l6.66,85.66c1.09,14.11,2,28.24,3.36,42.33.39,4.14-1.17,4.52-4.64,4.49C654.92,169.48,634.59,169.55,614.26,169.55Z" transform="translate(-1.37 152.12)"/><path class="cls-2" d="M772.69,169.55c-20.15,0-40.31-.1-60.46.09-3.88,0-5.25-.68-5.56-5-3-41-6.31-82-9.51-122.95-1.33-17.09-2.5-34.19-4-51.27-.37-4.16,2.18-3.2,4.31-3.2q39.46,0,78.94,0c5.33,0,10.68.27,16-.09,3.46-.24,4.5,1.22,5.19,4.23Q809.66,44.28,821.9,97.14c5.18,22.48,10.35,45,15.66,67.42.88,3.71.52,5.15-3.92,5.1C813.33,169.41,793,169.55,772.69,169.55Z" transform="translate(-1.37 152.12)"/><path class="cls-2" d="M455.22,169.55c-20.33,0-40.66-.05-61,0-3.27,0-4.61-.09-3.63-4.26Q410.94,78.28,430.8-8.9c.7-3.09,1.84-3.95,4.92-3.94q47.49.16,95,0c3.51,0,4.55.85,4.26,4.4-1.58,19.08-2.93,38.19-4.41,57.28-1.85,23.9-3.78,47.8-5.62,71.71-1.14,14.77-2.3,29.55-3.21,44.34-.24,3.93-1.8,4.79-5.52,4.76C495.88,169.45,475.55,169.55,455.22,169.55Z" transform="translate(-1.37 152.12)"/><path class="cls-2" d="M306.18,169.55c-17.16,0-34.31-.06-51.47,0-3.33,0-4.3-.45-3.24-4.16q25-87,49.71-174.19c.86-3,2.1-4.12,5.42-4.11q46.71.22,93.44,0c3.6,0,3.9.83,3.12,4.17Q382.87,78.63,362.92,166c-.67,2.93-2,3.61-4.77,3.59C340.82,169.5,323.5,169.55,306.18,169.55Z" transform="translate(-1.37 152.12)"/><path class="cls-2" d="M977.55,169c-1.48.9-3,.53-4.48.53-34,0-68-.07-102,.14-4.09,0-5.31-1.56-6.11-5.06Q845.17,78.21,825.13-8.14c-.85-3.68-.24-4.76,3.85-4.73,31,.19,62,.13,92.95,0,2.68,0,4.13.48,5,3.35Q952,79.09,977.37,167.62A9.49,9.49,0,0,1,977.55,169Z" transform="translate(-1.37 152.12)"/><path class="cls-3" d="M453,196.4c20.82,0,41.63.08,62.44-.08,3.56,0,4.76.6,4.7,4.56-.52,33.39-26.71,61.61-60.61,65-33,3.3-64.51-19.39-71.57-51.51-1.26-5.7-3.88-12.73-1.09-16.91,2.28-3.41,9.93-1,15.19-1C419,196.31,436,196.4,453,196.4Z" transform="translate(-1.37 152.12)"/><path class="cls-3" d="M775.11,196.4c20.65,0,41.3.08,61.95-.07,3.66,0,5.07.51,5,4.76-.47,32.95-26.54,61.06-60.39,64.77-32.72,3.59-64.59-19.17-71.78-51.24A114.76,114.76,0,0,1,708,201.3c-.4-3.75.52-5.05,4.65-5C733.48,196.53,754.3,196.4,775.11,196.4Z" transform="translate(-1.37 152.12)"/><path class="cls-3" d="M613.94,196.4c20.81,0,41.62.08,62.43-.08,3.56,0,4.77.59,4.72,4.55-.46,33.29-26.77,61.65-60.63,65-33,3.28-64.46-19.37-71.57-51.52-1-4.4-1.29-8.87-1.83-13.33-.45-3.72.57-4.77,4.44-4.73C572.31,196.51,593.12,196.4,613.94,196.4Z" transform="translate(-1.37 152.12)"/><path class="cls-4" d="M927.39,196.4h53c5.7,0,7.1,1.35,6.42,7.47-2.47,22.18-13.43,38.77-33.66,48.46-38,18.2-82.88-9.07-84.14-50.77-.12-3.95.54-5.35,4.93-5.28C891.73,196.57,909.56,196.4,927.39,196.4Z" transform="translate(-1.37 152.12)"/><path class="cls-4" d="M300.7,196.4c18,0,35.95.12,53.92-.1,3.84-.05,4.61,1,4.52,4.72-.74,30.71-26.17,56.34-56.83,57-32,.71-58.64-23.18-60.69-54.5-.43-6.44.23-7.14,6.65-7.14Z" transform="translate(-1.37 152.12)"/><path class="cls-2" d="M517.53,475.15c-36.83,0-73.66-.07-110.49.09-3.93,0-4.94-1-4.92-4.93q.24-54,0-108c0-4.25,1.26-5.16,5.3-5.15q110.23.17,220.47,0c4.3,0,5.11,1.27,5.09,5.28q-.24,54,0,108c0,4.06-1.2,4.82-5,4.8C591.19,475.09,554.36,475.15,517.53,475.15Z" transform="translate(-1.37 152.12)"/><path class="cls-5" d="M95,.87c2.33.88,4.83.8,7.25,1.25a81.91,81.91,0,0,1,42.23,21.5A80.25,80.25,0,0,1,169.3,70.35c3.7,23.41-1.46,44.89-15.72,64q-32.45,43.4-65,86.73c-1.22,1.65-1.67,1.63-2.89,0-22.09-29.58-44.39-59-66.32-88.69-12-16.26-16.78-34.88-15.24-55a80.71,80.71,0,0,1,24-52.15A81.45,81.45,0,0,1,74.66,1.69c1.27-.19,2.69.05,3.84-.82ZM87.14,28.74A55.34,55.34,0,0,0,31.82,84.27c0,29.84,24.86,54.85,54.27,55.14a55.34,55.34,0,1,0,1-110.67Z" transform="translate(-1.37 152.12)"/><circle class="cls-6" cx="85.44" cy="235.93" r="83.05"/><path class="cls-7" d="M84.62,27.06h47.67a2.64,2.64,0,0,1,2.64,2.65c0,4.15.07,8.29,0,12.44a22.89,22.89,0,0,0,1,7.12q4.32,14.88,8.52,29.79a7.61,7.61,0,0,1-.4,4.27A13.21,13.21,0,0,1,135.58,92c-.5.17-.66.35-.66.88q0,19.86,0,39.73a9.38,9.38,0,0,1-9.49,9.49q-40.82,0-81.63,0a9.44,9.44,0,0,1-9.46-9.47q0-19.87,0-39.74a.74.74,0,0,0-.64-.86,12.88,12.88,0,0,1-9-11.33A6,6,0,0,1,25,78.6q4.61-16.2,9.26-32.39a4.34,4.34,0,0,0,.16-1.13q0-7.76,0-15.49c0-1.85.68-2.53,2.51-2.53ZM72.54,86.73a14.17,14.17,0,0,1-24.2-.13h-.08a12.72,12.72,0,0,1-9.33,5.57c-.49,0-.53.28-.53.68q0,19.85,0,39.71a4.57,4.57,0,0,0,.54,2.23,5.44,5.44,0,0,0,5.27,2.9q26,0,52,0c.69,0,.85-.18.85-.85q0-17.58,0-35.16c0-1.92.71-2.63,2.61-2.63h16c.85,0,1.7,0,2.55,0a2.05,2.05,0,0,1,2.23,2.24V103q0,17,0,34c0,.53.08.73.68.71,1.44,0,2.89,0,4.34,0a5.48,5.48,0,0,0,5.42-5.47c0-13.13,0-26.26,0-39.39,0-.62-.33-.63-.72-.66a12.41,12.41,0,0,1-4.41-1.34A13,13,0,0,1,121,86.53a14.23,14.23,0,0,1-24.28.23A14.21,14.21,0,0,1,72.54,86.73ZM84.68,30.92q-22.74,0-45.49,0c-.68,0-.8.19-.79.82,0,3.7,0,7.39,0,11.09,0,.71.12.95.91.94q17.84,0,35.67,0,27.59,0,55.16,0c.62,0,.79-.15.78-.78,0-3.72,0-7.45,0-11.17,0-.71-.15-.9-.88-.9Q107.35,30.93,84.68,30.92Zm31.71,89.61c0-5.52,0-11,0-16.56,0-.59-.16-.73-.74-.73q-6.9,0-13.79,0c-.54,0-.78.07-.77.71q0,16.6,0,33.2c0,.58.17.7.71.7q6.95,0,13.87,0c.62,0,.72-.2.71-.75C116.38,131.58,116.39,126.06,116.39,120.53ZM84.66,75.11c3,0,6.09,0,9.14,0,.52,0,.75-.05.69-.67-.2-2.12-.33-4.24-.5-6.35q-.49-6.42-1-12.84c-.18-2.32-.37-4.63-.53-6.95,0-.39-.14-.55-.57-.55q-7.27,0-14.54,0c-.38,0-.52.09-.55.49-.17,2.49-.38,5-.57,7.47C75.76,62,75.31,68.18,74.8,74.4c0,.67.17.72.71.72C78.56,75.1,81.61,75.11,84.66,75.11Zm23.75,0c3,0,6.09,0,9.14,0,.66,0,.72-.2.58-.76q-1.18-5.06-2.34-10.11-1.83-7.92-3.65-15.86c-.1-.45-.26-.67-.78-.63-.79.05-1.59,0-2.39,0H97.13c-.32,0-.7-.15-.65.48.23,2.56.4,5.12.6,7.68.48,6.15,1,12.29,1.43,18.44,0,.64.25.75.83.74C102.37,75.09,105.39,75.11,108.41,75.11Zm-47.6,0c3,0,6.1,0,9.14,0,.56,0,.8-.12.83-.71.14-2.22.31-4.44.48-6.65.28-3.58.57-7.17.84-10.75.23-2.86.43-5.73.67-8.59,0-.53-.12-.66-.64-.66q-7.12,0-14.24,0c-.47,0-.64.13-.74.59q-3,13.08-6,26.13c-.15.62.06.64.55.64C54.71,75.1,57.76,75.11,60.81,75.11Zm-22.35,0c2.6,0,5.2,0,7.8,0,.41,0,.61-.1.71-.54q3-13.11,6-26.19c.12-.5.08-.63-.46-.63q-7,0-14,0a.69.69,0,0,0-.81.62Q34,61.45,30.26,74.49c-.16.56,0,.63.49.63C33.32,75.1,35.89,75.11,38.46,75.11ZM139.12,75a1.49,1.49,0,0,0,0-.21q-3.79-13.27-7.57-26.55c-.13-.43-.34-.51-.75-.51-4.64,0-9.29,0-13.93,0-.61,0-.71.16-.58.71q3,12.95,6,25.9c.12.52.3.76.92.76,5.09,0,10.19,0,15.28,0A1.2,1.2,0,0,0,139.12,75Zm-78.65,4.1c-2.54,0-5.09,0-7.63,0-.79,0-1.94-.36-2.28.15s0,1.68.16,2.54a10,10,0,0,0,19.82-2c0-.6-.17-.69-.7-.69C66.72,79.15,63.6,79.13,60.47,79.13Zm48.3,0c-3.12,0-6.24,0-9.36,0-.62,0-.76.19-.7.75a19.24,19.24,0,0,0,.28,2,10,10,0,0,0,19.82-2c0-.64-.2-.72-.75-.72C115,79.15,111.87,79.13,108.77,79.13Zm-24.16,0c-3.12,0-6.24,0-9.36,0-.58,0-.74.15-.67.71s.13,1.34.27,2a10,10,0,0,0,19.82-2c0-.59-.17-.68-.7-.68C90.85,79.15,87.73,79.13,84.61,79.13Zm55-.07c-2.47,0-4.95,0-7.42,0-2.88,0-5.76,0-8.63,0-.66,0-.76.2-.74.79a8.84,8.84,0,0,0,12.61,7.61,8.63,8.63,0,0,0,5-7.26C140.61,79.3,140.41,79.08,139.64,79.06Zm-102,0H29.3a.52.52,0,0,0-.53.52c0,7.11,8.44,12,15.82,6.11a4.58,4.58,0,0,0,1.71-3.57c0-2.53.49-3.09-.57-3.08C43,79.08,40.34,79.06,37.64,79.06Z" transform="translate(-1.37 152.12)"/><path class="cls-8" d="M70.1,125.06H51.22a2.39,2.39,0,0,1-2.39-2.39v-21a2.38,2.38,0,0,1,2.39-2.38q18.91,0,37.84,0a2.43,2.43,0,0,1,2.43,2.43v20.89a2.42,2.42,0,0,1-2.42,2.43Zm.05-4.13c5.52,0,11,0,16.57,0,.56,0,.74-.11.74-.72,0-5.4,0-10.79,0-16.19,0-.6-.12-.79-.76-.79q-16.53,0-33.06,0c-.6,0-.8.14-.79.77q0,8.1,0,16.19c0,.59.15.74.74.74C59.11,120.92,64.63,120.93,70.15,120.93Z" transform="translate(-1.37 152.12)"/><path class="cls-9" d="M49.1,37c-.25,2-1.39,3.29-3.48,3.22A3.08,3.08,0,0,1,42.44,37a3.09,3.09,0,0,1,3.31-3.38C47.84,33.58,48.93,34.88,49.1,37Z" transform="translate(-1.37 152.12)"/><path class="cls-9" d="M60.32,36.74c-.13,2.15-1.23,3.45-3.3,3.47a3.1,3.1,0,0,1-3.36-3.34,3.08,3.08,0,0,1,3.14-3.28C58.9,33.49,60,34.73,60.32,36.74Z" transform="translate(-1.37 152.12)"/><path class="cls-9" d="M71.54,37c-.23,2.06-1.36,3.31-3.45,3.25A3.08,3.08,0,0,1,64.88,37a3.1,3.1,0,0,1,3.3-3.4C70.27,33.57,71.36,34.86,71.54,37Z" transform="translate(-1.37 152.12)"/></svg>