<svg xmlns="http://www.w3.org/2000/svg" viewBox="0 0 171.59 226.41"><defs><style>.cls-1,.cls-3{fill:#e52722;}.cls-1,.cls-2{stroke:#e52722;stroke-miterlimit:10;}.cls-1{stroke-width:5px;}.cls-2{fill:#fff;stroke-width:4px;}.cls-4{fill:#b4cfe2;}.cls-5{fill:#ef8884;}.cls-6{fill:#f7f7fb;}.cls-7{fill:#dedde1;}.cls-8{fill:#fefefe;}.cls-9{fill:#ed8885;}.cls-10{fill:#ec8784;}.cls-11{fill:#fbf9f9;}</style></defs><title>store_d</title><g id="Capa_2" data-name="Capa 2"><g id="Capa_1-2" data-name="Capa 1"><path class="cls-1" d="M93.59,2.5c2.33.88,4.84.8,7.25,1.24a82,82,0,0,1,42.23,21.5A80.27,80.27,0,0,1,167.93,72c3.7,23.41-1.46,44.89-15.72,64q-32.43,43.4-65,86.73c-1.23,1.64-1.68,1.62-2.9,0C62.25,193.1,40,163.67,18,134,6,117.72,1.24,99.1,2.78,79a80.72,80.72,0,0,1,24-52.16A81.44,81.44,0,0,1,73.29,3.32c1.27-.2,2.69.05,3.84-.82ZM85.78,30.36A55.35,55.35,0,0,0,30.45,85.9c0,29.84,24.86,54.85,54.27,55.14A55.35,55.35,0,1,0,85.78,30.36Z"/><circle class="cls-2" cx="85.44" cy="85.43" r="83.05"/><path class="cls-3" d="M85.78,29.83h35.06c9.21,0,15.82,6.06,15.18,15.21-.59,8.41,1.34,15.44,7.33,21.24,5.27,5.09,3.73,11.43,3.08,17.35-.45,4.07-4,6.31-8,6.63-2.24.18-2.24,1.09-2.23,2.75q.08,16,0,32c0,10.14-5.87,16-16,16H50.88c-9.67,0-15.72-6.06-15.73-15.75,0-10.76,0-21.51,0-32.26,0-1.68,0-2.53-2.25-2.65C27.81,90,24.74,86.09,24.27,81c-.61-6.67.57-12.56,5.56-17.34,4.65-4.46,6.15-9.93,5.35-16.24a17.35,17.35,0,0,1,.68-7.49A14.49,14.49,0,0,1,49.59,29.85C61.65,29.8,73.72,29.83,85.78,29.83ZM121,60.11a29.88,29.88,0,0,0-7.5,0l-13.38,0a25.63,25.63,0,0,0-7.16,0H78.23a25.49,25.49,0,0,0-7.14,0l-12.28,0a30.12,30.12,0,0,0-7.47,0c-2.88,0-5.77,0-8.65-.13a2.92,2.92,0,0,0-2.78,1.43c-1.27,1.84-2.65,3.6-4,5.41-.36.5-1.07,1-.78,1.67s1.14.44,1.76.44c3.44,0,6.89,0,10.33-.06a36.52,36.52,0,0,0,7.39-.14,109.11,109.11,0,0,0,14.69,0,23.41,23.41,0,0,0,7.09-.06,135.53,135.53,0,0,0,18.36,0,22.42,22.42,0,0,0,7.08.08,129.65,129.65,0,0,0,15.77,0,35.11,35.11,0,0,0,7.39.11l9.51.09c1.26,0,2.05-.08,1.08-1.69-4.21-7-4.62-7.3-12.71-7.24C122.26,60,121.61,60.08,121,60.11ZM51.9,101.66c0-.37.09-.74.09-1.11.08-5,.75-5.63,5.68-5.63,5.42,0,10.83,0,16.24,0,6,0,7.37-.73,7.36,6.77l0,31.94c-.11.39.06.52.43.47,13.33,0,26.67.12,40,.06a7.48,7.48,0,0,0,7.69-7.6c.08-8.29,0-16.6,0-24.9-.11-4.88.82-9.82-.68-14.64.22-2.54,1.69-3.55,4.14-3.51a31.8,31.8,0,0,0,4.47-.22c2.89-.33,2.93-.73,2.87-5.65,0-2.65-1.77-1.89-3.07-1.89q-50.76,0-101.52,0c-5.05,0-4.28-1-4.44,4.42-.06,2.07.62,3.19,2.83,3.17,1.49,0,3,.21,4.47.18,2.46,0,3.92,1,4.14,3.51-1.27,4.85-.48,9.77-.55,14.66,0,8.22-.17,16.43,0,24.64.08,4.82,3.72,8,8.37,7.92,1.38,0,1.71-.47,1.7-1.77C51.94,122.2,51.93,111.93,51.9,101.66Zm34-48.41c11.69,0,23.37,0,35.06,0,2.77,0,6.56,1.26,8-.59s.5-5.36.44-8.16c-.1-4.72-3.26-7.88-8-7.88q-35.62-.06-71.24,0c-4.86,0-8,3.18-8.24,8.05-.07,2,.14,3.94-.06,5.88-.23,2.27.63,2.81,2.81,2.79C58.39,53.2,72.14,53.25,85.88,53.25ZM74.44,118c0-4.85,0-9.7,0-14.54,0-1.29-.3-1.81-1.69-1.78-4.11.08-8.21.1-12.31,0-1.63,0-1.77.71-1.76,2,0,9.51,0,19,0,28.53,0,1.56.38,2.11,2,2.07,3.91-.12,7.83-.11,11.75,0,1.57.05,2.06-.41,2-2C74.38,127.47,74.44,122.71,74.44,118Z"/><path class="cls-4" d="M85.88,53.25c-13.74,0-27.49,0-41.23,0-2.18,0-3-.52-2.81-2.79.2-1.94,0-3.92.06-5.88.2-4.87,3.38-8,8.24-8.05q35.63,0,71.24,0c4.76,0,7.92,3.16,8,7.88.06,2.8.95,6.42-.44,8.16s-5.25.58-8,.59C109.25,53.29,97.57,53.25,85.88,53.25ZM53.13,45.63c-.17-2.11-1.26-3.41-3.35-3.4a3.32,3.32,0,0,0-.12,6.63C51.75,48.92,52.88,47.68,53.13,45.63Zm11.22-.25c-.28-2-1.42-3.25-3.51-3.15a3.32,3.32,0,0,0,.21,6.63C63.13,48.83,64.22,47.53,64.35,45.38Zm11.22.22c-.18-2.09-1.27-3.39-3.36-3.37a3.32,3.32,0,0,0-.09,6.63C74.21,48.91,75.34,47.66,75.57,45.6Z"/><path class="cls-5" d="M42.54,87c-.22-2.54-1.68-3.55-4.14-3.51-1.49,0-3-.2-4.47-.18-2.21,0-2.89-1.1-2.83-3.17.16-5.42-.61-4.41,4.44-4.42q50.76,0,101.52,0c1.3,0,3-.76,3.07,1.89.06,4.92,0,5.32-2.87,5.65a31.8,31.8,0,0,1-4.47.22c-2.45,0-3.92,1-4.14,3.51h-7c-.23-2.51-1.66-3.55-4.11-3.51-3.35.06-6.71.06-10.06,0-2.45,0-3.89,1-4.1,3.51H94.73c-.22-2.51-1.66-3.55-4.11-3.51q-5,.09-10.05,0c-2.45,0-3.89,1-4.11,3.51H67.8c-.22-2.51-1.66-3.55-4.11-3.51q-5,.09-10,0c-2.46,0-3.89,1-4.11,3.51Z"/><path class="cls-6" d="M81.25,133.63l0-31.94,6.54,0c0,6,0,12,.11,17.92,0,3.42,1.12,4.51,4.53,4.52q13.44,0,26.88,0c3.46,0,4.46-1,4.48-4.51,0-6,.07-11.94.11-17.91l5.41,0c0,8.3.13,16.61,0,24.9a7.48,7.48,0,0,1-7.69,7.6c-13.34.06-26.68,0-40-.06Z"/><path class="cls-7" d="M87.81,101.66l-6.54,0c0-7.5-1.39-6.79-7.36-6.77-5.41,0-10.82,0-16.24,0-4.93,0-5.6.67-5.68,5.63,0,.37-.06.74-.09,1.11l-9.91,0c.07-4.89-.72-9.81.55-14.66h7c.39,2.34,1.92,3.24,4.13,3.24h10c2.22,0,3.73-.91,4.14-3.24h8.66c.4,2.34,1.92,3.24,4.14,3.24h10c2.22,0,3.74-.91,4.14-3.24h8.67c.39,2.34,1.91,3.24,4.13,3.24h10c2.22,0,3.73-.91,4.14-3.24h7c1.5,4.82.57,9.76.68,14.64l-5.41,0c0-.93-.07-1.86-.11-2.79-.1-2.8-1.14-3.94-3.9-4q-14-.06-28,0c-2.73,0-3.86,1.21-4,3.93C87.87,99.8,87.84,100.73,87.81,101.66Z"/><path class="cls-8" d="M74.44,118c0,4.76-.06,9.52,0,14.27,0,1.6-.46,2.06-2,2-3.92-.1-7.84-.11-11.75,0-1.63,0-2-.51-2-2.07.07-9.51.06-19,0-28.53,0-1.31.13-2.06,1.76-2,4.1.11,8.2.09,12.31,0,1.39,0,1.71.49,1.69,1.78C74.41,108.25,74.44,113.1,74.44,118Z"/><path class="cls-6" d="M42,101.68l9.91,0c0,10.27,0,20.54.12,30.81,0,1.3-.32,1.75-1.7,1.77-4.65.06-8.29-3.1-8.37-7.92C41.82,118.11,42,109.9,42,101.68Z"/><path class="cls-9" d="M94.79,68.68a135.38,135.38,0,0,1-18.35,0q.89-4.29,1.79-8.58H92.92C93.55,63,94.17,65.82,94.79,68.68Z"/><path class="cls-9" d="M117.64,68.74a131.7,131.7,0,0,1-15.77,0q-.9-4.32-1.79-8.64l13.39,0Z"/><path class="cls-9" d="M58.81,60.1l12.28,0c-.58,2.88-1.17,5.76-1.75,8.64a109.11,109.11,0,0,1-14.69,0Z"/><path class="cls-10" d="M47.26,68.87c-3.44,0-6.89.06-10.33.06-.62,0-1.45.29-1.76-.44s.42-1.17.78-1.67c1.31-1.81,2.69-3.57,4-5.41A2.92,2.92,0,0,1,42.69,60c2.88.11,5.77.1,8.65.13C50.11,63.09,48.21,65.76,47.26,68.87Z"/><path class="cls-10" d="M121,60.11c.65,0,1.3-.09,2-.1,8.09-.06,8.5.22,12.71,7.24,1,1.61.18,1.71-1.08,1.69L125,68.85Q123,64.49,121,60.11Z"/><path class="cls-11" d="M47.26,68.87c1-3.11,2.85-5.78,4.08-8.76a30.12,30.12,0,0,1,7.47,0l-4.16,8.63A36.52,36.52,0,0,1,47.26,68.87Z"/><path class="cls-11" d="M121,60.11q2,4.38,4.07,8.74a35.11,35.11,0,0,1-7.39-.11l-4.17-8.64A29.8,29.8,0,0,1,121,60.11Z"/><path class="cls-11" d="M100.08,60.13q.89,4.32,1.79,8.64a22.72,22.72,0,0,1-7.08-.09c-.62-2.86-1.24-5.71-1.87-8.57A25.63,25.63,0,0,1,100.08,60.13Z"/><path class="cls-11" d="M69.34,68.76c.58-2.88,1.17-5.76,1.75-8.64a25.49,25.49,0,0,1,7.14,0q-.9,4.29-1.79,8.58A23.48,23.48,0,0,1,69.34,68.76Z"/><path class="cls-7" d="M81.25,133.63l.43.47C81.31,134.15,81.14,134,81.25,133.63Z"/><path class="cls-3" d="M53.13,45.63c-.25,2-1.38,3.29-3.47,3.23a3.32,3.32,0,0,1,.12-6.63C51.87,42.22,53,43.52,53.13,45.63Z"/><path class="cls-3" d="M64.35,45.38c-.13,2.15-1.22,3.45-3.3,3.48a3.32,3.32,0,0,1-.21-6.63C62.93,42.13,64.07,43.37,64.35,45.38Z"/><path class="cls-3" d="M75.57,45.6c-.23,2.06-1.36,3.31-3.45,3.26a3.32,3.32,0,0,1,.09-6.63C74.3,42.21,75.39,43.51,75.57,45.6Z"/><path class="cls-3" d="M67.8,87c-.41,2.33-1.92,3.24-4.14,3.24h-10c-2.21,0-3.74-.9-4.13-3.24.22-2.52,1.65-3.54,4.11-3.51q5,.09,10,0C66.14,83.47,67.58,84.51,67.8,87Z"/><path class="cls-3" d="M94.73,87c-.4,2.33-1.92,3.24-4.14,3.24h-10c-2.22,0-3.74-.9-4.14-3.24.22-2.52,1.66-3.54,4.11-3.51q5,.09,10.05,0C93.07,83.47,94.51,84.51,94.73,87Z"/><path class="cls-3" d="M121.67,87c-.41,2.33-1.92,3.24-4.14,3.24h-10c-2.22,0-3.74-.9-4.13-3.24.21-2.52,1.65-3.54,4.1-3.51,3.35.06,6.71.06,10.06,0C120,83.47,121.44,84.51,121.67,87Z"/><path class="cls-3" d="M87.81,101.66c0-.93.06-1.86.1-2.79.14-2.72,1.27-3.92,4-3.93q14-.06,28,0c2.76,0,3.8,1.15,3.9,4,0,.93.07,1.86.11,2.79,0,6-.06,11.94-.11,17.91,0,3.48-1,4.5-4.48,4.51q-13.44,0-26.88,0c-3.41,0-4.5-1.1-4.53-4.52C87.86,113.61,87.84,107.64,87.81,101.66Zm18.08,0c-3.17,0-6.34,0-9.5,0-1.3,0-1.81.33-1.78,1.72q.12,6.15,0,12.3c0,1.34.41,1.75,1.75,1.74q9.49-.08,19,0c1.31,0,1.78-.35,1.75-1.71q-.12-6.15,0-12.3c0-1.32-.36-1.79-1.72-1.75C112.23,101.72,109.06,101.66,105.89,101.66Z"/></g></g></svg>