<svg xmlns="http://www.w3.org/2000/svg" viewBox="0 0 22.23 29.23"><defs><style>.cls-1{fill:#e52421;}.cls-2{fill:#fff;stroke:#e52722;stroke-miterlimit:10;stroke-width:0.5px;}</style></defs><title>subway_d_1</title><g id="Capa_2" data-name="Capa 2"><g id="Capa_1-2" data-name="Capa 1"><path class="cls-1" d="M12.18.27a6.28,6.28,0,0,0,1,.16,10.73,10.73,0,0,1,5.53,2.81,10.54,10.54,0,0,1,3.25,6.12,10.67,10.67,0,0,1-2.06,8.36q-4.25,5.69-8.5,11.35c-.16.22-.22.21-.38,0-2.89-3.87-5.8-7.72-8.67-11.6a10.4,10.4,0,0,1-2-7.19A10.61,10.61,0,0,1,3.44,3.46,10.69,10.69,0,0,1,9.53.37a1,1,0,0,0,.5-.1Zm-1,3.64a7.24,7.24,0,1,0,7.24,7.38A7.24,7.24,0,0,0,11.16,3.91Z"/><circle class="cls-2" cx="11.12" cy="11.12" r="10.87"/><path class="cls-1" d="M15.22,8.62a.41.41,0,0,0,0,.22,2.17,2.17,0,0,0,0,.51.41.41,0,0,0,0,.22,3.43,3.43,0,0,1-.06.56l-.08.29a2,2,0,0,1-.92.9l-.26.09-.58,0H8.72l-.51,0-.07,0-.44-.18-.11-.07-.29-.26a.25.25,0,0,0-.08-.1L7,10.43s0-.07,0-.09l-.09-.4,0-.22V8.25A1.74,1.74,0,0,1,8.32,6.81a.55.55,0,0,0,.22,0,3.37,3.37,0,0,0,.55,0,.37.37,0,0,0,.18,0,2.1,2.1,0,0,0,.56,0h0a.16.16,0,0,0,.15,0,2,2,0,0,0,.55,0h0a.14.14,0,0,0,.14,0h.11a1,1,0,0,0,.45,0h0a.16.16,0,0,0,.15,0,3.37,3.37,0,0,0,.55,0,.37.37,0,0,0,.18,0,3.49,3.49,0,0,0,.56,0,.37.37,0,0,0,.18,0,3.37,3.37,0,0,0,.55,0l.17,0a2.26,2.26,0,0,1,.45.1l.11,0,.33.2.11.1.25.29,0,0,.17.37.06.18ZM8.83,7.75H8.72a.77.77,0,0,0-.89.9.25.25,0,0,0,0,.19,2.52,2.52,0,0,0,0,.55.41.41,0,0,0,0,.22.68.68,0,0,0,.11.52.15.15,0,0,0,.08.11.58.58,0,0,0,.34.21.18.18,0,0,0,.14,0h5a.71.71,0,0,0,.77-.61h0v0a.13.13,0,0,0,0-.12,3.37,3.37,0,0,0,0-.55.31.31,0,0,0,0-.19,2,2,0,0,0,0-.54V8.28a.58.58,0,0,0-.28-.37.12.12,0,0,0-.11-.07.29.29,0,0,0-.18-.07h0a.61.61,0,0,0-.3,0h-.19a2.53,2.53,0,0,0-.55,0H12.4a2.53,2.53,0,0,0-.55,0,.31.31,0,0,0-.19,0,2.17,2.17,0,0,0-.51,0,.59.59,0,0,0-.23,0,4.87,4.87,0,0,0-.54,0,.31.31,0,0,0-.19,0,2.53,2.53,0,0,0-.55,0,.37.37,0,0,0-.18,0,3.35,3.35,0,0,0-.55,0Z"/><path class="cls-1" d="M14.34,14.09l-.22,0a1.8,1.8,0,0,1-.39-.08l-.16-.11-.19-.25-.05-.12a1,1,0,0,1,0-.58,1.12,1.12,0,0,1,.35-.37,1.15,1.15,0,0,1,.58-.06l.1,0a1.5,1.5,0,0,1,.34.27.05.05,0,0,0,0,.06,1.1,1.1,0,0,1,.11.44.78.78,0,0,0,0,.21A.93.93,0,0,1,14.34,14.09Z"/><path class="cls-1" d="M7.36,13.83l-.1-.15a2.57,2.57,0,0,1-.08-.4l.05-.21a.94.94,0,0,1,.47-.49l.22,0a1.15,1.15,0,0,1,.44.09l.11.07a1.23,1.23,0,0,1,.24.31l0,.09a.79.79,0,0,1-.42,1,1,1,0,0,1-.59,0,.14.14,0,0,0-.11,0Z"/><path class="cls-1" d="M4.74,9.65a5.87,5.87,0,0,0,0-.59.81.81,0,0,0,0-.22,3.82,3.82,0,0,0,0-.59V8.07a2.31,2.31,0,0,0,0-.59.33.33,0,0,0,0-.22l0-.56V6.49l.15-.7.1-.29A4.31,4.31,0,0,1,6.48,3.77a5,5,0,0,1,1.11-.66l.3-.1.7-.15h4.59l.51,0a.25.25,0,0,0,.15,0l.44.11a.25.25,0,0,0,.14.06l.33.13a.37.37,0,0,0,.15.08l.33.18.15.11.25.19.16.13.24.24.07.07.27.33a.19.19,0,0,0,.07.11l.21.33.08.16.15.32.07.2.11.38s0,.11,0,.15l.06.47a.58.58,0,0,0,0,.19l0,.48a.28.28,0,0,0,0,.18,3,3,0,0,0,0,.52l0,.18a1.75,1.75,0,0,0,0,.51v.19l0,.51v.18l0,.48a.28.28,0,0,0,0,.18,2.24,2.24,0,0,0,0,.52V11a1.8,1.8,0,0,0,0,.52v.18l0,.51v.74l0,.22-.16.7-.11.29a4.31,4.31,0,0,1-1.45,1.77,4.63,4.63,0,0,1-1,.53l.36.39.1.11a1.5,1.5,0,0,0,.27.29l.06.08a1.93,1.93,0,0,0,.31.33.14.14,0,0,0,.08.1,2,2,0,0,0,.24.27.37.37,0,0,0,.12.13l.25.28a.24.24,0,0,0,.08.09l.25.31,0,.1a.48.48,0,0,1-.56.56l-.09,0a1.12,1.12,0,0,1-.28-.25.5.5,0,0,0-.14-.15l-.23-.25a.29.29,0,0,0-.1-.12l-.23-.25a.4.4,0,0,0-.14-.15c-.14-.14-.32,0-.48-.06H7.26a.3.3,0,0,0-.34.13l-.8.9a.68.68,0,0,1-.29.21.57.57,0,0,1-.44-.08l-.07-.07a.62.62,0,0,1-.08-.44,1,1,0,0,1,.18-.27L6,18l1.43-1.56L7,16.3s-.06,0-.09-.05L6.53,16a.09.09,0,0,0-.08,0l-.36-.26L6,15.64l-.24-.23-.13-.14L5.39,15l-.11-.15-.18-.29L5,14.46l-.17-.36A.25.25,0,0,0,4.81,14l-.14-.48,0-.07-.07-.48V12a2.88,2.88,0,0,0,0-.59.53.53,0,0,0,0-.22l0-.57v-.2a3.81,3.81,0,0,0,0-.59Zm8.73,7.6h.72l-.35-.36a.29.29,0,0,0-.1-.12.19.19,0,0,0-.22-.11,1.94,1.94,0,0,1-.34,0H8.77c-.11,0-.25-.07-.34,0s-.34.37-.52.57h5.56Zm-7-2.53a.94.94,0,0,0,.29.27.19.19,0,0,0,.11.09.91.91,0,0,0,.29.19.22.22,0,0,0,.15.08,1,1,0,0,0,.41.18s.09,0,.14.05a1.12,1.12,0,0,0,.44.09.21.21,0,0,0,.15,0,2.54,2.54,0,0,0,.55,0h4.59a2.19,2.19,0,0,0,.67-.11.77.77,0,0,0,.29-.1,3.12,3.12,0,0,0,1.86-1.85,1,1,0,0,0,.08-.29,1.64,1.64,0,0,0,.11-.66.37.37,0,0,0,0-.18,3,3,0,0,0,0-.52l0-.18a2.27,2.27,0,0,0,0-.52v-.18a2.92,2.92,0,0,0,0-.51v-.19l0-.51a.31.31,0,0,0,0-.19l0-.47,0-.19a1.75,1.75,0,0,0,0-.51V8.36a2.91,2.91,0,0,0,0-.51V7.67l0-.52V7a2,2,0,0,0-.05-.48c0-.06,0-.13,0-.18A1.5,1.5,0,0,0,16,5.84s0-.07,0-.09a1.22,1.22,0,0,0-.18-.36.19.19,0,0,0-.07-.12,1.77,1.77,0,0,0-.26-.35.18.18,0,0,0-.08-.09,1.29,1.29,0,0,0-.27-.25.26.26,0,0,0-.14-.11,1.06,1.06,0,0,0-.33-.22.19.19,0,0,0-.11-.07A1.17,1.17,0,0,0,14.14,4L14,4a1.58,1.58,0,0,0-.44-.11l-.18,0a2.18,2.18,0,0,0-.51,0,.31.31,0,0,0-.19,0,3.37,3.37,0,0,0-.55,0,.28.28,0,0,0-.18,0,3.37,3.37,0,0,0-.55,0,.31.31,0,0,0-.19,0,3.37,3.37,0,0,0-.55,0,.28.28,0,0,0-.18,0,3.37,3.37,0,0,0-.55,0,.31.31,0,0,0-.19,0,3.37,3.37,0,0,0-.55,0,.28.28,0,0,0-.18,0,1.86,1.86,0,0,0-.62.08A.71.71,0,0,0,8.11,4a1.09,1.09,0,0,0-.39.15A3.09,3.09,0,0,0,6.05,6,.48.48,0,0,0,6,6.27a1.69,1.69,0,0,0-.09.63l0,.22,0,.58v.19a2.83,2.83,0,0,0,0,.58l0,.23,0,.56v.21a3.76,3.76,0,0,0,0,.58v.19a1.08,1.08,0,0,0,0,.4v.19a.53.53,0,0,0,0,.22l0,.58v.19a2.31,2.31,0,0,0,0,.59.37.37,0,0,0,0,.18,1.47,1.47,0,0,0,0,.51l0,.15a1.4,1.4,0,0,0,.13.41.41.41,0,0,0,.08.19,1,1,0,0,0,.17.32l.1.15a1,1,0,0,0,.22.29A.23.23,0,0,0,6.42,14.72Z"/></g></g></svg>