<svg xmlns="http://www.w3.org/2000/svg" viewBox="0 0 38.9 51.37"><defs><style>.cls-1,.cls-3{fill:#f9b233;}.cls-1,.cls-2{stroke:#1d1d1b;stroke-miterlimit:10;}.cls-2{fill:#fff;stroke-width:0.5px;}</style></defs><title>subway_1</title><g id="Capa_2" data-name="Capa 2"><g id="Capa_1-2" data-name="Capa 1"><path class="cls-1" d="M21.22.5a9.18,9.18,0,0,0,1.65.28,18.72,18.72,0,0,1,9.61,4.89,18.31,18.31,0,0,1,5.66,10.64,18.62,18.62,0,0,1-3.58,14.55q-7.38,9.87-14.78,19.73c-.28.38-.38.37-.66,0C14.09,43.86,9,37.17,4,30.41A18.13,18.13,0,0,1,.56,17.91,18.35,18.35,0,0,1,6,6.05,18.44,18.44,0,0,1,16.61.69c.29,0,.61,0,.87-.19ZM19.45,6.84A12.59,12.59,0,1,0,32,19.66,12.59,12.59,0,0,0,19.45,6.84Z"/><circle class="cls-2" cx="19.37" cy="19.37" r="18.9"/><path class="cls-3" d="M26.5,15a.74.74,0,0,0,0,.39,4.41,4.41,0,0,0,0,.89.74.74,0,0,0,0,.39,7.61,7.61,0,0,1-.1,1l-.15.5a3.32,3.32,0,0,1-1.6,1.58l-.44.15-1,.07h-8l-.89-.06-.13,0-.76-.32-.19-.12L12.73,19a.3.3,0,0,0-.14-.17l-.37-.61c0-.06,0-.12-.06-.16l-.15-.7,0-.38V14.77l0-.39a3,3,0,0,1,2.5-2.5.71.71,0,0,0,.38,0,5.13,5.13,0,0,0,1,0,.5.5,0,0,0,.32,0,3.86,3.86,0,0,0,1,0h.06a.28.28,0,0,0,.25,0,3.86,3.86,0,0,0,1,0h.07a.28.28,0,0,0,.25,0h.19a2.21,2.21,0,0,0,.77,0h.07a.27.27,0,0,0,.25,0,5.13,5.13,0,0,0,1,0,.5.5,0,0,0,.32,0,4.4,4.4,0,0,0,1,0,.47.47,0,0,0,.31,0,4.4,4.4,0,0,0,1,0l.3,0a4.92,4.92,0,0,1,.78.18l.2.09.57.34.2.18.43.5.05.08.29.63.1.33Zm-11.1-1.5h-.19a1.33,1.33,0,0,0-1.55,1.56.42.42,0,0,0,0,.33,3.36,3.36,0,0,0,0,.95.65.65,0,0,0,0,.39,1.2,1.2,0,0,0,.19.9.27.27,0,0,0,.14.19.93.93,0,0,0,.58.37.34.34,0,0,0,.26.06h8.62a1.24,1.24,0,0,0,1.34-1.07s0,0,0,0,0,0,0,0a.2.2,0,0,0,0-.2,4.4,4.4,0,0,0,0-1,.5.5,0,0,0,0-.32,3.36,3.36,0,0,0,0-.95l0-.13,0-.14a1,1,0,0,0-.47-.65.26.26,0,0,0-.19-.12.58.58,0,0,0-.33-.12h-.05a1,1,0,0,0-.52,0h-.33a6,6,0,0,0-.95,0h-.33a5,5,0,0,0-.95,0,.69.69,0,0,0-.32,0,5.29,5.29,0,0,0-.89,0,.74.74,0,0,0-.39,0,6,6,0,0,0-.95,0,.74.74,0,0,0-.33,0,6,6,0,0,0-1,0,.62.62,0,0,0-.33,0,6,6,0,0,0-1,0Z"/><path class="cls-3" d="M25,24.54l-.38.07a2.57,2.57,0,0,1-.68-.14l-.28-.19-.33-.44-.09-.2a1.74,1.74,0,0,1,.07-1A2,2,0,0,1,23.9,22a1.66,1.66,0,0,1,1-.1l.17.05a2.22,2.22,0,0,1,.59.47s0,.08.07.09a2,2,0,0,1,.19.76,1,1,0,0,0-.06.38A1.67,1.67,0,0,1,25,24.54Z"/><path class="cls-3" d="M12.84,24.09l-.18-.27a2.64,2.64,0,0,1-.13-.68l.08-.38a1.7,1.7,0,0,1,.81-.84l.38-.07a2,2,0,0,1,.77.14l.19.13a2.55,2.55,0,0,1,.43.55l.06.16a1.91,1.91,0,0,1-.06,1,1.76,1.76,0,0,1-.68.7,1.73,1.73,0,0,1-1,.07.22.22,0,0,0-.18-.08Z"/><path class="cls-3" d="M8.28,16.82c.08-.34,0-.69.08-1a1,1,0,0,0,0-.38,6.9,6.9,0,0,0,.06-1v-.32a4.35,4.35,0,0,0,.08-1,.7.7,0,0,0,0-.38l.06-1v-.36l.26-1.22.18-.51a7.64,7.64,0,0,1,2.23-3,9.2,9.2,0,0,1,1.93-1.15l.51-.16L15,5l.32,0H23l.9.07a.33.33,0,0,0,.25.06l.77.19a.46.46,0,0,0,.25.1l.58.23a.5.5,0,0,0,.26.13l.56.32.27.19.43.32.27.24.43.41.11.12L28.5,8a.34.34,0,0,0,.13.18l.36.59.15.27.25.56.13.34.19.67a.58.58,0,0,0,.05.26l.1.82a.64.64,0,0,0,.05.33l0,.82a.5.5,0,0,0,0,.32A4.59,4.59,0,0,0,30,14l0,.31a3.31,3.31,0,0,0,.06.89v.32l.06.9,0,.32.05.83a.55.55,0,0,0,0,.31,4.59,4.59,0,0,0,.05.91l0,.31a3,3,0,0,0,.06.89v.32l.06.9V22.5l-.06.39-.28,1.21-.19.51a7.51,7.51,0,0,1-2.53,3.08,7.42,7.42,0,0,1-1.8.91l.62.68.18.2a2.79,2.79,0,0,0,.46.51l.11.13a3.71,3.71,0,0,0,.54.58.28.28,0,0,0,.13.17,2.67,2.67,0,0,0,.43.46.61.61,0,0,0,.21.24l.44.48a.25.25,0,0,0,.14.16l.43.55,0,.16a.83.83,0,0,1-1,1l-.17,0a2.85,2.85,0,0,1-.49-.43.85.85,0,0,0-.24-.26l-.39-.44a.44.44,0,0,0-.18-.2l-.39-.44a.81.81,0,0,0-.25-.27c-.25-.24-.56-.07-.83-.1H12.67a.56.56,0,0,0-.6.23c-.45.53-.93,1-1.39,1.56a1.33,1.33,0,0,1-.5.38,1.06,1.06,0,0,1-.76-.16l-.12-.11a1,1,0,0,1-.15-.76,1.68,1.68,0,0,1,.32-.48c.31-.34.61-.7.92-1.05l2.47-2.72-.64-.23c0-.07-.09-.07-.15-.08l-.68-.36c0-.06-.08-.07-.13-.09l-.63-.45-.2-.17L10,26.84l-.23-.24-.37-.46-.2-.26-.31-.5-.1-.2-.3-.63a.5.5,0,0,0-.11-.26l-.25-.82,0-.13L8,22.51l0-.33,0-.95v-.32a4.38,4.38,0,0,0,.07-1,.87.87,0,0,0,0-.39l.07-1v-.35a5.83,5.83,0,0,0,.07-1ZM23.46,30h1.25l-.6-.64a.41.41,0,0,0-.18-.19.32.32,0,0,0-.38-.2,4,4,0,0,1-.6,0H15.29c-.2,0-.44-.13-.58,0a12.42,12.42,0,0,0-.91,1h9.66ZM11.2,25.64a1.83,1.83,0,0,0,.5.46.37.37,0,0,0,.2.17,1.79,1.79,0,0,0,.51.33.44.44,0,0,0,.25.14,2,2,0,0,0,.71.3c.06.08.16.07.24.09a2.13,2.13,0,0,0,.78.16.48.48,0,0,0,.26.06,6.15,6.15,0,0,0,1,0h8a3.19,3.19,0,0,0,1.15-.19,1.23,1.23,0,0,0,.52-.17,5.41,5.41,0,0,0,3.23-3.22,1.43,1.43,0,0,0,.14-.5,3,3,0,0,0,.2-1.15.69.69,0,0,0,0-.32,4.42,4.42,0,0,0,0-.89l0-.32a3.41,3.41,0,0,0-.05-.9l0-.32a4.44,4.44,0,0,0-.06-.89v-.32l-.06-.89a.54.54,0,0,0,0-.33l0-.82,0-.32a3,3,0,0,0-.05-.9l0-.32a4.44,4.44,0,0,0-.06-.89v-.32l-.05-.89,0-.33a2.33,2.33,0,0,0-.09-.83.45.45,0,0,0-.06-.32,2.08,2.08,0,0,0-.25-.8c0-.06,0-.12-.06-.16a2.26,2.26,0,0,0-.32-.64.35.35,0,0,0-.12-.19,2.47,2.47,0,0,0-.45-.61.36.36,0,0,0-.14-.16A1.71,1.71,0,0,0,26.27,8a.6.6,0,0,0-.25-.2,2,2,0,0,0-.57-.39.36.36,0,0,0-.2-.11A2,2,0,0,0,24.62,7l-.26-.09a2.56,2.56,0,0,0-.77-.19l-.32-.06a4.42,4.42,0,0,0-.89,0,.69.69,0,0,0-.32,0,6.15,6.15,0,0,0-1,0,.69.69,0,0,0-.32,0,6.15,6.15,0,0,0-1,0,.69.69,0,0,0-.32,0,6,6,0,0,0-.95,0,.69.69,0,0,0-.32,0,6.15,6.15,0,0,0-1,0,.69.69,0,0,0-.32,0,6.15,6.15,0,0,0-1,0,.69.69,0,0,0-.32,0,3,3,0,0,0-1.08.14,1.16,1.16,0,0,0-.45.12,2.45,2.45,0,0,0-.68.26,5.4,5.4,0,0,0-2.9,3.32.77.77,0,0,0-.12.44A3.1,3.1,0,0,0,10.28,12l0,.38-.06,1v.32a4.43,4.43,0,0,0-.07,1l0,.38-.06,1,0,.37a7,7,0,0,0-.06,1l0,.32a2.11,2.11,0,0,0-.05.71v.13l0,.19a.82.82,0,0,0,0,.38l-.06,1v.32a3.9,3.9,0,0,0-.07,1,.58.58,0,0,0,0,.32,2.67,2.67,0,0,0,.08.89l.06.26a2.61,2.61,0,0,0,.22.72.78.78,0,0,0,.15.32,1.73,1.73,0,0,0,.28.56l.17.25a1.81,1.81,0,0,0,.4.51A.39.39,0,0,0,11.2,25.64Z"/></g></g></svg>