<svg xmlns="http://www.w3.org/2000/svg" viewBox="0 0 38.68 51.15"><defs><style>.cls-1{fill:#f9d052;}.cls-1,.cls-2{stroke:#1d1d1b;stroke-miterlimit:10;stroke-width:0.75px;}.cls-2{fill:#fff;}.cls-3{fill:#cecdcd;}.cls-4{fill:#f8d053;}.cls-5{fill:#686868;}.cls-6{fill:#0d566f;}.cls-7{fill:#9cd4d6;}.cls-8{fill:#7ac8ca;}.cls-9{fill:#12576e;}.cls-10{fill:#7ec9c8;}.cls-11{fill:#6d6c6b;}.cls-12{fill:#676767;}.cls-13{fill:#e6e5e5;}</style></defs><title>taxi</title><g id="Capa_2" data-name="Capa 2"><g id="Capa_1-2" data-name="Capa 1"><path class="cls-1" d="M21.13.4a10.25,10.25,0,0,0,1.64.29,18.57,18.57,0,0,1,9.61,4.89A18.23,18.23,0,0,1,38,16.21a18.57,18.57,0,0,1-3.58,14.55C29.54,37.35,24.6,43.91,19.68,50.5c-.28.37-.38.37-.66,0C14,43.77,8.92,37.07,3.93,30.32A18.13,18.13,0,0,1,.47,17.82,18.38,18.38,0,0,1,5.93,6,18.53,18.53,0,0,1,16.51.59c.29,0,.61,0,.87-.19ZM19.35,6.74A12.59,12.59,0,1,0,31.94,19.57,12.59,12.59,0,0,0,19.35,6.74Z"/><circle class="cls-2" cx="19.27" cy="19.27" r="18.9"/><path class="cls-3" d="M35,24a1,1,0,0,1-1.13.68c-.35,0-.7,0-1,0-.12,0-.23,0-.23-.16a6.29,6.29,0,0,0-.31-1.61h1.84a1,1,0,0,1,.87.67Z"/><path class="cls-4" d="M34.09,22.9H32.25a4.67,4.67,0,0,0-1.49-1.72,3.93,3.93,0,0,0-5.58,1.44c-.05.1-.08.22-.17.28H13.19a4,4,0,0,0-2.34-2.13A3.91,3.91,0,0,0,6.11,22.7a2.25,2.25,0,0,1-.12.21l-1.65,0c0-1.35,0-2.7,0-4.05a2.16,2.16,0,0,1,1.3-2.06,2.64,2.64,0,0,0,1.52-1.91,7.33,7.33,0,0,1,.92-2.49A4.93,4.93,0,0,1,12.21,10c1.6,0,3.21,0,4.82,0a1,1,0,0,0,.39,0c1.42,0,2.85,0,4.26,0a7.35,7.35,0,0,1,1.82.55,5.69,5.69,0,0,1,3,3.42c.23.67.46,1.34.67,2a.36.36,0,0,0,.38.3c1.69.11,3.37.23,5.05.37a2.35,2.35,0,0,1,2.12,2.86C34.48,20.66,34.29,21.78,34.09,22.9ZM19.71,19.33H18.35c0-.36,0-.73,0-1.1,0-.16-.06-.21-.21-.2h-.89c-.15,0-.22,0-.21.2,0,.37,0,.74,0,1.1H15.71c0-.35,0-.71,0-1.07,0-.16,0-.24-.21-.23h-.89c-.16,0-.22,0-.21.21s0,.59,0,.89,0,.22.21.21h1.1c0,.37,0,.73,0,1.1,0,.21.06.26.26.25h.82c.2,0,.28,0,.27-.25,0-.37,0-.73,0-1.1h1.29c0,.37,0,.73,0,1.1,0,.21.07.26.27.25h.82c.2,0,.27-.05.26-.25,0-.37,0-.73,0-1.1h1.1c.14,0,.21,0,.21-.18,0-.32,0-.63,0-.95,0-.16-.08-.18-.21-.18h-.89c-.18,0-.22.07-.21.23C19.71,18.62,19.7,19,19.71,19.33ZM9,14.53c-.16.53-.3,1.06-.46,1.59-.06.18,0,.19.16.19h1.84c.08,0,.17,0,.18-.12V12.12A3.42,3.42,0,0,0,9,14.53Zm15,1.76h1.47c-.22-.67-.43-1.33-.68-2a3.94,3.94,0,0,0-2.89-2.53,11,11,0,0,0-2.29-.09c-.08,0-.11.05-.1.13,0,1.42,0,2.84,0,4.26,0,.18.07.22.23.22Zm-7.82,0c.7,0,1.39,0,2.09,0,.25,0,.31-.08.31-.32q0-2,0-4c0-.23-.06-.29-.29-.29H12.13a.78.78,0,0,0-.42.09s0,.05,0,.07V16.1c0,.16.07.21.22.21ZM33.67,20c0-.35,0-.7,0-1.05,0-.15-.05-.19-.19-.17a1.24,1.24,0,0,0,0,2.44c.18,0,.23,0,.22-.21C33.66,20.68,33.67,20.34,33.67,20Z"/><path class="cls-5" d="M28.63,21.36a3.11,3.11,0,1,1,0,6.21,3.11,3.11,0,1,1,0-6.21Zm0,4.37a1.27,1.27,0,1,0-1.26-1.27A1.27,1.27,0,0,0,28.62,25.73Z"/><path class="cls-5" d="M9.59,21.36a3.11,3.11,0,1,1,0,6.21,3.11,3.11,0,1,1,0-6.21Zm1.27,3.09a1.27,1.27,0,1,0-1.25,1.28A1.24,1.24,0,0,0,10.86,24.45Z"/><path class="cls-3" d="M13.19,22.9H25a5.62,5.62,0,0,0-.27,1.63c0,.1-.06.14-.16.14H13.84c-.29,0-.37-.09-.35-.37A3.69,3.69,0,0,0,13.19,22.9Z"/><path class="cls-6" d="M21.68,10c-1.41-.08-2.84,0-4.26,0,0-.35,0-.7,0-1A.72.72,0,0,1,18,8.21c.93-.2,1.87-.39,2.82-.55a.72.72,0,0,1,.86.75C21.7,9,21.69,9.5,21.68,10Z"/><path class="cls-3" d="M4.34,22.89l1.65,0a4.49,4.49,0,0,0-.31,1.58c0,.15-.06.19-.2.19-.39,0-.78,0-1.17,0a.88.88,0,0,1-.84-.85C3.45,23.33,3.77,23,4.34,22.89Z"/><path class="cls-7" d="M11.71,11.79a.78.78,0,0,1,.42-.09H18.3c.23,0,.29.06.29.29q0,2,0,4c0,.24-.06.33-.31.32-.7,0-1.39,0-2.09,0l-.66-.68Q13.63,13.7,11.71,11.79Z"/><path class="cls-7" d="M19.52,11.83c0-.08,0-.13.1-.13a11,11,0,0,1,2.29.09,3.94,3.94,0,0,1,2.89,2.53c.25.64.46,1.3.68,2H24c-1.26-1.25-2.51-2.51-3.76-3.76Z"/><path class="cls-8" d="M11.71,11.79q1.92,1.91,3.82,3.83l.66.68h-4.3c-.15,0-.22,0-.22-.21V11.86S11.7,11.81,11.71,11.79Z"/><path class="cls-8" d="M19.52,11.83l.73.7C21.5,13.78,22.75,15,24,16.29l-4.27,0c-.16,0-.23,0-.23-.22C19.52,14.67,19.52,13.25,19.52,11.83Z"/><path class="cls-7" d="M9,14.53a3.42,3.42,0,0,1,1.72-2.41v4.07a3.22,3.22,0,0,1-.28-.24Z"/><path class="cls-9" d="M33.67,20c0,.33,0,.67,0,1,0,.17,0,.24-.22.21a1.24,1.24,0,0,1,0-2.44c.14,0,.2,0,.19.17C33.66,19.31,33.67,19.66,33.67,20Z"/><path class="cls-10" d="M9,14.53,10.45,16a3.22,3.22,0,0,0,.28.24c0,.13-.1.12-.18.12H8.71c-.14,0-.22,0-.16-.19C8.71,15.59,8.85,15.06,9,14.53Z"/><path class="cls-11" d="M17.06,19.33c0,.37,0,.73,0,1.1,0,.21-.07.26-.27.25H16c-.2,0-.27,0-.26-.25,0-.37,0-.73,0-1.1h1.35Z"/><path class="cls-11" d="M18.35,19.33H19.7c0,.37,0,.73,0,1.1,0,.2-.06.26-.26.25h-.82c-.2,0-.27,0-.27-.25,0-.37,0-.73,0-1.1Z"/><path class="cls-12" d="M15.71,19.33h-1.1c-.17,0-.21-.06-.21-.21s0-.59,0-.89,0-.22.21-.21h.89c.18,0,.22.07.21.23,0,.36,0,.72,0,1.07Z"/><path class="cls-12" d="M17.06,19.33c0-.36,0-.73,0-1.1,0-.16.06-.21.21-.2h.89c.15,0,.22,0,.21.2,0,.37,0,.74,0,1.1H17.06Z"/><path class="cls-12" d="M19.71,19.33c0-.35,0-.71,0-1.07,0-.16,0-.24.21-.23h.89c.13,0,.21,0,.21.18,0,.32,0,.63,0,.95,0,.15-.07.18-.21.18H19.71Z"/><path class="cls-13" d="M28.62,25.73a1.27,1.27,0,1,1,1.29-1.24A1.26,1.26,0,0,1,28.62,25.73Z"/><path class="cls-13" d="M10.86,24.45A1.27,1.27,0,1,1,9.59,23.2,1.25,1.25,0,0,1,10.86,24.45Z"/></g></g></svg>