<svg id="Capa_1" data-name="Capa 1" xmlns="http://www.w3.org/2000/svg" viewBox="0 0 259.87 343.24"><defs><style>.cls-1{fill:#e52421;}.cls-2{fill:#fff;stroke:#e52722;stroke-miterlimit:10;stroke-width:4px;}</style></defs><title>transport_d</title><path class="cls-1" d="M140.74.44c3.6,1.35,7.45,1.23,11.17,1.92A126.24,126.24,0,0,1,217,35.47c20.8,19.7,33.84,43.77,38.29,72C261,143.52,253,176.61,231.05,206q-50,66.86-100.09,133.6c-1.89,2.53-2.58,2.5-4.46,0C92.48,294,58.13,248.71,24.34,203,5.83,177.93-1.51,149.25.86,118.34c2.4-31.21,14.9-58.16,37-80.34A125.38,125.38,0,0,1,109.48,1.7c2-.3,4.15.08,5.91-1.26Zm-12,42.92a85.23,85.23,0,0,0-85.22,85.55c0,46,38.3,84.48,83.6,84.93,48.15.48,86-37.87,86.86-83.64C214.8,81.92,175.65,43.17,128.71,43.36Z" transform="translate(1.75 1.75)"/><circle class="cls-2" cx="129.94" cy="129.94" r="127.94"/><path class="cls-1" d="M88.55,152.77c-9.46,0-17.14,8.25-17.14,18.38s7.68,18.41,17.14,18.41,17.12-8.25,17.12-18.41S98,152.77,88.55,152.77Zm0,27.6c-4.73,0-8.58-4.14-8.58-9.22S83.82,162,88.55,162s8.56,4.14,8.56,9.19S93.26,180.37,88.55,180.37ZM73.8,152.78H35.43a2.85,2.85,0,0,0-2.75,2.95v9a2.85,2.85,0,0,0,2.75,3H66.18A24.82,24.82,0,0,1,73.8,152.78Zm104.31,0c-9.43,0-17.11,8.25-17.11,18.38s7.68,18.41,17.11,18.41,17.12-8.25,17.12-18.41S187.58,152.77,178.11,152.77Zm0,27.6c-4.73,0-8.55-4.14-8.55-9.22s3.82-9.19,8.55-9.19,8.56,4.14,8.56,9.19S182.85,180.37,178.11,180.37Zm44.63-27.6h-6.68V112.62a24.91,24.91,0,0,0-3.77-13.21L195.53,72.76a21.61,21.61,0,0,0-18.24-10.4h-26a5.72,5.72,0,0,0-5.5,5.91v84.5H103.3a24.85,24.85,0,0,1,7.6,14.89h44.87c1.57-11.73,11-20.8,22.34-20.8s20.78,9.07,22.37,20.8h22.26a2.85,2.85,0,0,0,2.75-2.95v-9A2.85,2.85,0,0,0,222.74,152.77Zm-27.4-48H161.05a2.85,2.85,0,0,1-2.75-3V81.36a2.87,2.87,0,0,1,2.75-3h20.89a2.67,2.67,0,0,1,2.25,1.24l13.4,20.45A3,3,0,0,1,195.34,104.73Zm-62.63,42.13H36.41a5.71,5.71,0,0,1-5.5-5.91V114.36a5.72,5.72,0,0,1,5.5-5.91h96.3a5.73,5.73,0,0,1,5.51,5.91V141A5.72,5.72,0,0,1,132.71,146.86ZM74.93,99.59H36.41a5.72,5.72,0,0,1-5.5-5.91V67.09a5.71,5.71,0,0,1,5.5-5.91H74.93a5.72,5.72,0,0,1,5.51,5.91V93.68A5.73,5.73,0,0,1,74.93,99.59Zm57.78,0H94.19a5.72,5.72,0,0,1-5.5-5.91V67.09a5.71,5.71,0,0,1,5.5-5.91h38.52a5.72,5.72,0,0,1,5.51,5.91V93.68A5.73,5.73,0,0,1,132.71,99.59Z" transform="translate(1.75 1.75)"/></svg>