<svg id="Capa_1" data-name="Capa 1" xmlns="http://www.w3.org/2000/svg" viewBox="0 0 170.11 223.53"><defs><style>.cls-1{fill:#030304;}.cls-2{fill:#fff;stroke:#1d1d1b;stroke-miterlimit:10;stroke-width:4px;}.cls-3{fill:#010101;}</style></defs><title>transport</title><path class="cls-1" d="M95,.87c2.33.88,4.83.8,7.25,1.25a81.91,81.91,0,0,1,42.23,21.5A80.25,80.25,0,0,1,169.3,70.35c3.7,23.41-1.46,44.89-15.72,64q-32.45,43.4-65,86.73c-1.22,1.65-1.67,1.63-2.89,0-22.09-29.58-44.39-59-66.32-88.69-12-16.26-16.78-34.88-15.24-55a80.71,80.71,0,0,1,24-52.15A81.45,81.45,0,0,1,74.66,1.69c1.27-.19,2.69.05,3.84-.82ZM87.14,28.74A55.34,55.34,0,0,0,31.82,84.27c0,29.84,24.86,54.85,54.27,55.14a55.34,55.34,0,1,0,1-110.67Z" transform="translate(-1.75 1.25)"/><circle class="cls-2" cx="85.05" cy="85.05" r="83.05"/><path class="cls-3" d="M62.48,98.75A11.36,11.36,0,1,0,73.83,110.1,11.36,11.36,0,0,0,62.48,98.75Zm0,17a5.69,5.69,0,1,1,5.67-5.69A5.71,5.71,0,0,1,62.48,115.79Zm-9.78-17H27.27a1.81,1.81,0,0,0-1.82,1.82v5.53a1.82,1.82,0,0,0,1.82,1.83H47.65A15,15,0,0,1,52.7,98.76Zm69.15,0a11.36,11.36,0,1,0,11.34,11.35A11.36,11.36,0,0,0,121.85,98.75Zm0,17a5.69,5.69,0,1,1,5.67-5.69A5.68,5.68,0,0,1,121.85,115.79Zm29.58-17H147V74a14.66,14.66,0,0,0-2.5-8.16L133.39,49.36a14.58,14.58,0,0,0-12.09-6.42H104.08a3.65,3.65,0,0,0-3.64,3.65V98.75H72.26a15,15,0,0,1,5,9.19H107a15,15,0,0,1,29.64,0h14.75a1.81,1.81,0,0,0,1.82-1.82v-5.54A1.82,1.82,0,0,0,151.43,98.75ZM133.27,69.1H110.54a1.82,1.82,0,0,1-1.82-1.83V54.67a1.83,1.83,0,0,1,1.82-1.82h13.84a1.83,1.83,0,0,1,1.5.76l8.88,12.62A1.82,1.82,0,0,1,133.27,69.1Zm-41.52,26H27.92a3.65,3.65,0,0,1-3.65-3.64V75a3.66,3.66,0,0,1,3.65-3.65H91.75A3.65,3.65,0,0,1,95.4,75V91.46A3.64,3.64,0,0,1,91.75,95.1ZM53.45,65.92H27.92a3.65,3.65,0,0,1-3.65-3.64V45.86a3.66,3.66,0,0,1,3.65-3.65H53.45a3.65,3.65,0,0,1,3.65,3.65V62.28A3.64,3.64,0,0,1,53.45,65.92Zm38.3,0H66.22a3.65,3.65,0,0,1-3.65-3.64V45.86a3.66,3.66,0,0,1,3.65-3.65H91.75a3.65,3.65,0,0,1,3.65,3.65V62.28A3.64,3.64,0,0,1,91.75,65.92Z" transform="translate(-1.75 1.25)"/></svg>