<svg xmlns="http://www.w3.org/2000/svg" viewBox="0 0 170.11 223.53"><defs><style>.cls-1{fill:#030304;}.cls-2{fill:#fff;stroke:#1d1d1b;stroke-miterlimit:10;stroke-width:4px;}</style></defs><title>vehicle</title><g id="Capa_2" data-name="Capa 2"><g id="Capa_1-2" data-name="Capa 1"><path class="cls-1" d="M93.21,2.12c2.33.88,4.83.8,7.25,1.25a81.91,81.91,0,0,1,42.23,21.5A80.25,80.25,0,0,1,167.55,71.6c3.7,23.41-1.46,44.89-15.72,64q-32.45,43.4-65,86.73c-1.22,1.65-1.67,1.63-2.89,0-22.09-29.58-44.39-59-66.32-88.69C5.62,117.35.86,98.73,2.4,78.66a80.71,80.71,0,0,1,24-52.15A81.45,81.45,0,0,1,72.91,2.94c1.27-.19,2.69.05,3.84-.82ZM85.39,30A55.34,55.34,0,0,0,30.07,85.52c0,29.84,24.86,54.85,54.27,55.14A55.34,55.34,0,1,0,85.39,30Z"/><circle class="cls-2" cx="85.05" cy="85.05" r="83.05"/><path class="cls-1" d="M40.84,57.77c1.57-3.16,3-6.37,4.73-9.45,1.88-3.43,3.91-6.78,7.41-8.82a11.09,11.09,0,0,1,3.65-1.38c2.76-.47,5.54-1,8.31-1.21,3.19-.3,6.4-.65,9.61-.73,7.37-.19,14.74-.3,22.1,0A149.61,149.61,0,0,1,112,37.82c3.31.5,6.25,1.4,8.62,3.88a31.44,31.44,0,0,1,5,7.37c2.89,5.53,5.27,11.32,8.36,16.75a19.88,19.88,0,0,0,2.58,3.36c1.31,1.46,2.4,3.1,3.61,4.64a11.09,11.09,0,0,1,2.05,5.93c.32,3,.42,5.92,1,8.83.34,1.65-.45,3.2-.46,4.84a42.41,42.41,0,0,1-1.08,9.12,5.11,5.11,0,0,1-4.21,3.87c-9.7,2.18-19.55,2.81-29.45,3.26-14.73.65-29.45.44-44.17.3a125.89,125.89,0,0,1-18.66-1.6c-3.07-.48-6.16-.81-9.2-1.39-2.55-.49-5.24-.82-6.64-3.64a7.63,7.63,0,0,1-.74-2.92c-.27-4.94-1.26-9.85-.67-14.83.36-3,.55-6.11,1.16-9.09.35-1.69,1.79-3,2.79-4.38,1.7-2.43,4-4.38,5.37-7.05,1.25-1.16,1.63-2.83,2.4-4.27C40.14,59.86,40.89,59,40.84,57.77Zm76.58-11.33h0c0-.44,0-.79-.58-.82h0a3.94,3.94,0,0,0-2.75-2.83h0a.64.64,0,0,0-.86-.54h0a1.89,1.89,0,0,0-2.23-.63l-1-.06c-1.35-1-2.86-.64-4.33-.55l-2.43-.09a1.78,1.78,0,0,0-1.39-.46c-3.41-.1-6.82-.29-10.24-.1l-1.91,0a1.8,1.8,0,0,0-1.51-.49c-1.93,0-3.85,0-5.78,0a2.72,2.72,0,0,0-1.81.49l-1.64,0c-3.41-.19-6.82,0-10.23.09a1.77,1.77,0,0,0-1.39.47L64.93,41c-1.47-.08-3-.41-4.33.54l-1,.07a1.89,1.89,0,0,0-2.24.62h0c-.43-.06-.77,0-.86.54a.43.43,0,0,0-.22.06A1.46,1.46,0,0,0,55,44a31.87,31.87,0,0,0-2.68,3.64c-2.43,4.14-4.37,8.54-6.61,12.78a1.45,1.45,0,0,0,.22,1.67,3.72,3.72,0,0,0,3.28,1.61c1-.07,1.92-.19,2.88-.28,6.53-.61,13.08-1,19.62-1.2,9.58-.32,19.17-.43,28.77.19,6.92.45,13.85.76,20.76,1.29a4.13,4.13,0,0,0,3.48-1.59,1.37,1.37,0,0,0,.25-1.65c-2.41-4.43-4.32-9.12-7-13.38C118,46.69,117.81,46.47,117.42,46.44Zm-32.14,58.4H106.4c1.67,0,1.94-.41,1.3-2-.09-.21-.18-.42-.25-.64-1.32-4.43-2.58-5.58-6.55-5.72-10.39-.35-20.79-.27-31.18,0-2.45.06-4.67.83-5.75,3.38a30,30,0,0,0-1,2.86c-.63,2-.61,2.14,1.44,2.14Zm9.15-30.67c3.4-.15,6.79-.37,10.18-.53,7.35-.35,14.66-1.08,22-1.55.56,0,1.27,0,1.37-.66s-.63-.68-1-.9a35,35,0,0,0-13.31-4.17,68.61,68.61,0,0,0-10.24-.78c-2.39,0-4.77-.25-7.16-.33a77.57,77.57,0,0,0-9.64.2c-.53,0-1.25.13-.84,1a13.09,13.09,0,0,1,1,6.39c-.06,1.08.32,1.38,1.33,1.35C90.2,74.13,92.32,74.17,94.43,74.17Zm20,16a46.57,46.57,0,0,0,6.14-.74c2.05-.32,4.14-.51,6.19-.81,3.11-.46,6.21-1,9.33-1.39.75-.1,1.77-.06,1.91-1a24,24,0,0,0,.58-3.41c0-1.48-.53-2.83-.58-4.27s-.49-1.49-1.81-1.24c-3.81.72-7.62,1.56-11.47,2-2.72.29-5.42.77-8.17.85-2.92.08-2.85.35-3.43,3.36-.31,1.57-.29,3.17-.67,4.7-.5,2-.56,2.06,1.43,2Zm-58.13,0c.15,0,.47,0,.79,0,1.34,0,1.66-.27,1.23-1.55-.57-1.7-.5-3.49-.89-5.23-.61-2.77-.52-3-3.24-3.28-3.49-.29-6.95-.77-10.42-1.21-3.1-.39-6.15-1-9.22-1.53-1.6-.27-1.84-.14-2,1.6-.1,1.38-.32,2.78-.43,4.13-.29,3.76-1,3.65,3,4.19,3.28.44,6.52,1.24,9.81,1.55C48.74,89.26,52.43,89.86,56.33,90.23Z"/><path class="cls-1" d="M36,123.29c-1.53-.23-3.43.4-5.26-.41a4.43,4.43,0,0,1-2.9-4.27c0-3.29,0-6.58,0-9.86,0-1.07.18-1.39,1.22-.67a14.65,14.65,0,0,0,6.12,2c2.83.46,5.64,1.12,8.52,1.3a1.18,1.18,0,0,1,1.2,1.37c0,2,.1,4,0,5.91a5,5,0,0,1-4.78,4.67C38.85,123.25,37.6,123.29,36,123.29Z"/><path class="cls-1" d="M142.76,113.86c0,1.55,0,3.09,0,4.64a4.77,4.77,0,0,1-4.69,4.79c-2.53,0-5.06,0-7.59,0a5.05,5.05,0,0,1-4.76-4.79c-.08-1.88,0-3.76,0-5.63a1.28,1.28,0,0,1,1.37-1.5,76.08,76.08,0,0,0,11-1.87,9.38,9.38,0,0,0,3.57-1.41c1-.72,1.12-.22,1.11.69C142.75,110.48,142.76,112.17,142.76,113.86Z"/><path class="cls-1" d="M37.14,57a18.66,18.66,0,0,1-.53,4.91c-.25,1.49-1.39,2.77-2.41,4-.54.62-.88-.35-.9-.48-.43-2.76-2.46-3.07-4.64-3.49A6.13,6.13,0,0,1,24,58.75c-1-2.09.51-5.53,2.76-5.68,2.05-.13,4.09-.42,6.14-.56C35.94,52.3,37.54,53.67,37.14,57Z"/><path class="cls-1" d="M138.16,52.53c1.57.26,3.66.37,5.75.52a3.27,3.27,0,0,1,2.89,2.6,4.22,4.22,0,0,1-1.06,4.5,7.4,7.4,0,0,1-3.88,1.76c-1,.15-1.84.5-2.77.7-1.2.25-1,1.63-1.54,2.41-.25.35-.18,1-.73,1s-.51-.57-.77-.87a8.14,8.14,0,0,1-2.18-6.58,11.29,11.29,0,0,0,0-2.25C133.63,53.69,134,52.53,138.16,52.53Z"/><path class="cls-1" d="M66.81,56.06,67.89,56c.55,0,1.1.07,1.64.07,6.3-.07,12.59-.55,18.89-.27,3.76.16,7.52.3,11.29.2l1.36.05c1.68,1,3.5.44,5.26.54l1.63.06c.89,1,2,.37,3.06.52a26.11,26.11,0,0,1,6.25,1.35,5.09,5.09,0,0,1,3.51,3.35,12.14,12.14,0,0,1-4.62-.12,27.63,27.63,0,0,0-2.83-.34c-7.94-.79-15.91-1.27-23.87-1.59a198.24,198.24,0,0,0-21,.09c-1.65.11-3.3.26-4.95.3-3.76.09-7.42,1-11.15,1.27-.54,0-1,.53-1.56.46-.36,0-.76,0-1-.35A1.11,1.11,0,0,1,50,60.42a6.06,6.06,0,0,1,4-2.51,47.79,47.79,0,0,1,7.62-1.31C63.31,56.5,65.13,57,66.81,56.06Z"/></g></g></svg>