<svg xmlns="http://www.w3.org/2000/svg" viewBox="0 0 259.87 343.24"><defs><style>.cls-1{fill:#e52421;}.cls-2{fill:#fff;stroke:#e52722;stroke-miterlimit:10;stroke-width:4px;}</style></defs><title>vehicle_d</title><g id="Capa_2" data-name="Capa 2"><g id="Capa_1-2" data-name="Capa 1"><path class="cls-1" d="M142.49,2.19c3.6,1.35,7.45,1.23,11.17,1.92a126.24,126.24,0,0,1,65.06,33.11c20.8,19.7,33.84,43.77,38.29,72,5.69,36.06-2.25,69.15-24.21,98.54q-50,66.86-100.09,133.6c-1.89,2.53-2.58,2.5-4.46,0-34-45.56-68.37-90.88-102.16-136.62C7.58,179.68.24,151,2.61,120.09c2.4-31.21,14.9-58.16,37-80.34a125.38,125.38,0,0,1,71.62-36.3c2-.3,4.15.08,5.91-1.26Zm-12,42.92a85.23,85.23,0,0,0-85.22,85.55c0,46,38.3,84.48,83.6,84.93,48.15.48,86-37.87,86.86-83.64C216.55,83.67,177.4,44.92,130.46,45.11Z"/><circle class="cls-2" cx="129.94" cy="129.94" r="127.94"/><path class="cls-1" d="M60,85.38c2.46-5,4.78-10,7.44-14.89,3-5.4,6.18-10.7,11.7-13.91a17.63,17.63,0,0,1,5.75-2.17c4.35-.75,8.73-1.51,13.1-1.92,5-.46,10.09-1,15.16-1.14,11.61-.3,23.23-.48,34.83.07a237.67,237.67,0,0,1,24.2,2.51c5.21.79,9.85,2.22,13.59,6.12a49.65,49.65,0,0,1,7.84,11.62c4.56,8.71,8.33,17.85,13.19,26.41a31.43,31.43,0,0,0,4.07,5.29c2.07,2.31,3.79,4.89,5.7,7.32,2.16,2.74,2.85,6,3.22,9.36.51,4.64.66,9.33,1.6,13.93.54,2.59-.72,5-.73,7.62A66.88,66.88,0,0,1,219,156c-.79,3.52-3.48,5.39-6.64,6.11-15.29,3.43-30.82,4.43-46.44,5.12-23.21,1-46.43.7-69.64.49a199.5,199.5,0,0,1-29.43-2.52c-4.83-.77-9.7-1.28-14.5-2.2-4-.77-8.26-1.29-10.47-5.74a12.2,12.2,0,0,1-1.16-4.6c-.43-7.79-2-15.54-1.06-23.38.57-4.79.87-9.63,1.84-14.34.54-2.66,2.81-4.66,4.39-6.9,2.67-3.83,6.28-6.91,8.47-11.11,2-1.83,2.57-4.48,3.78-6.75C58.88,88.68,60.06,87.26,60,85.38ZM180.73,67.53h0c0-.68-.08-1.24-.91-1.29h0a6.23,6.23,0,0,0-4.35-4.46h0c-.15-.77-.65-1-1.34-.85h0a3,3,0,0,0-3.51-1l-1.55-.1c-2.13-1.5-4.5-1-6.83-.86l-3.83-.15a2.77,2.77,0,0,0-2.19-.73c-5.37-.16-10.75-.46-16.13-.15l-3,0a2.84,2.84,0,0,0-2.38-.79h-9.11a4.25,4.25,0,0,0-2.86.79l-2.58,0c-5.38-.31-10.76,0-16.14.14a2.81,2.81,0,0,0-2.18.74L98,59c-2.32-.13-4.7-.64-6.83.85l-1.54.11a3,3,0,0,0-3.52,1h0c-.68-.11-1.22,0-1.36.85a.81.81,0,0,0-.34.08,2.3,2.3,0,0,0-2.12,1.81A48.3,48.3,0,0,0,78,69.38c-3.84,6.53-6.89,13.47-10.42,20.16A2.25,2.25,0,0,0,68,92.17a5.85,5.85,0,0,0,5.18,2.54c1.51-.11,3-.3,4.54-.45,10.29-1,20.62-1.55,30.93-1.89,15.1-.5,30.23-.67,45.36.31,10.91.7,21.84,1.19,32.74,2a6.47,6.47,0,0,0,5.47-2.51,2.17,2.17,0,0,0,.41-2.61c-3.81-7-6.82-14.37-11.08-21.09C181.57,67.91,181.34,67.57,180.73,67.53ZM130.06,159.6h33.29c2.64,0,3.06-.66,2.05-3.14a8.79,8.79,0,0,1-.39-1c-2.08-7-4.07-8.79-10.33-9-16.38-.56-32.77-.44-49.16,0-3.87.09-7.36,1.31-9.07,5.32-.62,1.44-1,3-1.52,4.51-1,3.15-1,3.37,2.27,3.37Zm14.42-48.36c5.36-.24,10.71-.58,16.06-.83,11.58-.55,23.1-1.71,34.66-2.44.89,0,2,0,2.17-1,.13-.8-1-1.08-1.61-1.42a55.25,55.25,0,0,0-21-6.58,109,109,0,0,0-16.16-1.23c-3.76.08-7.52-.4-11.28-.52a124.33,124.33,0,0,0-15.2.31c-.84.08-2,.21-1.34,1.56a20.46,20.46,0,0,1,1.58,10.09c-.1,1.7.51,2.17,2.1,2.13C137.81,111.18,141.15,111.24,144.48,111.24Zm31.58,25.3a76.14,76.14,0,0,0,9.68-1.17c3.24-.51,6.53-.81,9.76-1.28,4.9-.73,9.79-1.58,14.71-2.19,1.19-.15,2.8-.09,3-1.56a38,38,0,0,0,.91-5.38c0-2.33-.84-4.45-.91-6.73-.07-2.09-.78-2.35-2.86-2-6,1.13-12,2.45-18.08,3.09-4.29.46-8.55,1.21-12.89,1.34-4.6.13-4.49.55-5.41,5.29-.48,2.47-.45,5-1.05,7.41-.8,3.21-.89,3.26,2.25,3.13Zm-91.65,0h1.24c2.12,0,2.62-.42,1.94-2.44-.89-2.69-.79-5.51-1.4-8.25-1-4.36-.83-4.81-5.12-5.17-5.5-.46-10.95-1.22-16.43-1.91-4.88-.62-9.68-1.6-14.52-2.41-2.54-.42-2.9-.22-3.12,2.52-.18,2.18-.52,4.38-.68,6.52-.46,5.92-1.62,5.75,4.77,6.6,5.18.7,10.29,2,15.47,2.45C72.43,135,78.26,136,84.41,136.57Z"/><path class="cls-1" d="M52.39,188.7c-2.4-.37-5.4.63-8.29-.65a7,7,0,0,1-4.58-6.74c-.05-5.18,0-10.36,0-15.54,0-1.69.29-2.2,1.93-1.06,2.87,2,6.31,2.56,9.64,3.11,4.47.73,8.9,1.76,13.43,2A1.88,1.88,0,0,1,66.4,172c0,3.11.16,6.23-.07,9.33-.3,4.2-4,7.5-7.53,7.35C56.84,188.63,54.88,188.7,52.39,188.7Z"/><path class="cls-1" d="M220.69,173.82c0,2.45,0,4.89,0,7.33a7.49,7.49,0,0,1-7.39,7.54c-4,.05-8-.06-12,0-3.56.08-7.33-3.35-7.5-7.57-.13-3,0-5.91,0-8.87a2,2,0,0,1,2.16-2.37c5.91-.32,11.63-1.76,17.4-2.94a14.87,14.87,0,0,0,5.61-2.22c1.63-1.13,1.77-.35,1.76,1.08C220.67,168.5,220.69,171.16,220.69,173.82Z"/><path class="cls-1" d="M54.14,84.18c.26,2.55-.39,5.18-.82,7.74-.41,2.35-2.21,4.36-3.81,6.22-.84,1-1.39-.55-1.42-.75-.67-4.36-3.87-4.84-7.32-5.51-3-.58-5.83-1.85-7.37-4.95-1.64-3.29.8-8.72,4.34-9,3.24-.2,6.45-.66,9.69-.89C52.26,76.76,54.78,78.92,54.14,84.18Z"/><path class="cls-1" d="M213.43,77.13c2.47.41,5.77.58,9.06.82A5.17,5.17,0,0,1,227.05,82c.64,2.51.56,5.14-1.66,7.1a11.81,11.81,0,0,1-6.13,2.78c-1.51.23-2.89.79-4.36,1.1-1.9.4-1.53,2.57-2.42,3.8-.4.54-.29,1.59-1.16,1.65s-.81-.9-1.22-1.37a12.82,12.82,0,0,1-3.43-10.38,17.47,17.47,0,0,0,0-3.54C206.28,79,206.93,77.12,213.43,77.13Z"/><path class="cls-1" d="M100.93,82.69l1.7-.07c.86,0,1.73.11,2.59.1,9.93-.1,19.86-.86,29.78-.43,5.94.26,11.87.49,17.81.32l2.13.08c2.65,1.51,5.53.69,8.31.85l2.57.11c1.4,1.57,3.21.58,4.82.81a41.32,41.32,0,0,1,9.85,2.12,8.06,8.06,0,0,1,5.54,5.3,19.58,19.58,0,0,1-7.29-.19,40.22,40.22,0,0,0-4.46-.55c-12.52-1.24-25.08-2-37.64-2.5a309,309,0,0,0-33.06.14c-2.6.17-5.2.41-7.81.47-5.92.14-11.7,1.52-17.58,2-.85.07-1.51.84-2.45.73-.57-.06-1.21.08-1.54-.55a1.76,1.76,0,0,1,.18-1.86c1.45-2.35,3.85-3.36,6.22-4a74,74,0,0,1,12-2.06C95.41,83.39,98.28,84.2,100.93,82.69Z"/></g></g></svg>