<?xml version="1.0" encoding="UTF-8" standalone="no"?>
<!DOCTYPE svg PUBLIC "-//W3C//DTD SVG 1.1//EN"
 "http://www.w3.org/Graphics/SVG/1.1/DTD/svg11.dtd">
<!-- Generated by graphviz version 2.40.1 (20161225.0304)
 -->
<!-- Title: dependencies Pages: 1 -->
<svg width="908pt" height="360pt"
 viewBox="0.00 0.00 908.00 360.00" xmlns="http://www.w3.org/2000/svg" xmlns:xlink="http://www.w3.org/1999/xlink">
<g id="graph0" class="graph" transform="scale(1 1) rotate(0) translate(4 356)">
<title>dependencies</title>
<polygon fill="#ffffff" stroke="transparent" points="-4,4 -4,-356 904,-356 904,4 -4,4"/>
<text text-anchor="start" x="429.0091" y="-42.4" font-family="sans-serif" font-weight="bold" font-size="14.00" fill="#000000">Legend</text>
<polygon fill="#ffffb3" stroke="transparent" points="216,-10 216,-30 236,-30 236,-10 216,-10"/>
<text text-anchor="start" x="239.629" y="-15.4" font-family="sans-serif" font-size="14.00" fill="#000000"> &#160;Declarations</text>
<polygon fill="#8dd3c7" stroke="transparent" points="329,-10 329,-30 349,-30 349,-10 329,-10"/>
<text text-anchor="start" x="352.7251" y="-15.4" font-family="sans-serif" font-size="14.00" fill="#000000"> &#160;Module</text>
<polygon fill="#80b1d3" stroke="transparent" points="415,-10 415,-30 435,-30 435,-10 415,-10"/>
<text text-anchor="start" x="438.7812" y="-15.4" font-family="sans-serif" font-size="14.00" fill="#000000"> &#160;Bootstrap</text>
<polygon fill="#fdb462" stroke="transparent" points="512,-10 512,-30 532,-30 532,-10 512,-10"/>
<text text-anchor="start" x="535.6732" y="-15.4" font-family="sans-serif" font-size="14.00" fill="#000000"> &#160;Providers</text>
<polygon fill="#fb8072" stroke="transparent" points="608,-10 608,-30 628,-30 628,-10 608,-10"/>
<text text-anchor="start" x="631.7258" y="-15.4" font-family="sans-serif" font-size="14.00" fill="#000000"> &#160;Exports</text>
<g id="clust1" class="cluster">
<title>cluster_AppModule</title>
<polygon fill="none" stroke="#000000" stroke-dasharray="1,5" points="213,-146 213,-344 892,-344 892,-146 213,-146"/>
</g>
<g id="clust2" class="cluster">
<title>cluster_AppModule_declarations</title>
<polygon fill="none" stroke="#000000" points="485,-154 485,-206 884,-206 884,-154 485,-154"/>
</g>
<g id="clust6" class="cluster">
<title>cluster_AppModule_imports</title>
<polygon fill="none" stroke="#000000" points="221,-154 221,-206 477,-206 477,-154 221,-154"/>
</g>
<g id="clust8" class="cluster">
<title>cluster_AppModule_bootstrap</title>
<polygon fill="none" stroke="#000000" points="494,-284 494,-336 618,-336 618,-284 494,-284"/>
</g>
<g id="clust16" class="cluster">
<title>cluster_HomeModule</title>
<polygon fill="none" stroke="#000000" stroke-dasharray="1,5" points="8,-70 8,-138 582,-138 582,-70 8,-70"/>
</g>
<g id="clust17" class="cluster">
<title>cluster_HomeModule_declarations</title>
<polygon fill="none" stroke="#000000" points="280,-78 280,-130 574,-130 574,-78 280,-78"/>
</g>
<g id="clust20" class="cluster">
<title>cluster_HomeModule_imports</title>
<polygon fill="none" stroke="#000000" points="150,-78 150,-130 272,-130 272,-78 150,-78"/>
</g>
<g id="clust21" class="cluster">
<title>cluster_HomeModule_exports</title>
<polygon fill="none" stroke="#000000" points="16,-78 16,-130 142,-130 142,-78 16,-78"/>
</g>
<!-- AppComponent -->
<g id="node1" class="node">
<title>AppComponent</title>
<polygon fill="#ffffb3" stroke="#000000" points="875.9399,-198 770.0601,-198 770.0601,-162 875.9399,-162 875.9399,-198"/>
<text text-anchor="middle" x="823" y="-175.8" font-family="Times,serif" font-size="14.00" fill="#000000">AppComponent</text>
</g>
<!-- AppModule -->
<g id="node4" class="node">
<title>AppModule</title>
<polygon fill="#8dd3c7" stroke="#000000" points="597.6571,-263 594.6571,-267 573.6571,-267 570.6571,-263 514.3429,-263 514.3429,-227 597.6571,-227 597.6571,-263"/>
<text text-anchor="middle" x="556" y="-240.8" font-family="Times,serif" font-size="14.00" fill="#000000">AppModule</text>
</g>
<!-- AppComponent&#45;&gt;AppModule -->
<g id="edge1" class="edge">
<title>AppComponent&#45;&gt;AppModule</title>
<path fill="none" stroke="#000000" d="M823,-198.2843C823,-219.3211 823,-251 823,-251 823,-251 607.7188,-251 607.7188,-251"/>
<polygon fill="#000000" stroke="#000000" points="607.7188,-247.5001 597.7188,-251 607.7187,-254.5001 607.7188,-247.5001"/>
</g>
<!-- HomeComponent -->
<g id="node2" class="node">
<title>HomeComponent</title>
<polygon fill="#ffffb3" stroke="#000000" points="752.5451,-198 637.4549,-198 637.4549,-162 752.5451,-162 752.5451,-198"/>
<text text-anchor="middle" x="695" y="-175.8" font-family="Times,serif" font-size="14.00" fill="#000000">HomeComponent</text>
</g>
<!-- HomeComponent&#45;&gt;AppModule -->
<g id="edge2" class="edge">
<title>HomeComponent&#45;&gt;AppModule</title>
<path fill="none" stroke="#000000" d="M695,-198.0225C695,-215.3734 695,-239 695,-239 695,-239 607.7046,-239 607.7046,-239"/>
<polygon fill="#000000" stroke="#000000" points="607.7046,-235.5001 597.7046,-239 607.7045,-242.5001 607.7046,-235.5001"/>
</g>
<!-- NoPageComponent -->
<g id="node3" class="node">
<title>NoPageComponent</title>
<polygon fill="#ffffb3" stroke="#000000" points="618.6513,-198 493.3487,-198 493.3487,-162 618.6513,-162 618.6513,-198"/>
<text text-anchor="middle" x="556" y="-175.8" font-family="Times,serif" font-size="14.00" fill="#000000">NoPageComponent</text>
</g>
<!-- NoPageComponent&#45;&gt;AppModule -->
<g id="edge3" class="edge">
<title>NoPageComponent&#45;&gt;AppModule</title>
<path fill="none" stroke="#000000" d="M556,-198.1061C556,-198.1061 556,-216.991 556,-216.991"/>
<polygon fill="#000000" stroke="#000000" points="552.5001,-216.9909 556,-226.991 559.5001,-216.991 552.5001,-216.9909"/>
</g>
<!-- AppComponent  -->
<g id="node7" class="node">
<title>AppComponent </title>
<polygon fill="#80b1d3" stroke="#000000" points="610.439,-328 501.561,-328 501.561,-292 610.439,-292 610.439,-328"/>
<text text-anchor="middle" x="556" y="-305.8" font-family="Times,serif" font-size="14.00" fill="#000000">AppComponent </text>
</g>
<!-- AppModule&#45;&gt;AppComponent  -->
<g id="edge6" class="edge">
<title>AppModule&#45;&gt;AppComponent </title>
<path fill="none" stroke="#000000" stroke-dasharray="1,5" d="M556,-263.1061C556,-263.1061 556,-281.991 556,-281.991"/>
<polygon fill="#000000" stroke="#000000" points="552.5001,-281.9909 556,-291.991 559.5001,-281.991 552.5001,-281.9909"/>
</g>
<!-- AppRoutingModule -->
<g id="node5" class="node">
<title>AppRoutingModule</title>
<polygon fill="#8dd3c7" stroke="#000000" points="469.2744,-198 466.2744,-202 445.2744,-202 442.2744,-198 340.7256,-198 340.7256,-162 469.2744,-162 469.2744,-198"/>
<text text-anchor="middle" x="405" y="-175.8" font-family="Times,serif" font-size="14.00" fill="#000000">AppRoutingModule</text>
</g>
<!-- AppRoutingModule&#45;&gt;AppModule -->
<g id="edge4" class="edge">
<title>AppRoutingModule&#45;&gt;AppModule</title>
<path fill="none" stroke="#000000" d="M405,-198.0225C405,-215.3734 405,-239 405,-239 405,-239 504.3389,-239 504.3389,-239"/>
<polygon fill="#000000" stroke="#000000" points="504.3389,-242.5001 514.3389,-239 504.3388,-235.5001 504.3389,-242.5001"/>
</g>
<!-- HomeModule -->
<g id="node6" class="node">
<title>HomeModule</title>
<polygon fill="#8dd3c7" stroke="#000000" points="322.7619,-198 319.7619,-202 298.7619,-202 295.7619,-198 229.2381,-198 229.2381,-162 322.7619,-162 322.7619,-198"/>
<text text-anchor="middle" x="276" y="-175.8" font-family="Times,serif" font-size="14.00" fill="#000000">HomeModule</text>
</g>
<!-- HomeModule&#45;&gt;AppModule -->
<g id="edge5" class="edge">
<title>HomeModule&#45;&gt;AppModule</title>
<path fill="none" stroke="#000000" d="M276,-198.2843C276,-219.3211 276,-251 276,-251 276,-251 504.0812,-251 504.0812,-251"/>
<polygon fill="#000000" stroke="#000000" points="504.0812,-254.5001 514.0812,-251 504.0811,-247.5001 504.0812,-254.5001"/>
</g>
<!-- MapComponent  -->
<g id="node11" class="node">
<title>MapComponent </title>
<polygon fill="#fb8072" stroke="#000000" points="134.4927,-122 23.5073,-122 23.5073,-86 134.4927,-86 134.4927,-122"/>
<text text-anchor="middle" x="79" y="-99.8" font-family="Times,serif" font-size="14.00" fill="#000000">MapComponent </text>
</g>
<!-- HomeModule&#45;&gt;MapComponent  -->
<g id="edge10" class="edge">
<title>HomeModule&#45;&gt;MapComponent </title>
<path fill="none" stroke="#000000" stroke-dasharray="5,2" d="M229.0639,-180C170.7953,-180 79,-180 79,-180 79,-180 79,-132.0109 79,-132.0109"/>
<polygon fill="#000000" stroke="#000000" points="82.5001,-132.0109 79,-122.0109 75.5001,-132.011 82.5001,-132.0109"/>
</g>
<!-- DisableControlDirective -->
<g id="node8" class="node">
<title>DisableControlDirective</title>
<polygon fill="#ffffb3" stroke="#000000" points="565.6233,-122 412.3767,-122 412.3767,-86 565.6233,-86 565.6233,-122"/>
<text text-anchor="middle" x="489" y="-99.8" font-family="Times,serif" font-size="14.00" fill="#000000">DisableControlDirective</text>
</g>
<!-- DisableControlDirective&#45;&gt;HomeModule -->
<g id="edge7" class="edge">
<title>DisableControlDirective&#45;&gt;HomeModule</title>
<path fill="none" stroke="#000000" d="M440.7879,-122.1097C440.7879,-131.897 440.7879,-142 440.7879,-142 440.7879,-142 311.0886,-142 311.0886,-142 311.0886,-142 311.0886,-151.8903 311.0886,-151.8903"/>
<polygon fill="#000000" stroke="#000000" points="307.5887,-151.8903 311.0886,-161.8903 314.5887,-151.8904 307.5887,-151.8903"/>
</g>
<!-- MapComponent -->
<g id="node9" class="node">
<title>MapComponent</title>
<polygon fill="#ffffb3" stroke="#000000" points="394.4916,-122 287.5084,-122 287.5084,-86 394.4916,-86 394.4916,-122"/>
<text text-anchor="middle" x="341" y="-99.8" font-family="Times,serif" font-size="14.00" fill="#000000">MapComponent</text>
</g>
<!-- MapComponent&#45;&gt;HomeModule -->
<g id="edge8" class="edge">
<title>MapComponent&#45;&gt;HomeModule</title>
<path fill="none" stroke="#000000" d="M299.2964,-122.0109C299.2964,-122.0109 299.2964,-151.855 299.2964,-151.855"/>
<polygon fill="#000000" stroke="#000000" points="295.7965,-151.8549 299.2964,-161.855 302.7965,-151.855 295.7965,-151.8549"/>
</g>
<!-- MaterialModule -->
<g id="node10" class="node">
<title>MaterialModule</title>
<polygon fill="#8dd3c7" stroke="#000000" points="264.4706,-122 261.4706,-126 240.4706,-126 237.4706,-122 157.5294,-122 157.5294,-86 264.4706,-86 264.4706,-122"/>
<text text-anchor="middle" x="211" y="-99.8" font-family="Times,serif" font-size="14.00" fill="#000000">MaterialModule</text>
</g>
<!-- MaterialModule&#45;&gt;HomeModule -->
<g id="edge9" class="edge">
<title>MaterialModule&#45;&gt;HomeModule</title>
<path fill="none" stroke="#000000" d="M246.8023,-122.0109C246.8023,-122.0109 246.8023,-151.855 246.8023,-151.855"/>
<polygon fill="#000000" stroke="#000000" points="243.3023,-151.8549 246.8023,-161.855 250.3023,-151.855 243.3023,-151.8549"/>
</g>
</g>
</svg>
