<?xml version="1.0" encoding="UTF-8" standalone="no"?>
<!DOCTYPE svg PUBLIC "-//W3C//DTD SVG 1.1//EN"
 "http://www.w3.org/Graphics/SVG/1.1/DTD/svg11.dtd">
<!-- Generated by graphviz version 2.40.1 (20161225.0304)
 -->
<!-- Title: dependencies Pages: 1 -->
<svg width="983pt" height="290pt"
 viewBox="0.00 0.00 983.00 290.00" xmlns="http://www.w3.org/2000/svg" xmlns:xlink="http://www.w3.org/1999/xlink">
<g id="graph0" class="graph" transform="scale(1 1) rotate(0) translate(4 286)">
<title>dependencies</title>
<polygon fill="#ffffff" stroke="transparent" points="-4,4 -4,-286 979,-286 979,4 -4,4"/>
<text text-anchor="start" x="466.5091" y="-42.4" font-family="sans-serif" font-weight="bold" font-size="14.00" fill="#000000">Legend</text>
<polygon fill="#ffffb3" stroke="transparent" points="253.5,-10 253.5,-30 273.5,-30 273.5,-10 253.5,-10"/>
<text text-anchor="start" x="277.129" y="-15.4" font-family="sans-serif" font-size="14.00" fill="#000000"> &#160;Declarations</text>
<polygon fill="#8dd3c7" stroke="transparent" points="366.5,-10 366.5,-30 386.5,-30 386.5,-10 366.5,-10"/>
<text text-anchor="start" x="390.2251" y="-15.4" font-family="sans-serif" font-size="14.00" fill="#000000"> &#160;Module</text>
<polygon fill="#80b1d3" stroke="transparent" points="452.5,-10 452.5,-30 472.5,-30 472.5,-10 452.5,-10"/>
<text text-anchor="start" x="476.2812" y="-15.4" font-family="sans-serif" font-size="14.00" fill="#000000"> &#160;Bootstrap</text>
<polygon fill="#fdb462" stroke="transparent" points="549.5,-10 549.5,-30 569.5,-30 569.5,-10 549.5,-10"/>
<text text-anchor="start" x="573.1732" y="-15.4" font-family="sans-serif" font-size="14.00" fill="#000000"> &#160;Providers</text>
<polygon fill="#fb8072" stroke="transparent" points="645.5,-10 645.5,-30 665.5,-30 665.5,-10 645.5,-10"/>
<text text-anchor="start" x="669.2258" y="-15.4" font-family="sans-serif" font-size="14.00" fill="#000000"> &#160;Exports</text>
<g id="clust1" class="cluster">
<title>cluster_AppModule</title>
<polygon fill="none" stroke="#000000" stroke-dasharray="1,5" points="8,-70 8,-274 687,-274 687,-70 8,-70"/>
</g>
<g id="clust2" class="cluster">
<title>cluster_AppModule_declarations</title>
<polygon fill="none" stroke="#000000" points="16,-78 16,-130 415,-130 415,-78 16,-78"/>
</g>
<g id="clust6" class="cluster">
<title>cluster_AppModule_imports</title>
<polygon fill="none" stroke="#000000" points="423,-78 423,-130 679,-130 679,-78 423,-78"/>
</g>
<g id="clust8" class="cluster">
<title>cluster_AppModule_bootstrap</title>
<polygon fill="none" stroke="#000000" points="292,-214 292,-266 416,-266 416,-214 292,-214"/>
</g>
<g id="clust16" class="cluster">
<title>cluster_HomeModule</title>
<polygon fill="none" stroke="#000000" stroke-dasharray="1,5" points="695,-138 695,-206 967,-206 967,-138 695,-138"/>
</g>
<g id="clust17" class="cluster">
<title>cluster_HomeModule_declarations</title>
<polygon fill="none" stroke="#000000" points="837,-146 837,-198 959,-198 959,-146 837,-146"/>
</g>
<g id="clust20" class="cluster">
<title>cluster_HomeModule_exports</title>
<polygon fill="none" stroke="#000000" points="703,-146 703,-198 829,-198 829,-146 703,-146"/>
</g>
<!-- AppComponent -->
<g id="node1" class="node">
<title>AppComponent</title>
<polygon fill="#ffffb3" stroke="#000000" points="406.9399,-122 301.0601,-122 301.0601,-86 406.9399,-86 406.9399,-122"/>
<text text-anchor="middle" x="354" y="-99.8" font-family="Times,serif" font-size="14.00" fill="#000000">AppComponent</text>
</g>
<!-- AppModule -->
<g id="node4" class="node">
<title>AppModule</title>
<polygon fill="#8dd3c7" stroke="#000000" points="395.6571,-190 392.6571,-194 371.6571,-194 368.6571,-190 312.3429,-190 312.3429,-154 395.6571,-154 395.6571,-190"/>
<text text-anchor="middle" x="354" y="-167.8" font-family="Times,serif" font-size="14.00" fill="#000000">AppModule</text>
</g>
<!-- AppComponent&#45;&gt;AppModule -->
<g id="edge1" class="edge">
<title>AppComponent&#45;&gt;AppModule</title>
<path fill="none" stroke="#000000" d="M354,-122.2228C354,-122.2228 354,-143.7269 354,-143.7269"/>
<polygon fill="#000000" stroke="#000000" points="350.5001,-143.7269 354,-153.7269 357.5001,-143.727 350.5001,-143.7269"/>
</g>
<!-- HomeComponent -->
<g id="node2" class="node">
<title>HomeComponent</title>
<polygon fill="#ffffb3" stroke="#000000" points="283.5451,-122 168.4549,-122 168.4549,-86 283.5451,-86 283.5451,-122"/>
<text text-anchor="middle" x="226" y="-99.8" font-family="Times,serif" font-size="14.00" fill="#000000">HomeComponent</text>
</g>
<!-- HomeComponent&#45;&gt;AppModule -->
<g id="edge2" class="edge">
<title>HomeComponent&#45;&gt;AppModule</title>
<path fill="none" stroke="#000000" d="M226,-122.2667C226,-140.5552 226,-166 226,-166 226,-166 302.088,-166 302.088,-166"/>
<polygon fill="#000000" stroke="#000000" points="302.088,-169.5001 312.088,-166 302.088,-162.5001 302.088,-169.5001"/>
</g>
<!-- NoPageComponent -->
<g id="node3" class="node">
<title>NoPageComponent</title>
<polygon fill="#ffffb3" stroke="#000000" points="149.6513,-122 24.3487,-122 24.3487,-86 149.6513,-86 149.6513,-122"/>
<text text-anchor="middle" x="87" y="-99.8" font-family="Times,serif" font-size="14.00" fill="#000000">NoPageComponent</text>
</g>
<!-- NoPageComponent&#45;&gt;AppModule -->
<g id="edge3" class="edge">
<title>NoPageComponent&#45;&gt;AppModule</title>
<path fill="none" stroke="#000000" d="M87,-122.2921C87,-144.2057 87,-178 87,-178 87,-178 302.2813,-178 302.2813,-178"/>
<polygon fill="#000000" stroke="#000000" points="302.2813,-181.5001 312.2813,-178 302.2812,-174.5001 302.2813,-181.5001"/>
</g>
<!-- AppComponent  -->
<g id="node7" class="node">
<title>AppComponent </title>
<polygon fill="#80b1d3" stroke="#000000" points="408.439,-258 299.561,-258 299.561,-222 408.439,-222 408.439,-258"/>
<text text-anchor="middle" x="354" y="-235.8" font-family="Times,serif" font-size="14.00" fill="#000000">AppComponent </text>
</g>
<!-- AppModule&#45;&gt;AppComponent  -->
<g id="edge6" class="edge">
<title>AppModule&#45;&gt;AppComponent </title>
<path fill="none" stroke="#000000" stroke-dasharray="1,5" d="M354,-190.2228C354,-190.2228 354,-211.7269 354,-211.7269"/>
<polygon fill="#000000" stroke="#000000" points="350.5001,-211.7269 354,-221.7269 357.5001,-211.727 350.5001,-211.7269"/>
</g>
<!-- AppRoutingModule -->
<g id="node5" class="node">
<title>AppRoutingModule</title>
<polygon fill="#8dd3c7" stroke="#000000" points="559.2744,-122 556.2744,-126 535.2744,-126 532.2744,-122 430.7256,-122 430.7256,-86 559.2744,-86 559.2744,-122"/>
<text text-anchor="middle" x="495" y="-99.8" font-family="Times,serif" font-size="14.00" fill="#000000">AppRoutingModule</text>
</g>
<!-- AppRoutingModule&#45;&gt;AppModule -->
<g id="edge4" class="edge">
<title>AppRoutingModule&#45;&gt;AppModule</title>
<path fill="none" stroke="#000000" d="M495,-122.2228C495,-142.3652 495,-172 495,-172 495,-172 405.9229,-172 405.9229,-172"/>
<polygon fill="#000000" stroke="#000000" points="405.9229,-168.5001 395.9229,-172 405.9229,-175.5001 405.9229,-168.5001"/>
</g>
<!-- HomeModule -->
<g id="node6" class="node">
<title>HomeModule</title>
<polygon fill="#8dd3c7" stroke="#000000" points="670.7619,-122 667.7619,-126 646.7619,-126 643.7619,-122 577.2381,-122 577.2381,-86 670.7619,-86 670.7619,-122"/>
<text text-anchor="middle" x="624" y="-99.8" font-family="Times,serif" font-size="14.00" fill="#000000">HomeModule</text>
</g>
<!-- HomeModule&#45;&gt;AppModule -->
<g id="edge5" class="edge">
<title>HomeModule&#45;&gt;AppModule</title>
<path fill="none" stroke="#000000" d="M608.3731,-122.2479C608.3731,-145.0179 608.3731,-181 608.3731,-181 608.3731,-181 405.7197,-181 405.7197,-181"/>
<polygon fill="#000000" stroke="#000000" points="405.7197,-177.5001 395.7197,-181 405.7197,-184.5001 405.7197,-177.5001"/>
</g>
<!-- MapComponent  -->
<g id="node9" class="node">
<title>MapComponent </title>
<polygon fill="#fb8072" stroke="#000000" points="821.4927,-190 710.5073,-190 710.5073,-154 821.4927,-154 821.4927,-190"/>
<text text-anchor="middle" x="766" y="-167.8" font-family="Times,serif" font-size="14.00" fill="#000000">MapComponent </text>
</g>
<!-- HomeModule&#45;&gt;MapComponent  -->
<g id="edge8" class="edge">
<title>HomeModule&#45;&gt;MapComponent </title>
<path fill="none" stroke="#000000" stroke-dasharray="5,2" d="M639.6269,-122.0225C639.6269,-139.3734 639.6269,-163 639.6269,-163 639.6269,-163 700.5709,-163 700.5709,-163"/>
<polygon fill="#000000" stroke="#000000" points="700.571,-166.5001 710.5709,-163 700.5709,-159.5001 700.571,-166.5001"/>
</g>
<!-- MapComponent -->
<g id="node8" class="node">
<title>MapComponent</title>
<polygon fill="#ffffb3" stroke="#000000" points="951.4916,-190 844.5084,-190 844.5084,-154 951.4916,-154 951.4916,-190"/>
<text text-anchor="middle" x="898" y="-167.8" font-family="Times,serif" font-size="14.00" fill="#000000">MapComponent</text>
</g>
<!-- MapComponent&#45;&gt;HomeModule -->
<g id="edge7" class="edge">
<title>MapComponent&#45;&gt;HomeModule</title>
<path fill="none" stroke="#000000" d="M898,-153.7772C898,-133.6348 898,-104 898,-104 898,-104 680.791,-104 680.791,-104"/>
<polygon fill="#000000" stroke="#000000" points="680.791,-100.5001 670.791,-104 680.7909,-107.5001 680.791,-100.5001"/>
</g>
</g>
</svg>
